<svg xmlns="http://www.w3.org/2000/svg" viewBox="0 0 509.062 139.629" class="svg-src"><defs><linearGradient id="kd" x1="221.457" x2="220.617" y1="6.962" y2="-312.278" gradientTransform="matrix(.4725 0 0 -.4725 -22.512 -9.828)" gradientUnits="userSpaceOnUse"><stop offset="0" stop-color="#c91432"/><stop offset=".19" stop-color="#ca1831"/><stop offset=".34" stop-color="#cd242d"/><stop offset=".48" stop-color="#d23229"/><stop offset=".61" stop-color="#d94a21"/><stop offset=".74" stop-color="#e16a1b"/><stop offset=".86" stop-color="#ec8f13"/><stop offset=".98" stop-color="#f8bb0c"/><stop offset="1" stop-color="#fac305"/></linearGradient></defs><path fill="#fff" d="M238.135 123.375c0 2.078-.378 4.158-1.229 6.049-.756 1.844-1.89 3.543-3.308 4.961s-3.072 2.553-4.961 3.354a15.464 15.464 0 0 1-6.001 1.229h-30.713v-55.9h30.713c2.078 0 4.111.426 6.001 1.229a16.205 16.205 0 0 1 4.961 3.355 15.257 15.257 0 0 1 3.308 4.961 15.557 15.557 0 0 1 1.229 6.049v24.713zm-39.03 8.363h23.579a8.101 8.101 0 0 0 5.954-2.457c1.559-1.559 2.457-3.688 2.41-5.906V98.662c0-1.135-.189-2.221-.662-3.26-.426-.992-1.04-1.893-1.749-2.693a7.87 7.87 0 0 0-2.646-1.844 8.547 8.547 0 0 0-3.261-.662h-23.626v41.535zM256.705 138.92h-7.135V83.068h7.135v55.852zM277.542 137.738c-1.795-.803-3.449-1.889-4.865-3.307-1.371-1.418-2.506-3.072-3.262-4.914-.803-1.939-1.229-3.971-1.182-6.049V98.566c0-2.078.379-4.109 1.182-6.047.756-1.844 1.891-3.496 3.262-4.914 1.369-1.418 3.023-2.506 4.865-3.309a15.236 15.236 0 0 1 5.955-1.229h20.791c2.078 0 4.109.424 5.953 1.229 1.795.803 3.449 1.891 4.867 3.309 1.369 1.418 2.504 3.07 3.26 4.914a14.707 14.707 0 0 1 1.182 6.047v2.08h-7.041v-2.078c.047-2.223-.85-4.35-2.41-5.908-1.512-1.605-3.637-2.457-5.859-2.457h-20.789c-1.088 0-2.174.189-3.166.662-1.938.852-3.498 2.457-4.348 4.441a8.538 8.538 0 0 0-.662 3.26v24.902c0 1.088.189 2.221.662 3.213.426.992 1.039 1.844 1.748 2.6.756.756 1.607 1.371 2.551 1.795.992.426 2.08.662 3.166.662h20.791a8.298 8.298 0 0 0 3.213-.662 7.747 7.747 0 0 0 2.6-1.795c.756-.756 1.322-1.654 1.748-2.6.426-1.039.662-2.125.662-3.213v-8.885h-22.35v-7.229h29.391v16.113c0 2.078-.379 4.158-1.182 6.049-.756 1.842-1.891 3.496-3.262 4.914-1.369 1.418-3.023 2.504-4.865 3.309a15.272 15.272 0 0 1-5.955 1.229h-20.791c-1.889.001-3.969-.425-5.86-1.23zM338.214 138.92h-7.135V83.068h7.135v55.852zM371.574 92.945c.236-.945.568-1.844.945-2.742h-22.775v-7.135h52.451v7.135h-18.24c-1.512-.047-2.93.568-3.969 1.654-1.088 1.039-1.654 2.504-1.654 4.016v43.096h-7.135V95.873c.047-.992.142-1.984.377-2.928zM420.669 138.92h-7.135V98.992c0-2.125.426-4.252 1.229-6.236a16.571 16.571 0 0 1 3.355-5.057 16.221 16.221 0 0 1 4.961-3.402 15.233 15.233 0 0 1 6.143-1.275h30.43v55.854h-7.135v-24.383H424.97v-7.23h27.594V90.205h-23.295a8.226 8.226 0 0 0-3.355.709c-2.078.896-3.686 2.598-4.535 4.631a8.657 8.657 0 0 0-.709 3.449v39.926h-.001zM480.396 137.738c-1.795-.803-3.449-1.889-4.867-3.307-1.371-1.418-2.504-3.072-3.26-4.914a14.684 14.684 0 0 1-1.182-6.049V83.115h7.135v40.4c0 1.086.189 2.221.662 3.213.426.992 1.039 1.844 1.748 2.6.756.756 1.605 1.369 2.6 1.795a8.066 8.066 0 0 0 3.164.662h22.209v7.229h-22.209a16.18 16.18 0 0 1-6-1.276zM191.923.046h13.703V24.05L237.143.046h18.854l-37.234 27.217 41.865 28.209h-21.026l-33.927-23.295v23.295h-13.703L191.923.046zM274.566.046h13.75v55.428h-13.75V.046zM341.476 55.427H327.63V13.845h-26.65V0h66.672v13.893h-26.129v41.535h-.047z"/><path fill="url(#kd)" d="M94.537-.047H10.806C4.9-.047-.156 4.536-.44 10.49c-.331 6.048 4.347 11.199 10.396 11.529h84.675c26.697 0 48.669 22.02 47.961 49-.567 23.342-17.767 42.525-40.022 45.975a8.568 8.568 0 0 1-6.71-1.795L65.241 91.006 95.057 62.56c4.252-4.063 4.867-10.916 1.04-15.403-3.828-4.583-10.679-5.149-15.215-1.323a4.841 4.841 0 0 0-.52.473L52.151 73.24V44.89H10.806C4.9 44.89-.156 49.472-.44 55.427c-.331 6.047 4.347 11.198 10.396 11.528H30.321v61.333c0 5.953 4.536 11.104 10.396 11.34 6.048.236 11.151-4.439 11.388-10.488v-20.414l35.25 27.832c.567.473 1.229.85 1.89 1.18 1.795 1.229 3.969 1.938 6.143 1.938 38.274 0 69.366-31.656 69.035-70.499-.332-38.51-31.896-69.224-69.886-69.224z"/></svg>