<svg xmlns="http://www.w3.org/2000/svg" viewBox="0 0 173.6 56.7"><path fill="#ce0e2d" d="M44.5 0v11.3H34.2v45.3H22V11.3H11.7V0zm12.1 38.6-1.7.5c-2.8.9-5.6 1.4-8.5 1.7l-3.1.1 11.2 15.7h15l-12.9-18z"/><path fill="#ffcd00" d="m19.7 49-3.6-.2-.6-3.3-1.8 3.2-3.8-.3 2.6 2.3-1.8 3.2 3.5-1.8 3.4 2.2-1.1-3.3zM9.4 37.8 6 37.6l-.5-3-1.7 2.9-3.5-.3 2.4 2.1-2.2 2.9 3.8-1.6 2.6 2-.4-3zM8.3 25.6l-3.1-.2-.5-2.5-1.5 2.4-3.2-.2 2.2 1.8-1.9 2.4L3.6 28 6 29.6l-.4-2.5zm5.7-9.5-2.7-.1-.4-2-1.3 1.9-2.8-.2 1.9 1.4L7 19l2.9-1 2.2 1.3-.4-1.9zm52.2-4.4c-1-2.4-2.5-4.5-4.5-6.2-2-1.7-4.3-3.1-7.1-4C50.1 0 45.7.1 45.7.1v11.3c2 .2 4.1.7 6 2.2 1.9 1.5 2.8 3.6 2.8 6.4v.2c0 2.4-.9 4.5-2.7 6.1-1.8 1.6-4.4 2.5-7.6 2.5h-8.8v11.1h8.4c3.3 0 6.5-.4 9.4-1.3 2.9-.8 5.5-2.1 7.6-3.8 2.2-1.7 3.9-3.8 5.1-6.2 1.2-2.5 1.9-5.4 1.9-8.7v-.2c0-2.9-.5-5.6-1.6-8z"/><path fill="var(--text,#575756)" d="M81.2 5.8h3.4c.5 0 .9.1 1.3.2s.7.3 1 .6c.3.3.5.6.6.9.1.4.2.7.2 1.2s-.1.9-.3 1.3c-.2.4-.4.7-.7.9-.3.2-.7.4-1.1.6-.4.1-.8.2-1.3.2h-1.4v2.5h-1.8V5.8zm3.3 4.2c.5 0 .8-.1 1.1-.4.3-.2.4-.5.4-.9s-.1-.7-.4-.9c-.3-.2-.6-.3-1.1-.3h-1.4V10h1.4zM89 5.4h1.8v8.7H89V5.4zm5.3 8.8c-.3 0-.6 0-.8-.1-.3-.1-.5-.2-.7-.4-.2-.2-.4-.4-.5-.6-.1-.2-.2-.5-.2-.8 0-.3.1-.6.2-.9.1-.3.3-.5.5-.6.2-.2.5-.3.8-.4.3-.1.7-.1 1-.1.3 0 .6 0 .8.1.2 0 .5.1.7.2v-.1c0-.4-.1-.7-.3-.9-.2-.2-.6-.3-1-.3-.3 0-.7 0-.9.1-.3.1-.5.1-.8.3l-.5-1.4c.4-.3.8-.4 1.2-.5.4-.1.8-.1 1.4-.1.5 0 .9.1 1.3.2s.6.3.9.5c.2.2.4.5.5.9 0 .3.1.7.1 1.1v3.7h-1.7v-.7c-.2.2-.5.4-.8.6-.3.1-.7.2-1.2.2zm.6-1.2c.4 0 .8-.1 1-.3.3-.2.4-.5.4-.8v-.3c-.2-.1-.3-.1-.5-.2-.2 0-.4-.1-.6-.1-.4 0-.7.1-.9.2-.2.2-.3.4-.3.7 0 .2.1.4.3.6.1.1.3.2.6.2zm4.7-5.3h1.8v.9c.1-.1.2-.3.3-.4.1-.1.3-.2.4-.3.2-.1.3-.2.5-.2.2-.1.4-.1.6-.1.7 0 1.2.2 1.6.6.4.4.6 1 .6 1.7V14h-1.8v-3.5c0-.4-.1-.7-.3-1-.2-.2-.5-.3-.8-.3s-.6.1-.8.3c-.2.2-.3.5-.3 1V14h-1.8V7.7zm13.5 6.5c-.4 0-.7-.1-1.1-.2-.3-.1-.7-.4-.9-.6-.3-.3-.5-.6-.6-1-.2-.4-.2-.9-.2-1.4 0-.5.1-1 .2-1.4.2-.4.4-.8.6-1 .3-.3.6-.5.9-.6.3-.1.7-.2 1.1-.2.5 0 .9.1 1.2.3.3.2.6.4.8.7V5.4h1.8v8.7h-1.8v-.9c-.2.3-.5.5-.8.7-.3.2-.7.3-1.2.3zm.5-1.5c.2 0 .4 0 .6-.1.2-.1.3-.2.5-.4.1-.2.2-.3.3-.6.1-.2.1-.5.1-.7 0-.3 0-.5-.1-.7l-.3-.6c-.1-.2-.3-.3-.5-.4-.2-.1-.4-.1-.6-.1s-.4 0-.6.1c-.2.1-.3.2-.5.4-.1.2-.3.3-.3.6-.1.2-.1.5-.1.7 0 .3 0 .5.1.7l.3.6c.1.2.3.3.5.4.1 0 .3.1.6.1zm7.9 1.5c-.5 0-.9-.1-1.3-.2-.4-.2-.8-.4-1.1-.7-.3-.3-.5-.6-.7-1-.2-.4-.2-.8-.2-1.3s.1-.9.2-1.3c.2-.4.4-.8.6-1.1.3-.3.6-.5 1-.7.4-.2.8-.3 1.3-.3s1 .1 1.4.3c.4.2.7.4 1 .8.3.3.4.7.6 1.1.1.4.2.8.2 1.3v.4H120c.1.4.3.7.5.9.3.2.6.3 1 .3.3 0 .6-.1.8-.2.2-.1.5-.3.7-.5l1 .9c-.3.4-.7.7-1.1.9-.3.3-.8.4-1.4.4zm1.2-3.8c-.1-.4-.2-.7-.4-1-.2-.2-.5-.4-.9-.4s-.7.1-.9.4c-.2.2-.4.6-.5 1h2.7zm-41.3 8.8h3.8c1.1 0 1.9.3 2.4.8s.7 1.1.7 1.9c0 .7-.2 1.2-.5 1.6-.3.4-.8.7-1.3.9l2 3h-2.1l-1.8-2.7h-1.4v2.7h-1.8v-8.2zm3.6 4c.5 0 .8-.1 1-.3.2-.2.4-.5.4-.9s-.1-.7-.4-.9c-.3-.2-.6-.3-1.1-.3h-1.8v2.4H85zm7.8 4.4c-.5 0-.9-.1-1.3-.2-.4-.2-.8-.4-1.1-.7-.3-.3-.5-.6-.7-1-.2-.4-.2-.8-.2-1.3s.1-.9.2-1.3c.2-.4.4-.8.6-1.1.3-.3.6-.5 1-.7.4-.2.8-.3 1.3-.3s1 .1 1.4.3c.4.2.7.4 1 .8.3.3.4.7.6 1.1.1.4.2.8.2 1.3v.4h-4.4c.1.4.3.7.5.9.3.2.6.3 1 .3.3 0 .6-.1.8-.2.2-.1.5-.3.7-.5l1 .9c-.3.4-.7.7-1.1.9-.5.3-1 .4-1.5.4zm1.1-3.8c-.1-.4-.2-.7-.4-1-.2-.2-.5-.4-.9-.4s-.7.1-.9.4c-.2.2-.4.6-.5 1h2.7zm6.1 3.8c-.5 0-.9-.1-1.3-.3-.4-.2-.8-.4-1-.7-.3-.3-.5-.6-.7-1-.2-.4-.2-.8-.2-1.3s.1-.9.2-1.3c.2-.4.4-.8.7-1.1.3-.3.6-.5 1-.7.4-.2.9-.3 1.3-.3.6 0 1.1.1 1.5.3.4.2.7.5 1 .8l-1.1 1.2c-.2-.2-.4-.4-.6-.5-.2-.1-.5-.2-.8-.2-.2 0-.4 0-.6.1-.2.1-.3.2-.5.4-.1.2-.2.3-.3.6s-.1.4-.1.7c0 .2 0 .5.1.7l.3.6c.1.2.3.3.5.4.2.1.4.1.7.1.3 0 .6-.1.8-.2.2-.1.4-.3.7-.5l1.1 1.1c-.3.3-.7.6-1.1.8-.4.2-1 .3-1.6.3zm5.9 0c-.7 0-1.2-.2-1.6-.6-.4-.4-.6-1-.6-1.7v-4.1h1.8v3.5c0 .4.1.7.3 1 .2.2.5.3.8.3.3 0 .6-.1.8-.3s.3-.5.3-1v-3.5h1.8v6.4h-1.8v-.9c-.1.1-.2.3-.3.4-.1.1-.3.2-.4.3-.2.1-.3.2-.5.2h-.6zm5.3-6.5h1.8v.9c.2-.3.5-.5.8-.7.3-.2.7-.3 1.2-.3.4 0 .7.1 1.1.2.3.1.7.4.9.6.3.3.5.6.6 1 .2.4.2.9.2 1.4 0 .5-.1 1-.2 1.4-.2.4-.4.8-.6 1-.3.3-.6.5-.9.6-.3.1-.7.2-1.1.2-.5 0-.9-.1-1.2-.3-.3-.2-.6-.4-.8-.7v2.7h-1.8v-8zm3.3 5c.2 0 .4 0 .6-.1.2-.1.3-.2.5-.4.1-.2.3-.3.3-.6.1-.2.1-.5.1-.7 0-.3 0-.5-.1-.7l-.3-.6c-.1-.2-.3-.3-.5-.4-.2-.1-.4-.1-.6-.1-.2 0-.4 0-.6.1-.2.1-.3.2-.5.4-.1.2-.2.3-.3.6-.1.2-.1.5-.1.7 0 .3 0 .5.1.7l.3.6c.1.2.3.3.5.4.2 0 .4.1.6.1zm7.7 1.5c-.5 0-.9-.1-1.3-.2-.4-.2-.8-.4-1.1-.7-.3-.3-.5-.6-.7-1-.2-.4-.2-.8-.2-1.3s.1-.9.2-1.3c.2-.4.4-.8.6-1.1.3-.3.6-.5 1-.7.4-.2.8-.3 1.3-.3s1 .1 1.4.3c.4.2.7.4 1 .8.3.3.4.7.6 1.1.1.4.2.8.2 1.3v.4h-4.4c.1.4.3.7.5.9.3.2.6.3 1 .3.3 0 .6-.1.8-.2.2-.1.5-.3.7-.5l1 .9c-.3.4-.7.7-1.1.9-.4.3-.9.4-1.5.4zm1.1-3.8c-.1-.4-.2-.7-.4-1-.2-.2-.5-.4-.9-.4s-.7.1-.9.4c-.2.2-.4.6-.5 1h2.7zm3.1-2.7h1.8v1.3c.2-.4.4-.8.7-1 .3-.3.7-.4 1.3-.4v1.9h-.1c-.6 0-1.1.2-1.4.5-.3.4-.5.9-.5 1.7v2.3h-1.8v-6.3zm6.8 6.5c-.3 0-.6 0-.8-.1-.3-.1-.5-.2-.7-.4-.2-.2-.4-.4-.5-.6-.1-.2-.2-.5-.2-.8 0-.3.1-.6.2-.9.1-.3.3-.5.5-.6.2-.2.5-.3.8-.4.3-.1.7-.1 1-.1.3 0 .6 0 .8.1.2 0 .5.1.7.2v-.1c0-.4-.1-.7-.3-.9s-.6-.3-1-.3c-.3 0-.7 0-.9.1-.3.1-.5.1-.8.3l-.5-1.4c.3-.2.7-.3 1.1-.4.4-.1.8-.1 1.4-.1.5 0 .9.1 1.3.2s.6.3.9.5c.2.2.4.5.5.9.1.3.2.7.2 1.2v3.7h-1.7V27c-.2.2-.5.4-.8.6-.4-.1-.8 0-1.2 0zm.5-1.2c.4 0 .8-.1 1-.3.3-.2.4-.5.4-.8V25c-.2-.1-.3-.1-.5-.2-.2 0-.4-.1-.6-.1-.4 0-.7.1-.9.2-.2.2-.3.4-.3.7 0 .2.1.4.3.6.1.1.3.2.6.2zm7.7 1.2c-.5 0-.9-.1-1.3-.3-.4-.2-.8-.4-1-.7-.3-.3-.5-.6-.7-1-.2-.4-.2-.8-.2-1.3s.1-.9.2-1.3c.2-.4.4-.8.7-1.1.3-.3.6-.5 1-.7.4-.2.9-.3 1.3-.3.6 0 1.1.1 1.5.3.4.2.7.5 1 .8l-1.1 1.2c-.2-.2-.4-.4-.6-.5-.2-.1-.5-.2-.8-.2-.2 0-.4 0-.6.1-.2.1-.3.2-.5.4-.1.2-.2.3-.3.6-.1.2-.1.4-.1.7 0 .2 0 .5.1.7l.3.6c.1.2.3.3.5.4.2.1.4.1.7.1.3 0 .6-.1.8-.2s.4-.3.7-.5l1.1 1.1c-.3.3-.7.6-1.1.8-.4.2-1 .3-1.6.3zm3.8-8.8h1.9v1.6h-1.9v-1.6zm.1 2.3h1.8v6.4h-1.8v-6.4zm6.6 6.5c-.5 0-.9-.1-1.4-.3-.4-.2-.8-.4-1.1-.7-.3-.3-.5-.6-.7-1-.2-.4-.3-.8-.3-1.3s.1-.9.3-1.3c.2-.4.4-.7.7-1 .3-.3.7-.5 1.1-.7.4-.2.9-.3 1.4-.3.5 0 .9.1 1.4.3.4.2.8.4 1.1.7.3.3.5.6.7 1 .2.4.3.8.3 1.3s-.1.9-.3 1.3c-.2.4-.4.7-.7 1-.3.3-.7.5-1.1.7-.5.2-.9.3-1.4.3zm0-1.5c.3 0 .5 0 .7-.1.2-.1.4-.2.5-.4.1-.2.3-.3.3-.6.1-.2.1-.4.1-.7 0-.2 0-.5-.1-.7l-.3-.6c-.2-.2-.3-.3-.5-.4-.2-.1-.4-.1-.7-.1-.3 0-.5 0-.7.1-.2.1-.4.2-.5.4-.1.2-.3.3-.3.6-.1.2-.1.4-.1.7 0 .2 0 .5.1.7l.3.6c.2.2.3.3.5.4s.4.1.7.1zm.6-7.8 1.6.7-1.5 1.4h-1.4l1.3-2.1zm4.1 2.8h1.8v.9c.1-.1.2-.3.3-.4.1-.1.3-.2.4-.3.2-.1.3-.2.5-.2.2-.1.4-.1.6-.1.7 0 1.2.2 1.6.6.4.4.6 1 .6 1.7v4.1h-1.8V24c0-.4-.1-.7-.3-1-.2-.2-.5-.3-.8-.3-.3 0-.6.1-.8.3-.2.2-.3.5-.3 1v3.5h-1.8v-6.4zm6.9 7.6c.8-.1 1.2-.5 1.2-1.2h-.7v-1.9h1.9v1.6c0 .8-.2 1.3-.6 1.7-.4.3-.9.5-1.6.5l-.2-.7zm-80.4 5.9h-2.5v-1.7h6.9v1.7H85v6.6h-1.8v-6.6zm5.5.3h1.8v1.3c.2-.4.4-.8.7-1 .3-.3.7-.4 1.3-.4v1.9h-.1c-.6 0-1.1.2-1.4.5-.3.4-.5.9-.5 1.7v2.3h-1.8v-6.3zm6.8 6.5c-.3 0-.6 0-.8-.1-.3-.1-.5-.2-.7-.4-.2-.2-.4-.4-.5-.6-.1-.2-.2-.5-.2-.8 0-.3.1-.6.2-.9.1-.3.3-.5.5-.6.2-.2.5-.3.8-.4.3-.1.7-.1 1-.1.3 0 .6 0 .8.1.2 0 .5.1.7.2v-.1c0-.4-.1-.7-.3-.9-.2-.2-.6-.3-1-.3-.3 0-.7 0-.9.1-.3.1-.5.1-.8.3l-.5-1.4c.3-.2.7-.3 1.1-.4.4-.1.8-.1 1.4-.1.5 0 .9.1 1.3.2s.6.3.9.5c.2.2.4.5.5.9.1.3.2.7.2 1.2v3.7h-1.7v-.7c-.2.2-.5.4-.8.6-.4-.1-.8 0-1.2 0zm.5-1.3c.4 0 .8-.1 1-.3.3-.2.4-.5.4-.8v-.3c-.2-.1-.3-.1-.5-.2-.2 0-.4-.1-.6-.1-.4 0-.7.1-.9.2-.2.2-.3.4-.3.7 0 .2.1.4.3.6.1.1.3.2.6.2zm4.7-5.2h1.8v.9c.1-.1.2-.3.3-.4.1-.1.3-.2.4-.3.2-.1.3-.2.5-.2.2-.1.4-.1.6-.1.7 0 1.2.2 1.6.6.4.4.6 1 .6 1.7v4.1h-1.8v-3.5c0-.4-.1-.7-.3-1-.2-.2-.5-.3-.8-.3s-.6.1-.8.3c-.2.2-.3.5-.3 1v3.5h-1.8v-6.3zm9.6 6.5c-.5 0-.9-.1-1.4-.2-.5-.2-.9-.4-1.3-.7l.8-1.2c.3.3.7.4 1 .6s.7.2 1 .2c.3 0 .5 0 .6-.1.1-.1.2-.2.2-.3 0-.1 0-.2-.1-.2-.1-.1-.2-.1-.3-.2-.1-.1-.3-.1-.4-.1-.2 0-.3-.1-.5-.2s-.4-.1-.7-.2c-.2-.1-.4-.2-.6-.4-.2-.1-.3-.3-.4-.5-.1-.2-.2-.5-.2-.8 0-.3.1-.6.2-.9.1-.2.3-.5.5-.6.2-.2.5-.3.7-.4.3-.1.6-.1.9-.1.4 0 .8.1 1.2.2.4.1.8.3 1.1.5l-.7 1.2c-.3-.2-.6-.3-.9-.4-.3-.1-.6-.2-.8-.2-.2 0-.4 0-.5.1-.1.1-.2.2-.2.3 0 .1 0 .2.1.2.1.1.2.1.3.2.1.1.3.1.4.2.2.1.3.1.5.2s.4.2.7.3c.2.1.4.2.6.4.2.1.3.3.5.5.1.2.2.5.2.7 0 .4-.1.7-.2.9-.1.3-.3.5-.5.6-.2.2-.5.3-.8.4-.3-.1-.7 0-1 0zm4-5h-.7v-1.5h.7v-.4c0-.7.2-1.2.5-1.5.3-.3.8-.5 1.5-.5h.7c.2 0 .4.1.6.1v1.5c-.1 0-.3-.1-.4-.1h-.4c-.4 0-.7.2-.7.7v.3h1.5v1.5H116v4.8h-1.8v-4.9zm7.4 5c-.5 0-.9-.1-1.4-.3-.4-.2-.8-.4-1.1-.7-.3-.3-.5-.6-.7-1-.2-.4-.3-.8-.3-1.3s.1-.9.3-1.3c.2-.4.4-.7.7-1 .3-.3.7-.5 1.1-.7.4-.2.9-.3 1.4-.3.5 0 .9.1 1.4.3.4.2.8.4 1.1.7.3.3.5.6.7 1 .2.4.3.8.3 1.3s-.1.9-.3 1.3c-.2.4-.4.7-.7 1-.3.3-.7.5-1.1.7-.5.2-.9.3-1.4.3zm0-1.6c.3 0 .5 0 .7-.1.2-.1.4-.2.5-.4.1-.2.3-.3.3-.6.1-.2.1-.4.1-.7 0-.2 0-.5-.1-.7l-.3-.6c-.2-.2-.3-.3-.5-.4-.2-.1-.4-.1-.7-.1-.3 0-.5 0-.7.1-.2.1-.4.2-.5.4-.1.2-.3.3-.3.6-.1.2-.1.4-.1.7 0 .2 0 .5.1.7l.3.6c.2.2.3.3.5.4.2.1.4.1.7.1zm4.7-4.9h1.8v1.3c.2-.4.4-.8.7-1 .3-.3.7-.4 1.3-.4v1.9h-.1c-.6 0-1.1.2-1.4.5s-.5.9-.5 1.7v2.3h-1.8v-6.3zm5 0h1.8v.9c.1-.1.2-.3.3-.4.1-.1.3-.2.4-.3.2-.1.3-.2.5-.2.2-.1.4-.1.6-.1.4 0 .8.1 1.1.3.3.2.5.4.7.8.3-.3.6-.6.9-.8.3-.2.7-.3 1.2-.3.7 0 1.2.2 1.6.6.4.4.6 1 .6 1.7v4.1h-1.8v-3.5c0-.4-.1-.7-.3-1-.2-.2-.4-.3-.8-.3-.3 0-.6.1-.8.3-.2.2-.3.5-.3 1v3.5h-1.8v-3.5c0-.4-.1-.7-.3-1-.2-.2-.4-.3-.8-.3-.3 0-.6.1-.8.3-.2.2-.3.5-.3 1v3.5h-1.8v-6.3zm13 6.5c-.3 0-.6 0-.8-.1-.3-.1-.5-.2-.7-.4-.2-.2-.4-.4-.5-.6s-.2-.5-.2-.8c0-.3.1-.6.2-.9.1-.3.3-.5.5-.6.2-.2.5-.3.8-.4.3-.1.7-.1 1-.1.3 0 .6 0 .8.1.2 0 .5.1.7.2v-.1c0-.4-.1-.7-.3-.9-.2-.2-.6-.3-1-.3-.3 0-.7 0-.9.1-.3.1-.5.1-.8.3l-.5-1.4c.3-.2.7-.3 1.1-.4.4-.1.8-.1 1.4-.1.5 0 .9.1 1.3.2s.6.3.9.5c.2.2.4.5.5.9.1.3.2.7.2 1.2v3.7h-1.7v-.7c-.2.2-.5.4-.8.6-.4-.1-.7 0-1.2 0zm.6-1.3c.4 0 .8-.1 1-.3.3-.2.4-.5.4-.8v-.3c-.2-.1-.3-.1-.5-.2-.2 0-.4-.1-.6-.1-.4 0-.7.1-.9.2-.2.2-.3.4-.3.7 0 .2.1.4.3.6 0 .1.3.2.6.2zm7.6 1.3c-.5 0-.9-.1-1.3-.3-.4-.2-.8-.4-1-.7-.3-.3-.5-.6-.7-1-.2-.4-.2-.8-.2-1.3s.1-.9.2-1.3c.2-.4.4-.8.7-1.1.3-.3.6-.5 1-.7.4-.2.9-.3 1.3-.3.6 0 1.1.1 1.5.3.4.2.7.5 1 .8l-1 1.2c-.2-.2-.4-.4-.6-.5-.2-.1-.5-.2-.8-.2-.2 0-.4 0-.6.1-.2.1-.3.2-.5.4-.1.2-.2.3-.3.6-.1.2-.1.4-.1.7 0 .2 0 .5.1.7l.3.6c.1.2.3.3.5.4.2.1.4.1.7.1.3 0 .6-.1.8-.2.2-.1.4-.3.7-.5l1.1 1.1c-.3.3-.7.6-1.1.8s-1 .3-1.7.3zm3.8-8.8h1.9v1.6h-1.9v-1.6zm.1 2.3h1.8v6.4h-1.8v-6.4zm6.6 6.5c-.5 0-.9-.1-1.4-.3-.4-.2-.8-.4-1.1-.7-.3-.3-.5-.6-.7-1-.2-.4-.3-.8-.3-1.3s.1-.9.3-1.3c.2-.4.4-.7.7-1 .3-.3.7-.5 1.1-.7.4-.2.9-.3 1.4-.3.5 0 .9.1 1.4.3.4.2.8.4 1.1.7.3.3.5.6.7 1 .2.4.3.8.3 1.3s-.1.9-.3 1.3c-.2.4-.4.7-.7 1-.3.3-.7.5-1.1.7-.4.2-.9.3-1.4.3zm0-1.6c.3 0 .5 0 .7-.1.2-.1.4-.2.5-.4.1-.2.3-.3.3-.6.1-.2.1-.4.1-.7 0-.2 0-.5-.1-.7l-.3-.6c-.2-.2-.3-.3-.5-.4-.2-.1-.4-.1-.7-.1-.3 0-.5 0-.7.1-.2.1-.4.2-.5.4-.1.2-.3.3-.3.6-.1.2-.1.4-.1.7 0 .2 0 .5.1.7l.3.6c.2.2.3.3.5.4.3.1.5.1.7.1zm.7-7.7 1.6.7-1.5 1.4h-1.4l1.3-2.1zm4.1 2.8h1.8v.9c.1-.1.2-.3.3-.4.1-.1.3-.2.4-.3.2-.1.3-.2.5-.2.2-.1.4-.1.6-.1.7 0 1.2.2 1.6.6.4.4.6 1 .6 1.7v4.1h-1.8v-3.5c0-.4-.1-.7-.3-1-.2-.2-.5-.3-.8-.3s-.6.1-.8.3c-.2.2-.3.5-.3 1v3.5h-1.8v-6.3zM83 56.7c-.3 0-.6 0-.9-.1-.3-.1-.5-.2-.7-.3L82 55c.1.1.2.1.4.2.1 0 .3.1.4.1.2 0 .3 0 .4-.1l.3-.3-2.5-6.4h1.9l1.4 4.3 1.4-4.3h1.9L85 54.9c-.1.3-.2.6-.4.8-.1.2-.3.4-.4.6-.2.1-.3.2-.6.3-.1.1-.4.1-.6.1zm9.3-10.2h3.8c1.1 0 1.9.3 2.4.8s.7 1.1.7 1.9c0 .7-.2 1.2-.5 1.6-.3.4-.8.7-1.3.9l2 3h-2.1L95.5 52h-1.4v2.7h-1.8v-8.2zm3.7 4c.5 0 .8-.1 1-.3.2-.2.4-.5.4-.9s-.1-.7-.4-.9c-.3-.2-.6-.3-1.1-.3h-1.8v2.4H96zm7.7 4.4c-.5 0-.9-.1-1.3-.2-.4-.2-.8-.4-1.1-.7-.3-.3-.5-.6-.7-1-.2-.4-.2-.8-.2-1.3s.1-.9.2-1.3c.2-.4.4-.8.6-1.1.3-.3.6-.5 1-.7.4-.2.8-.3 1.3-.3s1 .1 1.4.3c.4.2.7.4 1 .8.3.3.4.7.6 1.1.1.4.2.8.2 1.3v.4h-4.4c.1.4.3.7.5.9.3.2.6.3 1 .3.3 0 .6-.1.8-.2.2-.1.5-.3.7-.5l1 .9c-.3.4-.7.7-1.1.9-.4.3-.9.4-1.5.4zm1.1-3.8c-.1-.4-.2-.7-.4-1s-.5-.4-.9-.4-.7.1-.9.4c-.2.2-.4.6-.5 1h2.7zm5.4 3.8c-.5 0-.9-.1-1.4-.2-.5-.2-.9-.4-1.3-.7l.8-1.2c.3.3.7.4 1 .6.3.1.7.2 1 .2.3 0 .5 0 .6-.1s.2-.2.2-.3c0-.1 0-.2-.1-.2-.1-.1-.2-.1-.3-.2-.1-.1-.3-.1-.4-.1-.2 0-.3-.1-.5-.2s-.4-.1-.7-.2c-.2-.1-.4-.2-.6-.4-.2-.1-.3-.3-.4-.5-.1-.2-.2-.5-.2-.8 0-.3.1-.6.2-.9.1-.2.3-.5.5-.6.2-.2.5-.3.7-.4.3-.1.6-.1.9-.1.4 0 .8.1 1.2.2.4.1.8.3 1.1.5l-.7 1.2c-.3-.2-.6-.3-.9-.4-.3-.1-.6-.2-.8-.2-.2 0-.4 0-.5.1-.1.1-.2.2-.2.3 0 .1 0 .2.1.2.1.1.2.1.3.2.1.1.3.1.4.2.2.1.3.1.5.2s.4.2.7.3.4.2.6.4c.2.1.3.3.5.5.1.2.2.5.2.7 0 .4-.1.7-.2.9-.1.3-.3.5-.5.6-.2.2-.5.3-.8.4-.4-.1-.7 0-1 0zm3.7-8.8h1.9v1.6h-1.9v-1.6zm.1 2.3h1.8v6.4H114v-6.4zm3.5-2.3h1.8v8.7h-1.8v-8.7zm3.6 0h1.9v1.6h-1.9v-1.6zm0 2.3h1.8v6.4h-1.8v-6.4zm6.5 6.5c-.5 0-.9-.1-1.3-.2-.4-.2-.8-.4-1.1-.7-.3-.3-.5-.6-.7-1-.2-.4-.2-.8-.2-1.3s.1-.9.2-1.3c.2-.4.4-.8.6-1.1.3-.3.6-.5 1-.7.4-.2.8-.3 1.3-.3s1 .1 1.4.3c.4.2.7.4 1 .8.3.3.4.7.6 1.1.1.4.2.8.2 1.3v.4h-4.4c.1.4.3.7.5.9.3.2.6.3 1 .3.3 0 .6-.1.8-.2.2-.1.5-.3.7-.5l1 .9c-.3.4-.7.7-1.1.9-.4.3-.9.4-1.5.4zm1.2-3.8c-.1-.4-.2-.7-.4-1s-.5-.4-.9-.4-.7.1-.9.4c-.2.2-.4.6-.5 1h2.7zm3.1-2.7h1.8v.9c.1-.1.2-.3.3-.4.1-.1.3-.2.4-.3.2-.1.3-.2.5-.2.2-.1.4-.1.6-.1.7 0 1.2.2 1.6.6.4.4.6 1 .6 1.7v4.1h-1.8v-3.5c0-.4-.1-.7-.3-1-.2-.2-.5-.3-.8-.3-.3 0-.6.1-.8.3s-.3.5-.3 1v3.5h-1.8v-6.3zm10.4 6.5c-.5 0-.9-.1-1.3-.3-.4-.2-.8-.4-1-.7-.3-.3-.5-.6-.7-1-.2-.4-.2-.8-.2-1.3s.1-.9.2-1.3c.2-.4.4-.8.7-1.1.3-.3.6-.5 1-.7.4-.2.9-.3 1.3-.3.6 0 1.1.1 1.5.3.4.2.7.5 1 .8l-1.1 1.2c-.2-.2-.4-.4-.6-.5-.2-.1-.5-.2-.8-.2-.2 0-.4 0-.6.1-.2.1-.3.2-.5.4-.1.2-.2.3-.3.6-.1.2-.1.4-.1.7 0 .2 0 .5.1.7l.3.6c.1.2.3.3.5.4.2.1.4.1.7.1.3 0 .6-.1.8-.2s.4-.3.7-.5l1.1 1.1c-.3.3-.7.6-1.1.8-.5.2-1 .3-1.6.3zm3.8-8.8h1.9v1.6h-1.9v-1.6zm0 2.3h1.8v6.4h-1.8v-6.4zm5.3 6.5c-.3 0-.6 0-.8-.1-.3-.1-.5-.2-.7-.4-.2-.2-.4-.4-.5-.6-.1-.2-.2-.5-.2-.8 0-.3.1-.6.2-.9.1-.3.3-.5.5-.6.2-.2.5-.3.8-.4.3-.1.7-.1 1-.1.3 0 .6 0 .8.1.2 0 .5.1.7.2V51c0-.4-.1-.7-.3-.9-.2-.2-.6-.3-1-.3-.3 0-.7 0-.9.1-.3.1-.5.1-.8.3l-.5-1.4c.3-.2.7-.3 1.1-.4.4-.1.8-.1 1.4-.1.5 0 .9.1 1.3.2s.6.3.9.5c.2.2.4.5.5.9.1.3.2.7.2 1.2v3.7h-1.7v-.7c-.2.2-.5.4-.8.6-.4.1-.7.2-1.2.2zm.6-1.3c.4 0 .8-.1 1-.3.3-.2.4-.5.4-.8v-.3c-.2-.1-.3-.1-.5-.2-.2 0-.4-.1-.6-.1-.4 0-.7.1-.9.2-.2.2-.3.4-.3.7 0 .2.1.4.3.6 0 .2.3.2.6.2z"/></svg>