<svg xmlns="http://www.w3.org/2000/svg" viewBox="0 0 354 123"><path fill="var(--title,#1f1718)" d="M48.223 41.976c-3.158-2.106-7.066-3.309-13.382-3.309a21.9 21.9 0 0 0-18.049 9.174v-7.519H1.312V118.3h15.48V74.157c0-13.389 5.717-20.3 15.485-20.3a25.388 25.388 0 0 1 7.707 1.059c1.849-4.4 4.055-7.568 8.24-12.938M111.156 75.851c0-21.351-10.828-39.542-33.228-39.542-20.448 0-34.588 14.429-34.588 41.197 0 26.164 15.64 41.049 34.131 41.049 12.027 0 20.3-3.762 27.218-10.372l-9.172-9.926c-5.262 3.911-10.526 6.318-17.141 6.318-9.623 0-18.2-6.469-19.85-21.657h52.18c.141-1.655.449-4.21.449-7.068m-15.64-5.714H58.829C60.18 57.505 66.5 50.294 76.872 50.294c12.782 0 17.887 9.02 18.644 19.843M184.669 118.28V4.837l-15.342 7.968v32.527c-4.363-4.81-11.881-9.021-19.852-9.021-16.381 0-31.117 12.775-31.117 39.849 0 30.071 13.371 42.4 30.375 42.4 8.264 0 14.885-3.91 20.594-9.175v8.9ZM169.48 94.198c-4.062 5.113-10.525 10.073-17.905 10.073-11.422 0-17.739-8.721-17.739-28.57 0-16.687 6.021-25.111 17.145-25.111 7.816 0 15.033 5.714 18.495 10.372ZM289.734 75.851c0-21.351-10.83-39.542-33.229-39.542-20.447 0-34.587 14.429-34.587 41.197 0 26.164 15.637 41.049 34.132 41.049 12.027 0 20.3-3.762 27.215-10.372l-9.171-9.926c-5.265 3.911-10.527 6.318-17.143 6.318-9.621 0-18.192-6.469-19.85-21.657h52.179c.145-1.655.453-4.21.453-7.068m-15.64-5.714h-36.687c1.352-12.631 7.672-19.842 18.041-19.842 12.783 0 17.888 9.02 18.647 19.843M352.998 95.248c0-14.884-9.027-19.7-26.616-26.461-11.876-4.666-14.583-7.519-14.583-11.429 0-4.213 3.3-7.218 10.818-7.218s13.983 2.256 20.457 6.769l6.764-11.877a47.01 47.01 0 0 0-26.76-8.721c-15.793 0-26.919 7.369-26.919 21.5 0 12.481 6.166 18.189 23.16 24.809 11.424 4.359 18.34 7.216 18.34 13.23 0 5.57-4.661 8.721-14.44 8.721-7.361 0-15.64-2.707-23-7.819l-7.067 11.728a53.887 53.887 0 0 0 30.225 10.077c15.482 0 29.622-5.866 29.622-23.309"/><path fill="#d61b43" d="M193.299 105.106a13.2 13.2 0 1 1 13.2 13.2 13.2 13.2 0 0 1-13.2-13.2"/></svg>