<svg xmlns="http://www.w3.org/2000/svg" viewBox="0 0 675.8 176.1"><path fill="#14438f" d="M4.7 7.1h239.1v161.5H4.7z"/><path fill="#fdea14" d="M62.8 88.5 56.6 84l7.6-.4 2.5-7.8 3.3 7.6 7.6-.4-5.9 5.3 2.7 7.4-6.9-4.1-6.9 4.9 2.2-8m6.7 28.8-6.1-4.5 7.6-.4 2.4-7.8 3.5 7.6 7.4-.4-5.9 5.1 2.7 7.6-6.9-4.1-6.9 4.9 2.2-8zm20 21.2-6.1-4.3 7.6-.4 2.5-7.8 3.3 7.4 7.6-.4-6.1 5.3 2.9 7.6-7.1-4.3-6.7 4.9 2.1-8zm28.2 8.4-6.1-4.3 7.6-.4 2.5-7.8 3.3 7.4 7.6-.4-6.1 5.3 2.9 7.6-7.1-4.3-6.7 4.9 2.1-8zm29-6.9-6.1-4.5 7.6-.2 2.5-7.8 3.3 7.4 7.6-.4-6.1 5.3 2.9 7.4-7.1-4.1-6.7 4.9 2.1-8zm21.6-20.3-6.1-4.3 7.6-.4 2.5-7.8 3.3 7.4 7.6-.4-6.1 5.3 2.9 7.6-7.1-4.3-6.9 4.9 2.3-8zm8.6-27.7-6.1-4.5 7.6-.4 2.5-7.8 3.3 7.6 7.6-.4-6.1 5.1 2.9 7.6-7.1-4.1-6.7 4.9 2.1-8zm-7.2-29.2-1.8 8 6.9-4.9 6.9 4.1-2.9-7.6 6.3-5.3-7.8.4-3.3-7.4-2.4 7.8-7.8.4 5.9 4.5zm-20-20.7-6.1-4.3 7.6-.4 2.5-7.8L157 37l7.6-.4-6.1 5.3 2.9 7.6-7.1-4.1-6.7 4.7 2.1-8zm-27.5-8.7-6.1-4.3 7.6-.6 2.4-7.8 3.5 7.6 7.4-.4-5.9 5.3 2.7 7.4-6.9-4.1-6.9 4.9 2.2-8zm-28.8 6.7-6.1-4.3 7.6-.4 2.5-7.8 3.3 7.4 7.6-.4-6.1 5.3 2.7 7.4-6.9-4.1-6.9 4.9 2.3-8zM71.9 59.9l-6.1-4.3 7.6-.4 2.5-7.8 3.3 7.6 7.6-.6-6.1 5.3 2.9 7.7-7.1-4.1-6.7 4.7 2.1-8.1z"/><path d="M261.9 43.1V7.6h24.4v6h-17.2V22H284v6h-14.9v15.1h-7.2zM292.2 13.9V7.6h6.8v6.3h-6.8zm0 29.2V17.4h6.8v25.8l-6.8-.1zM329.4 43.1h-6.8V30c0-2.8-.1-4.6-.4-5.4-.3-.8-.8-1.5-1.4-1.9-.7-.5-1.5-.7-2.4-.7-1.1 0-2.2.3-3.2 1-.9.6-1.6 1.5-1.9 2.6-.4 1.1-.5 3-.5 5.9v11.7H306V17.4h6.3v3.8c2.2-2.9 5.1-4.4 8.5-4.4 1.4 0 2.8.3 4.1.8 1.1.4 2.1 1.2 2.8 2.1.6.9 1.1 1.8 1.3 2.9.3 1.5.4 3.1.4 4.6v15.9zM341.4 25.2l-6.2-1.1c.7-2.5 1.9-4.3 3.6-5.5 1.7-1.2 4.2-1.8 7.6-1.8 3 0 5.3.4 6.8 1.1 1.3.6 2.4 1.5 3.1 2.7.6 1.1.9 3.1.9 6.1l-.1 8c0 1.7.1 3.4.3 5 .3 1.2.7 2.4 1.2 3.5H352c-.2-.5-.4-1.1-.7-2-.1-.4-.2-.7-.2-.8-1.1 1.1-2.3 1.9-3.7 2.5-1.3.6-2.8.9-4.2.8-2.6 0-4.7-.7-6.3-2.2-1.5-1.4-2.4-3.4-2.3-5.5 0-1.4.3-2.7 1-3.9.7-1.1 1.7-2.1 2.9-2.6 1.7-.8 3.6-1.3 5.4-1.6 3.2-.6 5.4-1.2 6.6-1.7v-.7c0-1.3-.3-2.2-1-2.8-.6-.6-1.9-.8-3.7-.8-1-.1-2 .2-2.8.7-.7.8-1.3 1.6-1.6 2.6zm9.2 5.6c-.9.3-2.3.6-4.1 1-1.9.4-3.1.8-3.7 1.2-.8.5-1.3 1.4-1.3 2.4 0 .9.4 1.8 1.1 2.5.7.7 1.7 1.1 2.7 1 1.3 0 2.5-.4 3.5-1.2.8-.5 1.4-1.3 1.6-2.3.2-1.1.3-2.2.3-3.3v-1.3zM387.4 43.1h-6.8V30c0-2.8-.1-4.6-.4-5.4-.3-.8-.8-1.5-1.4-1.9-.7-.5-1.5-.7-2.4-.7-1.1 0-2.2.3-3.2 1-.9.6-1.6 1.5-1.9 2.6-.3 1.1-.5 3-.5 5.9v11.7H364V17.4h6.3v3.8c2.2-2.9 5.1-4.4 8.5-4.4 1.4 0 2.8.3 4.1.8 1.1.4 2.1 1.2 2.8 2.1.6.9 1.1 1.8 1.3 2.9.3 1.5.4 3.1.4 4.6v15.9zM416.8 25l-6.7 1.2c-.1-1.2-.7-2.2-1.5-3-.9-.7-2-1.1-3.1-1-1.6-.1-3 .6-4.1 1.8-1 1.2-1.5 3.1-1.5 5.9 0 3.1.5 5.2 1.5 6.5 1 1.3 2.5 2 4.1 1.9 1.2 0 2.3-.3 3.2-1.1.8-.7 1.4-2 1.7-3.8l6.7 1.1c-.7 3.1-2 5.4-4 7-2 1.6-4.6 2.4-7.9 2.4-3.8 0-6.8-1.2-9-3.6-2.2-2.4-3.4-5.7-3.4-9.9 0-4.3 1.1-7.6 3.4-9.9 2.2-2.4 5.3-3.6 9.1-3.6 3.1 0 5.6.7 7.5 2 1.8 1.3 3.2 3.3 4 6.1zM422 13.9V7.6h6.8v6.3H422zm0 29.2V17.4h6.8v25.8l-6.8-.1zM440.9 25.2l-6.2-1.1c.7-2.5 1.9-4.3 3.6-5.5 1.7-1.2 4.2-1.8 7.6-1.8 3 0 5.3.4 6.8 1.1 1.3.6 2.4 1.5 3.1 2.7.6 1.1.9 3.1.9 6.1l-.1 8c0 1.7.1 3.4.3 5 .3 1.2.7 2.4 1.2 3.5h-6.7c-.2-.5-.4-1.1-.7-2-.1-.4-.2-.7-.2-.8-1.1 1.1-2.3 1.9-3.7 2.5-1.3.6-2.8.9-4.2.8-2.7 0-4.7-.7-6.3-2.2-1.5-1.4-2.3-3.4-2.3-5.5 0-1.4.3-2.7 1-3.9.7-1.1 1.7-2.1 2.9-2.6 1.7-.8 3.6-1.3 5.4-1.6 3.2-.6 5.4-1.2 6.6-1.7v-.7c0-1.3-.3-2.2-1-2.8-.6-.6-1.9-.8-3.7-.8-1-.1-2 .2-2.8.7-.7.7-1.2 1.6-1.5 2.6zm9.1 5.6c-.9.3-2.3.6-4.2 1s-3.1.8-3.7 1.2c-.8.5-1.3 1.4-1.3 2.4 0 .9.4 1.8 1.1 2.5.7.7 1.7 1.1 2.7 1 1.3 0 2.5-.4 3.5-1.2.8-.5 1.4-1.3 1.6-2.3.2-1.1.3-2.2.3-3.3v-1.3zM487.1 43.1h-6.3v-3.8c-1 1.4-2.2 2.5-3.7 3.3-1.3.7-2.8 1.1-4.3 1.1-3 0-5.5-1.2-7.6-3.6-2.1-2.4-3.2-5.7-3.2-10 0-4.4 1-7.7 3.1-10 2-2.2 4.8-3.5 7.8-3.4 2.9 0 5.4 1.2 7.5 3.6V7.6h6.8v35.5zm-18.2-13.4c0 2.8.4 4.7 1.1 6 .9 1.7 2.7 2.7 4.6 2.7 1.6 0 3.1-.7 4-2 1.1-1.3 1.7-3.3 1.7-6 0-3-.5-5.1-1.6-6.4-1-1.3-2.5-2-4.1-2-1.6 0-3.1.7-4.1 1.9-1.1 1.3-1.7 3.2-1.6 5.8zM492.2 29.9c0-2.3.6-4.6 1.7-6.6 1.1-2.1 2.7-3.7 4.7-4.9 2.1-1.1 4.5-1.7 6.9-1.7 3.9 0 7.1 1.3 9.6 3.8s3.7 5.7 3.7 9.6c0 3.9-1.3 7.1-3.8 9.7-2.5 2.6-5.7 3.8-9.5 3.8-2.3 0-4.7-.5-6.8-1.6-2.1-1-3.8-2.7-4.9-4.7-1-1.9-1.6-4.5-1.6-7.4zm7 .4c0 2.6.6 4.5 1.8 5.9 2.2 2.5 5.9 2.7 8.4.6l.6-.6c1.2-1.4 1.8-3.3 1.8-5.9 0-2.5-.6-4.5-1.8-5.8-2.2-2.5-5.9-2.7-8.4-.6l-.6.6c-1.2 1.2-1.8 3.2-1.8 5.8zM537.7 17.4h6.4v3.8c.8-1.3 2-2.4 3.4-3.2 1.4-.8 3-1.2 4.7-1.2 2.9 0 5.7 1.3 7.6 3.5 2.1 2.3 3.1 5.6 3.1 9.8 0 4.3-1.1 7.6-3.2 10-1.9 2.3-4.7 3.6-7.6 3.6-1.3 0-2.7-.3-3.9-.8-1.4-.7-2.6-1.7-3.6-2.9v13h-6.8l-.1-35.6zm6.8 12.4c0 2.9.6 5 1.7 6.4 1 1.3 2.6 2.1 4.2 2.1 1.5 0 3-.7 4-1.9 1-1.3 1.6-3.4 1.6-6.2 0-2.7-.5-4.7-1.6-6-1-1.3-2.5-2-4-2-1.6 0-3.1.7-4.2 1.9-1.2 1.3-1.7 3.2-1.7 5.7zM566.7 29.9c0-2.3.6-4.6 1.7-6.6 1.1-2.1 2.7-3.7 4.7-4.9 2.1-1.1 4.5-1.7 6.9-1.7 3.9 0 7.1 1.3 9.6 3.8s3.7 5.7 3.7 9.6c0 3.9-1.3 7.1-3.8 9.7-2.5 2.6-5.7 3.8-9.5 3.8-2.3 0-4.7-.5-6.8-1.6-2.1-1-3.8-2.7-4.9-4.7-1-1.9-1.6-4.5-1.6-7.4zm7 .4c0 2.6.6 4.5 1.8 5.9 2.2 2.5 5.9 2.7 8.4.6l.6-.6c1.2-1.4 1.8-3.3 1.8-5.9 0-2.5-.6-4.5-1.8-5.8-2.2-2.5-5.9-2.7-8.4-.6l-.6.6c-1.2 1.2-1.8 3.2-1.8 5.8zM605.1 43.1h-6.8V17.4h6.3V21c1.1-1.7 2.1-2.9 2.9-3.4.9-.6 1.9-.8 2.9-.8 1.6 0 3.1.5 4.5 1.3l-2.1 5.9c-.9-.7-2-1.1-3.2-1.1-.9 0-1.7.3-2.4.8s-1.2 1.5-1.6 2.9c-.4 1.4-.6 4.3-.6 8.6v7.9zM261.8 102.8V67.2h6.8v35.6h-6.8zM280.7 84.9l-6.2-1.1c.7-2.5 1.9-4.3 3.6-5.5 1.7-1.2 4.2-1.8 7.6-1.8 3 0 5.3.4 6.8 1.1 1.3.6 2.4 1.5 3.1 2.7.6 1.1.9 3.1.9 6.1l-.1 8c0 1.7.1 3.4.3 5 .3 1.2.7 2.4 1.2 3.5h-6.7c-.2-.5-.4-1.1-.7-2-.1-.4-.2-.7-.2-.8-1.1 1.1-2.3 1.9-3.7 2.5-1.3.6-2.8.9-4.2.8-2.7 0-4.7-.7-6.3-2.2-1.5-1.4-2.3-3.4-2.3-5.5 0-1.4.3-2.7 1.1-3.9.7-1.1 1.7-2.1 2.9-2.6 1.7-.8 3.6-1.3 5.4-1.6 3.2-.6 5.4-1.2 6.6-1.7v-.7c0-1.3-.3-2.2-1-2.8-.6-.6-1.9-.8-3.7-.8-1-.1-2 .2-2.8.7-.7.7-1.3 1.6-1.6 2.6zm9.2 5.5c-1.4.4-2.7.8-4.1 1-1.9.4-3.1.8-3.7 1.2-.8.5-1.3 1.4-1.3 2.4 0 .9.4 1.8 1.1 2.5.7.7 1.7 1.1 2.7 1 1.3 0 2.5-.4 3.5-1.2.8-.5 1.4-1.3 1.6-2.3.2-1.1.3-2.2.3-3.3l-.1-1.3zM317.1 67.2h7.2v19.3c0 3.1.1 5 .3 5.9.3 1.4 1.1 2.6 2.2 3.5 1.2.9 2.7 1.3 4.7 1.3s3.5-.4 4.6-1.3c1-.8 1.7-1.8 1.9-3.1.3-2 .4-4 .3-6V67.2h7.2v18.7c0 4.3-.2 7.3-.6 9-.3 1.6-1.1 3.2-2.1 4.5-1.1 1.3-2.6 2.3-4.2 2.9-1.7.7-4 1.1-6.8 1.1-3.4 0-6-.4-7.7-1.2-1.6-.7-3-1.7-4.2-3.1-1-1.1-1.7-2.5-2-3.9-.5-2-.7-5-.7-9l-.1-19zM376.4 102.8h-6.8V89.6c0-2.8-.1-4.6-.4-5.4-.3-.8-.8-1.5-1.4-1.9-.7-.5-1.5-.7-2.4-.7-1.1 0-2.2.3-3.2 1-.9.6-1.6 1.5-1.9 2.6-.3 1.1-.5 3-.5 5.9v11.7H353V77h6.3v3.8c2.2-2.9 5.1-4.4 8.5-4.4 1.4 0 2.8.3 4.1.8 1.1.4 2.1 1.2 2.8 2.1.6.9 1.1 1.8 1.3 2.9.3 1.5.4 3 .4 4.6v16zM383.3 73.5v-6.3h6.8v6.3h-6.8zm0 29.3V77h6.8v25.8h-6.8zM395.6 89.5c0-2.3.6-4.6 1.7-6.6 1.1-2.1 2.7-3.7 4.7-4.8 2.1-1.1 4.5-1.7 6.9-1.7 3.9 0 7.1 1.3 9.6 3.8s3.7 5.7 3.7 9.6c0 3.9-1.3 7.1-3.8 9.7-2.5 2.6-5.7 3.8-9.5 3.8-2.3 0-4.7-.5-6.8-1.6-2.1-1-3.8-2.7-4.9-4.7-1.1-2-1.6-4.5-1.6-7.5zm6.9.4c0 2.6.6 4.5 1.8 5.9 2.2 2.5 5.9 2.7 8.4.6l.6-.6c1.2-1.4 1.8-3.3 1.8-5.9 0-2.5-.6-4.5-1.8-5.8-2.2-2.5-5.9-2.7-8.4-.6l-.6.6c-1.2 1.3-1.8 3.2-1.8 5.8zm2.9-16.1 3.4-7.3h7.6l-6.7 7.3h-4.3zM450.9 102.8h-6.8V89.6c0-2.8-.1-4.6-.4-5.4-.3-.8-.8-1.5-1.4-1.9-.7-.5-1.5-.7-2.4-.7-1.1 0-2.2.3-3.2 1-.9.6-1.6 1.5-1.9 2.6-.4 1.1-.5 3-.5 5.9v11.7h-6.8V77h6.4v3.8c2.2-2.9 5.1-4.4 8.5-4.4 1.4 0 2.8.3 4.1.8 1.1.4 2.1 1.2 2.8 2.1.6.9 1.1 1.8 1.3 2.9.3 1.5.4 3 .4 4.6l-.1 16zM471.7 102.8V67.2h26.4v6h-19.2v7.9h17.9v6h-17.9v9.7h19.9v6h-27.1zM521.7 102.8V99c-.9 1.4-2.2 2.5-3.7 3.3-1.5.8-3.2 1.2-4.8 1.2-1.6 0-3.2-.4-4.7-1.1-1.3-.7-2.4-1.8-3-3.2-.6-1.4-.9-3.3-.9-5.7V77h6.8v11.8c0 3.6.1 5.8.4 6.7.2.8.7 1.5 1.4 1.9.7.5 1.6.8 2.5.7 1.1 0 2.2-.3 3.1-1 .9-.6 1.5-1.4 1.9-2.4.3-1 .5-3.3.5-7V77h6.8v25.8h-6.3zM541.7 102.8h-6.8V77h6.3v3.7c1.1-1.7 2.1-2.9 2.9-3.4.9-.6 1.9-.8 2.9-.8 1.6 0 3.1.5 4.5 1.3l-2.1 6c-.9-.7-2-1.1-3.2-1.1-.9 0-1.7.3-2.4.8s-1.2 1.5-1.6 2.9c-.4 1.4-.6 4.3-.6 8.6v7.8zM552.9 89.5c0-2.3.6-4.6 1.7-6.6 1.1-2.1 2.7-3.7 4.7-4.8 2.1-1.1 4.5-1.7 6.9-1.7 3.9 0 7.1 1.3 9.6 3.8s3.7 5.7 3.7 9.6c0 3.9-1.3 7.1-3.8 9.7-2.5 2.6-5.7 3.8-9.5 3.8-2.3 0-4.7-.5-6.8-1.6-2.1-1-3.8-2.7-4.9-4.7-1-2-1.6-4.5-1.6-7.5zm7 .4c0 2.6.6 4.5 1.8 5.9 2.2 2.5 5.9 2.7 8.4.6l.6-.6c1.2-1.4 1.8-3.3 1.8-5.9 0-2.5-.6-4.5-1.8-5.8-2.2-2.5-5.9-2.7-8.4-.6l-.6.6c-1.2 1.3-1.8 3.2-1.8 5.8zM584.6 77h6.4v3.8c.8-1.3 2-2.4 3.4-3.2 1.4-.8 3-1.2 4.7-1.2 2.9 0 5.7 1.3 7.6 3.5 2.1 2.3 3.1 5.6 3.1 9.8 0 4.3-1.1 7.6-3.2 10-1.9 2.3-4.7 3.6-7.6 3.6-1.3 0-2.7-.3-3.9-.8-1.4-.7-2.6-1.7-3.6-2.9v13h-6.8l-.1-35.6zm6.8 12.4c0 2.9.6 5 1.7 6.4 1 1.3 2.6 2.1 4.2 2.1 1.5 0 3-.7 4-1.9 1-1.3 1.6-3.4 1.6-6.2 0-2.7-.5-4.7-1.6-6-1-1.2-2.5-2-4-2-1.6 0-3.1.7-4.1 1.9-1.3 1.3-1.8 3.2-1.8 5.7zM630.1 94.6l6.8 1.1c-.7 2.3-2.2 4.3-4.1 5.7-1.9 1.3-4.2 2-7.1 2-4.5 0-7.8-1.5-10-4.4-1.7-2.3-2.5-5.3-2.5-8.9 0-4.3 1.1-7.6 3.4-10 2.2-2.4 5.3-3.7 8.5-3.6 3.8 0 6.9 1.3 9.1 3.8 2.2 2.5 3.3 6.4 3.2 11.6h-17.1c0 2 .6 3.6 1.7 4.7 1 1.1 2.4 1.7 3.9 1.7 1 0 1.9-.3 2.7-.9.7-.8 1.3-1.8 1.5-2.8zm.4-6.9c-.1-2-.6-3.5-1.5-4.5-1.9-2-5-2.1-7-.2l-.3.3c-1 1.1-1.4 2.6-1.4 4.4h10.2zM647.9 84.9l-6.2-1.1c.7-2.5 1.9-4.3 3.6-5.5 1.7-1.2 4.2-1.8 7.6-1.8 3 0 5.3.4 6.8 1.1 1.3.6 2.4 1.5 3.1 2.7.6 1.1.9 3.1.9 6.1l-.1 8c0 1.7.1 3.4.3 5 .3 1.2.7 2.4 1.2 3.5h-6.7c-.2-.5-.4-1.1-.7-2-.1-.4-.2-.7-.2-.8-1.1 1.1-2.3 1.9-3.7 2.5-1.3.6-2.8.9-4.2.8-2.7 0-4.7-.7-6.3-2.2-1.5-1.4-2.3-3.4-2.3-5.5 0-1.4.3-2.7 1-3.9.7-1.1 1.7-2.1 2.9-2.6 1.7-.8 3.6-1.3 5.4-1.6 3.2-.6 5.4-1.2 6.6-1.7v-.7c0-1.3-.3-2.2-1-2.8-.6-.6-1.9-.8-3.7-.8-1-.1-2 .2-2.8.7-.6.7-1.2 1.6-1.5 2.6zm9.1 5.5c-.9.3-2.3.6-4.2 1-1.9.4-3.1.8-3.7 1.2-.8.5-1.3 1.4-1.3 2.4 0 .9.4 1.8 1.1 2.5.7.7 1.7 1.1 2.7 1 1.3 0 2.5-.4 3.5-1.2.8-.5 1.4-1.3 1.6-2.3.2-1.1.3-2.2.3-3.3v-1.3z" fill="var(--title,#034ea2)"/><path d="M261.9 166.8V136h4.2l16.1 24.1V136h3.9v30.7h-4.2l-16.2-24.2v24.2l-3.8.1zM307.7 159.6l3.9.5c-.5 2.1-1.7 4-3.4 5.3-1.7 1.3-3.8 1.9-6.4 1.9-3.3 0-5.8-1-7.8-3-1.9-2-2.9-4.8-2.9-8.4 0-3.7 1-6.7 2.9-8.7 1.9-2.1 4.4-3.1 7.5-3.1 2.8-.1 5.4 1 7.3 3 1.9 2 2.8 4.9 2.8 8.6v1H295c.1 2.4.8 4.3 2.1 5.6 1.2 1.3 2.9 2 4.7 2 1.3 0 2.5-.3 3.5-1.1 1.2-1 2-2.3 2.4-3.6zm-12.4-6.1h12.4c-.2-1.9-.6-3.3-1.4-4.2-1.1-1.4-2.9-2.2-4.7-2.2-1.6 0-3.2.6-4.4 1.7-1.1 1.3-1.8 2.9-1.9 4.7zM313.8 166.8l8.1-11.6-7.5-10.7h4.7l3.4 5.2c.6 1 1.2 1.8 1.6 2.5.6-.9 1.2-1.7 1.7-2.5l3.8-5.3h4.5l-7.7 10.5 8.3 11.8h-4.6l-4.6-6.9-1.2-1.9-5.9 8.8-4.6.1zM346.1 163.4l.5 3.3c-.9.2-1.9.3-2.9.3-1.1.1-2.2-.2-3.2-.7-.7-.4-1.3-1-1.6-1.7-.3-.7-.5-2.2-.5-4.5v-12.8h-2.8v-2.9h2.8V139l3.8-2.3v7.8h3.8v2.9h-3.8v13c0 .7 0 1.4.2 2.1.1.3.4.6.7.7.4.2.8.3 1.3.3.6 0 1.1 0 1.7-.1zM364.7 154.7v-3.6h13v11.4c-1.9 1.5-4 2.7-6.2 3.6-2.1.8-4.3 1.2-6.5 1.2-2.9 0-5.7-.6-8.2-1.9-2.4-1.2-4.4-3.2-5.6-5.6-1.3-2.5-1.9-5.4-1.9-8.2 0-2.9.6-5.8 1.9-8.4 1.1-2.5 3-4.5 5.4-5.8 2.5-1.3 5.3-1.9 8.1-1.9 2.1 0 4.1.3 6 1.1 1.7.6 3.1 1.7 4.2 3 1.1 1.5 1.9 3.2 2.3 5l-3.7 1c-.3-1.3-.9-2.6-1.7-3.7-.8-1-1.8-1.7-2.9-2.2-1.3-.6-2.8-.8-4.2-.8-1.6 0-3.3.3-4.8.8-1.2.5-2.4 1.3-3.3 2.2-.8.9-1.5 1.9-1.9 3-.8 2-1.2 4.1-1.2 6.2 0 2.7.5 5 1.4 6.9.9 1.8 2.3 3.2 4.1 4.1 1.8.9 3.8 1.4 5.8 1.3 1.8 0 3.5-.3 5.2-1 1.4-.5 2.7-1.2 3.8-2.2v-5.8h-9.1zM398.4 159.6l3.9.5c-.5 2.1-1.7 4-3.4 5.3-1.7 1.3-3.8 1.9-6.4 1.9-3.3 0-5.8-1-7.8-3-1.9-2-2.9-4.8-2.9-8.4 0-3.7 1-6.7 2.9-8.7 1.9-2.1 4.4-3.1 7.5-3.1 2.8-.1 5.4 1 7.3 3 1.9 2 2.8 4.9 2.8 8.6v1h-16.6c.1 2.4.8 4.3 2.1 5.6 1.2 1.3 2.9 2 4.7 2 1.3 0 2.5-.3 3.5-1.1 1.2-1 2-2.3 2.4-3.6zm-12.4-6.1h12.4c-.2-1.9-.6-3.3-1.4-4.2-1.1-1.4-2.9-2.2-4.7-2.2-1.6 0-3.2.6-4.4 1.7-1.1 1.3-1.8 2.9-1.9 4.7zM407.1 166.8v-22.3h3.4v3.2c1.6-2.4 4-3.7 7.1-3.7 1.3 0 2.5.2 3.7.7 1 .4 1.9 1.1 2.5 1.9.6.8 1 1.8 1.2 2.8.2 1.2.2 2.4.2 3.7v13.7h-3.8v-13.6c.1-1.2-.1-2.3-.4-3.5-.3-.8-.8-1.4-1.6-1.8-.8-.5-1.7-.7-2.6-.7-1.5 0-3 .5-4.2 1.5-1.2 1-1.7 3-1.8 5.8v12.2h-3.7zM446.2 159.6l3.9.5c-.5 2.1-1.7 4-3.4 5.3-1.7 1.3-3.8 1.9-6.4 1.9-3.3 0-5.8-1-7.7-3-1.9-2-2.9-4.8-2.9-8.4 0-3.7 1-6.7 2.9-8.7 1.9-2.1 4.4-3.1 7.5-3.1 2.8-.1 5.4 1 7.3 3 1.9 2 2.8 4.9 2.8 8.6v1h-16.6c.1 2.4.8 4.3 2.1 5.6 1.2 1.3 2.9 2 4.7 2 1.3 0 2.5-.3 3.5-1.1 1.1-1 1.9-2.3 2.3-3.6zm-12.4-6.1h12.5c-.2-1.9-.6-3.3-1.4-4.2-1.1-1.4-2.9-2.2-4.7-2.2-1.6 0-3.2.6-4.4 1.7-1.2 1.3-1.9 2.9-2 4.7zM454.8 166.8v-22.3h3.4v3.4c.9-1.6 1.7-2.6 2.4-3.1s1.6-.8 2.4-.8c1.4 0 2.7.5 3.9 1.2l-1.3 3.5c-.8-.5-1.8-.8-2.8-.8-.8 0-1.6.3-2.2.7-.7.5-1.2 1.2-1.4 2.1-.4 1.4-.6 2.9-.6 4.4v11.7h-3.8zM483.7 164c-1.2 1.1-2.6 1.9-4 2.5-1.3.5-2.7.7-4.2.7-2.4 0-4.3-.6-5.6-1.8-1.3-1.2-2-2.8-2-4.6 0-1 .2-2.1.7-3 .5-.9 1.1-1.6 1.9-2.2.8-.6 1.8-1 2.7-1.2 1.1-.3 2.2-.5 3.4-.6 2.3-.2 4.5-.6 6.7-1.3v-1c0-1.5-.4-2.6-1.1-3.2-1-.9-2.4-1.3-4.3-1.3-1.8 0-3.1.3-3.9.9-.8.6-1.5 1.7-1.9 3.3l-3.7-.5c.2-1.4.8-2.7 1.7-3.8.9-1.1 2.1-1.8 3.4-2.2 1.6-.6 3.3-.8 5.1-.8 1.6 0 3.1.2 4.6.7 1 .3 1.9.9 2.6 1.7.6.7 1 1.6 1.2 2.6.2 1.2.2 2.3.2 3.5v5c0 3.5.1 5.7.2 6.7.2.9.5 1.8 1 2.7h-3.9c-.5-.9-.7-1.8-.8-2.8zm-.3-8.4c-2 .7-4.1 1.2-6.2 1.4-1.1.1-2.2.4-3.3.8-.6.2-1.1.7-1.5 1.2-.9 1.4-.6 3.2.6 4.3.8.7 1.9 1 3.4 1 1.4 0 2.7-.3 3.9-1 1.1-.6 2-1.5 2.5-2.6.5-1.2.7-2.5.6-3.8v-1.3zM501.3 163.4l.5 3.3c-.9.2-1.9.3-2.9.3-1.1.1-2.2-.2-3.2-.7-.7-.4-1.3-1-1.6-1.7-.3-.7-.5-2.2-.5-4.5v-12.8h-2.8v-2.9h2.8V139l3.8-2.3v7.8h3.8v2.9h-3.8v13c0 .7 0 1.4.2 2.1.1.3.4.6.7.7.4.2.8.3 1.3.3.6 0 1.1 0 1.7-.1zM505 140.3V136h3.8v4.3H505zm0 26.4v-22.3h3.8v22.3H505zM513.1 155.6c0-4.1 1.1-7.2 3.4-9.2 1.9-1.7 4.4-2.5 7-2.5 3.1 0 5.6 1 7.5 3 1.9 2 2.9 4.8 2.9 8.3 0 2.9-.4 5.1-1.3 6.8-.8 1.6-2.1 3-3.8 3.8-1.6.9-3.5 1.4-5.4 1.4-3.1 0-5.6-1-7.6-3-1.7-1.9-2.7-4.8-2.7-8.6zm3.9 0c0 2.9.6 5 1.9 6.4 2.3 2.6 6.2 2.9 8.8.6l.6-.6c1.2-1.4 1.9-3.6 1.9-6.5 0-2.8-.6-4.8-1.9-6.2-2.3-2.6-6.2-2.8-8.8-.6l-.6.6c-1.3 1.3-1.9 3.5-1.9 6.3zM538.4 166.8v-22.3h3.4v3.2c1.6-2.4 4-3.7 7.1-3.7 1.3 0 2.5.2 3.7.7 1 .4 1.9 1.1 2.5 1.9.6.8 1 1.8 1.2 2.8.2 1.2.2 2.4.2 3.7v13.7h-3.8v-13.6c.1-1.2-.1-2.3-.4-3.5-.3-.8-.9-1.4-1.6-1.8-.8-.5-1.7-.7-2.6-.7-1.5 0-3 .5-4.2 1.5-1.2 1-1.8 3-1.8 5.8v12.2h-3.7zM562.9 166.8V136h22.2v3.6h-18.2v9.4h17v3.6h-17v10.5h18.9v3.6h-22.9zM611.6 136h4.1v17.8c0 3.1-.3 5.5-1 7.4-.7 1.9-2.1 3.4-3.8 4.4-1.8 1.1-4.2 1.7-7.2 1.7-2.9 0-5.2-.5-7.1-1.5-1.8-.9-3.2-2.5-3.9-4.3-.8-1.9-1.2-4.5-1.2-7.7V136h4.1v17.8c0 2.7.2 4.6.7 5.9.5 1.2 1.4 2.3 2.6 2.9 1.4.7 2.9 1.1 4.4 1 3 0 5.1-.7 6.4-2 1.3-1.4 1.9-4 1.9-7.8V136z" fill="var(--text,#59595b)"/></svg>