<svg xmlns="http://www.w3.org/2000/svg" viewBox="0 0 512 228"><g fill="var(--title)"><path d="M75 195.3v-11l.2-10.6h24.5l.1-.7c.1-.3.2-12.4.1-26.6v-26.1l-12.3-.1-12.1-.2-.2-42.3a909.3 909.3 0 0 1 .2-42.6c.1-.2 12.8-.2 31.6-.2h31.2l.1 79.8V195l-.2.6h-31.4c-29.1 0-31.5 0-31.6-.4zm54-115.7v-17h-18.8v11.3l2 .2c3.6.1 3.2-.4 3.2 5.9 0 4.6 0 5.5-.3 5.7-.8.4-3.9-.7-5.6-2a23.5 23.5 0 0 1-8-9.2c-2.6-5.5-1.9-12.3 1.6-14.7 2.1-1.6 2.8-1.6 14.2-1.8 5.9 0 10.8-.2 11-.3 0-.1 0-.9-.4-1.8l-1.1-4c-1.3-4.5-1.7-5.5-2.2-5.6H113c-11.4 0-12.4.1-15.7 1.4a16.5 16.5 0 0 0-10.8 14c-1 6.4-.3 12 2.3 17.7a44.9 44.9 0 0 0 5.2 8.4 31 31 0 0 0 16.2 8.7c2.5.5 17.8.9 18.4.5.4-.2.5-3.9.4-17.4zm-49.7 70.5h.7c.1.1 0 .2-.4.2s-.6 0-.4-.2zm13.3-6.4c0-.4 0-.5.1-.2v.6l-.1-.4zm-23-2.2c0-.4 0-.6.2-.4v.8l-.1-.4zm-1-3.7c.1-.3.2-.4.3-.2v.6s-.2 0-.2-.4zm79.7-8c-4-1.6-6.4-6.2-6.4-12.6 0-6.2 2.1-10.6 6-12.5a12.9 12.9 0 0 1 7.6-.2c1.2.6 3.2 2.5 3.7 3.5l.7 1.6c.7 1.4.3 2-1.7 2.5l-1.8.5-.8-1.4c-.9-1.9-2-2.6-4-2.6-1.5 0-1.9 0-2.8 1-1.6 1.5-2.5 4-2.4 7.4 0 5 1.3 7.7 4.2 8.7.9.3 1.2.3 2.4-.3 1.4-.7 2.3-1.8 2.8-3.7.4-1 .5-1 1.4-.9.5 0 1.3.3 1.5.4l1 .4c1.3.4 0 4.4-2.2 6.5a9 9 0 0 1-9.2 1.6zm20.3 0a8 8 0 0 1-3.9-4.2c-.7-1.4-.8-2-.8-5s0-3.5.8-5c1.5-3 4-4.6 7.2-4.6 3.9 0 6.6 2.6 7.5 7.3.8 3.3 0 7-2.3 9.6a7.6 7.6 0 0 1-8.5 1.8zm4.8-4.1c2.6-1.7 2.7-8 .2-10-1.2-.9-2.5-.9-3.6 0-1.5 1.3-1.9 2.3-1.9 5 0 2.5.4 3.4 1.6 4.5 1.2 1.1 2.3 1.3 3.7.5zm32 4.3c-2-.7-4.3-3.2-4.3-4.8 0-.5.2-.7 1.8-1 1.8-.4 2.6-.2 2.6.7 0 .6 1.3 1.6 2.4 1.8 1.3.2 2.8-.6 3-1.6.3-1-.1-1.4-3.1-2.4-5.1-1.5-6.8-3.4-6.3-7 .2-1.3.5-1.8 1.4-2.9 1.3-1.4 2.6-1.8 5.1-1.8 3.4 0 5.5 1 6.5 3.5.3 1 .3 1.2-.1 1.4l-2 .5c-1.2.2-1.3 0-2.2-.8-.7-1-.9-1-2.3-1-1.6 0-2.4.5-2.4 1.5 0 .9 1 1.3 3.7 2 4.8 1.3 6.4 3 6 7-.4 3.3-3 5.3-6.9 5.2-1.1 0-2.5-.1-3-.3zm16.2 0c-1.6-1-1.8-2-2-8.4v-6.1l-.8-.2c-.8 0-.8-.3-.8-2 0-1.9 0-1.9.8-2 .8 0 .9-.1.9-1.9 0-1.6 0-1.7 1.3-2.7l1.8-1.3c.8-.8 1-.3 1 2.7l.1 3 1.3.2h1.3l.1 1.3c.2 2.2 0 2.7-1.5 2.8H224v4.7c-.2 5.8-.2 5.8 1.4 5.9h1.2l.3 1.7c0 1.2 0 1.8-.3 2-.5.7-3.9.8-4.9.2zm23.1-.4c-2.2-1.3-2.7-3.6-2.7-12 0-4.6 0-5.8.4-6 .3-.3 1.1-.3 2.1-.3h1.8v6.7c.2 6.9.4 7.6 1.5 8.2 1 .5 1.9.3 2.9-.6 1-1 1-1.2 1.3-3.2.2-1.2.2-4.3.2-6.7v-4.4h1.7c2.8 0 2.5-.9 2.5 9.1 0 6.6 0 9-.4 9.2-.2.3-.9.4-1.6.4-1.5 0-2.2-.4-2.2-1.2 0-.7-.6-.6-1.2 0-1.5 1.8-4.2 2-6.3.8zm19.7 0c-2.7-1.2-4.2-4.6-4.2-9 0-4.6 1.3-7.4 4-8.9 3.8-1.8 8-.5 9.6 2.9.9 2 .9 2.4-1.3 2.7l-1.9.2c0-.2-.3-.7-.7-1.2-.7-1.3-1.7-1.6-3.1-1.2-1.7.6-2.1 1.8-2.1 5.3 0 4 .6 5.4 2.7 5.7.8.1 1.1 0 1.9-.6.5-.5 1-1.2 1.2-1.7.2-1 .3-1 1.2-.9 3 .3 3.3.8 2.4 3a6.9 6.9 0 0 1-9.7 3.7zm17.6.2c-3.3-1.4-5-5.7-4.6-11 .6-5.9 4.8-9.1 10-7.5 2 .6 4 3 4 5 0 .7-.2.7-1.8 1-1 .3-1.9.4-1.9.3l-.4-1c-.5-1.3-1-1.7-2.4-1.7-2.1 0-3.2 1.8-3.1 5.5 0 2.7.3 4 1.4 5 .8.7 1.1 1 2 .7 1.2-.2 2-.9 2.3-1.9.3-1.4.5-1.5 2.4-1l1.7.3v1.2c-.2 1.8-1.7 4-3.6 4.8-1.8 1-4.3 1-6 .3zm26.4 0a8.6 8.6 0 0 1-4-4.1c-.7-1.5-.8-2-.8-5s0-3.7.7-5c1.4-3 4-4.8 7-4.8 4.5 0 7.6 3.3 8 8.4.4 6.3-3 11-8 11-1 0-2.2-.2-2.8-.5zm4.8-4.4a6 6 0 0 0 1.4-1.7c.5-1.4.4-5.2-.1-6.5-1.7-3.2-5.3-2.8-6.4.7-1.8 5.1 1.8 10.3 5.1 7.5zm-129.4 4.2c-.2-.2-.3-3-.3-9.3v-9h2c1.6 0 1.7 0 1.7.9s.7 1 1.4.2c1.2-1.4 4.3-1.9 6-1 1.1.5 2.3 2 2.7 3.3.2 1 .4 14.1 0 14.8 0 .4-.5.5-1.5.5-2.8 0-2.7.4-2.7-7.2 0-6 0-6.6-.5-7.2-.4-.5-1-.7-1.9-.7-.9 0-1.2.1-2 1-.9 1.1-1 2.7-1.2 9.1 0 3 0 4.5-.3 4.6-.5.6-3 .5-3.4 0zm46.2 0c-.3-.2-.4-3-.3-9.3v-9h2c1.8 0 1.9 0 2 .7.2 1 .4 1 1.4-.2 1-1 2.3-1.2 3.8-.5.8.2.8.3.7 1.3-.3 2-.7 3.2-1.1 3.2l-1.3-.3c-.8-.2-1.1 0-1.7.4-1 .9-1.5 3-1.5 8.6l-.1 5c-.2.7-3.4.8-3.9.1zm65.6 0c-.2-.2-.3-3-.3-9.3v-9h4.2v9c.2 6.4 0 9-.2 9.3-.2.3-.9.4-1.8.4-1 0-1.8 0-1.9-.4zm27.7 0c-.3-.4-.2-17.8.1-18.2l1.8-.1c1.6 0 1.7.1 1.8.9 0 .9.7 1 1.1.3.5-.7 2.5-1.6 3.9-1.6 2.7 0 4.5 1.5 5 4.6a71.2 71.2 0 0 1 0 14.2 5 5 0 0 1-2.1.3h-1.6l-.1-6.5a23.9 23.9 0 0 0-.7-7.5c-1-1.7-3-1.5-4.4.3-.6.7-.6 1.3-.7 6.6a89.2 89.2 0 0 1-.2 6.5c-.2.6-.4.6-1.9.6-1 0-1.8 0-2-.3zm-244.6-4h.7c.2.2 0 .3-.4.3s-.6 0-.3-.2zm217-16.6c-.3-.2-.4-.7-.4-2.2 0-2.3.3-2.5 2.7-2.4h1.5l.1 2.3c0 1.5 0 2.3-.3 2.3-.5.4-3 .4-3.6 0zM145.1 97a31.3 31.3 0 0 1-4-7.8 46.7 46.7 0 0 1 .4-27 26.8 26.8 0 0 1 20.3-18c3.2-.7 17.8-1 18.4-.4l.7 2.2a342.3 342.3 0 0 0 2.3 7.9c.6 1.6.7 1.6-5.5 1.6-8 0-12.6.6-15 1.9a15.3 15.3 0 0 0-6.4 6.2c-1.9 3.2-2 3 5 3 5.5 0 6.2 0 6.5-.4v-4.8c0-2.3.1-4.3.2-4.5.2 0 3.2-.2 7-.2l6.5.1v18.6l.2 18.7h-14v-7.5c0-6.1 0-7.5-.4-7.8-.3-.3-2.2-.4-7-.3H154l-.2 1c-.2 2.1 2.2 9.1 4.2 12.6 1 1.4 1 1.8.7 2-.8.7-10.5 7-10.8 7a19 19 0 0 1-2.7-4.2zm158.6 3.9c0-.2-.7-1.6-1.8-3.3a41.4 41.4 0 0 1-4.6-9.1 43 43 0 0 1-1.5-12.5c0-5.8.5-9.2 1.9-13.2a26.4 26.4 0 0 1 16.9-17.5 34 34 0 0 1 14-1.8l7.8-.1.4 1 1 2.7a136870.5 136870.5 0 0 0 2 8.2l-7.4.3c-7.3.2-10.4.5-12.1 1.1-1.9.7-3.9 2-5.4 3.7-1.4 1.7-3.6 5.5-3.3 6 0 .2 2.9.3 6.3.3 5.5 0 6.2 0 6.3-.5 0-.3.2-2.5.1-4.9l.1-4.6c.3-.1 13.3 0 13.5.2.2.1.3 8.6.2 18.7V94h-6.8l-6.9-.1v-7.6c0-7 0-7.3-.6-7.6-1-.5-12.7-.5-13.4 0-.3.4-.3.6 0 2.5a28.7 28.7 0 0 0 4.5 11.6c.7.9.7.9.1 1.3a366.3 366.3 0 0 1-9.7 6.4c-.7.5-1.6.6-1.6.3zm88.5-1.2c0-.2.3-2 1-4a1817 1817 0 0 0 3.4-11l.8-2.4h6c3.5 0 6 0 6.2.3L409 85a474.7 474.7 0 0 0-4.3 13.3l-.6 1.5h-5.9l-6-.1zM189.6 94c-.1-.1-.2-8-.2-19V56.2h13l.2 13.2c0 7.3.2 13.3.2 13.3h5.6c5.1 0 5.7-.1 6.4-.7 1.1-.8 1.2-2.3.4-4a33.2 33.2 0 0 0-9.8-9c-1.3-.6-1.9-1-1.9-1.4 0-.1 1.4-1.5 3.2-3a22 22 0 0 0 6.2-6.1c.7-1.4.6-2-.6-2.8-.7-.4-1.8-.4-13.1-.5a162.7 162.7 0 0 1-12.6-.4c-.2-.1 0-1 .2-1.8l2-7.7c.4-2.2-.7-2 15.2-1.8 13.4 0 14.4 0 16.3.6 3.5 1.1 5.4 2.4 6.7 4.6.9 1.5 1.8 4.6 1.8 6.6a20 20 0 0 1-1.7 6.9c-.6 1.2-3.4 4-4 4-.6 0 0 1 3 3.9 4.3 4.2 5.3 6.4 5.4 11.8 0 5.6-3 9.5-9.2 11.4-1.4.4-3.9.5-17 .7zm48-.2V68.6l.1-25h6.7c5.3-.2 6.7 0 6.7.2v50l-1.5.2c-5.2.2-11.8.2-12 0zm46.2.3c-3-.3-7.4-1.6-10.4-3A31.6 31.6 0 0 1 259.6 77a29.2 29.2 0 0 1-.8-23.3c1.7-3.5 4-5.9 7.3-7.7 3.9-2.1 4.9-2.3 13.6-2.5 9-.2 8-.6 9 3.8l1.5 6c.7 2.3 1 2.2-5.5 2.2-7.5 0-9.3.4-11.6 2.8-2.1 2.4-3 5.5-2.3 9.3 1.3 8 8.3 14 17.8 15 2.3.2 2.8.4 2.8.8 0 .5-2.1 9-2.5 10.4-.2.4-.5.5-2.2.4a56 56 0 0 1-3 0zm193-.3V56.6h5.1c3.7 0 5 .1 5.2.4.1.3.2 6.6.2 14.3V85l6.3.1c6 .1 6.2.2 6.4.8l-1 4.2-1.2 3.7-10.4.2c-6.8 0-10.5 0-10.5-.2zm-131.1-.2V56.3h13.8V69c.2 14.7 0 13.6 2.8 13 3.9-1 8-4.1 10.5-8.2 4-6.6 3-15-2.3-17.9-1.2-.6-1.6-.6-14.2-.8-8.3 0-13-.2-13-.4l.4-1.7 2-8.1c0-.5.3-1 .6-1.2.3-.3 4-.4 14.3-.3h14l2.3 1c3.3 1 5 2 6.8 3.5 4.3 3.8 6.3 9.7 5.6 17.3-.2 3.7-.6 5.2-1.8 8.4a37.4 37.4 0 0 1-12.6 15.7 25 25 0 0 1-7.2 3.5l-2.4.7c-2.8.6-19.4.6-19.6 0zm91.3-.3-.6-2.3a158.9 158.9 0 0 0-1.6-5.5c.1-.2 3-.3 6.3-.4h6v-1c0-1-.1-1.2-5.7-7-6.1-6.5-8-11-6.5-15.2 1-2.1 1.9-3.2 3.7-4.3l1.6-.9 7.3-.2h7.8a31.8 31.8 0 0 1 2.5 8.3c-.2.2-2 .3-4.9.3-5.1 0-6.8.3-6.8 1.2 0 .7 1.4 2.7 2.8 4 1.7 1.6 7.4 8.2 8.3 9.7 1.4 2.2 2 3.7 2 5.8 0 3-1.7 5.5-5 7.3l-1.4.9h-15.5zm26-3.7v-4.4h3.7c5.6-.2 5-.5 5 4.4V94h-4.4l-4.4.2zm40.4 4.2c0-.1-.2-2-.2-4.3 0-3.9 0-4 .7-4.2 1-.3 7.3-.3 7.8 0 .3.2.4 1.3.3 4.4v4l-4.3.2a24.8 24.8 0 0 1-4.3-.1z"/><circle cx="81.7" cy="138" r="13.1"/><path opacity="0.25" fill="#a6a6a6" d="M70.8 195.2v-21.6H45v-53.8h25.7V34.6L0 0v227.8Z"/></g></svg>