<svg xmlns="http://www.w3.org/2000/svg" width="853" height="1024" viewBox="0 0 853 1024"><path d="M561.5 1023.2a13 13 0 0 1-.2-4.3l.2-3 7-1.8c10.8-2.7 12.6-3.7 14.2-7.8 1.2-3.3 1.3-10 1.1-72.3-.2-67.4-.2-68.7-1.8-70.5-1.6-1.8-2-1.8-10.8-1.4l-9.2.5V855l11.6-3.9c6.4-2.1 16-6 21.2-8.5 9.4-4.5 9.6-4.5 11.6-3.1 2 1.2 2.2 1.7 1.7 4.4-.7 4.2-2 20-1.7 20.4.1.1 2.2-2 4.6-4.4 15-15.9 20-19.5 29.2-21.3 6-1.3 7.4-1.3 14.6 0a45 45 0 0 1 38 34.4c1.6 5.7 1.8 8.3 1.8 21.2 0 12.8-.2 15.6-1.9 21.6a73.5 73.5 0 0 1-39.9 48.1 53.3 53.3 0 0 1-45.5 1.3c-1.5-.6-1.5-.1-1 19.3.2 11 .9 21 1.4 22.5 1 2.9 4 4.4 15.5 7.2l7 1.7v8l-7-.4c-10.4-.5-57-.1-59.3.4-1.3.4-2.1.2-2.4-.6zm81.7-68.7c12.4-3.1 23-15.1 27-30.6a108 108 0 0 0 0-35.5c-3.2-13-10.8-23.7-19.5-27.8-4.3-2-5.5-2.1-12.3-1.8-6.2.3-8.3.7-12 2.7-5.8 3-11.1 7.3-13.8 11.4-6 9.3-6.4 12.5-6.8 44l-.4 25.9 4.2 3.3a45.7 45.7 0 0 0 25 9.6c2 0 6-.5 8.6-1.2zM77.4 970a89.7 89.7 0 0 1-48-23.8 91.4 91.4 0 0 1-24.7-49.6c-2-10-2-31.6 0-41.4 8-41 36.4-68.7 79.3-77.2 10.4-2 35.7-2 48.2 0 9.5 1.7 28.2 6.2 35.2 8.5l4.3 1.5.4 19.6c.1 10.8.6 22.8 1 26.8l.5 7h-11.3l-2.6-10.3c-5.7-22.4-12.4-30.8-29.5-36.6-8.8-2.9-17.5-3.9-30.6-3.4-17.2.7-27.9 4-40 13-19.9 14.7-30.5 44.5-27.5 76.6a82 82 0 0 0 12.1 39c17.6 27.7 51.6 38.8 89.8 29.4a170 170 0 0 0 28.7-10.8c3.3-1.6 6.5-3 7-3 1 0 6.1 8.5 6.1 10 0 .8-18 10.7-26.5 14.4-12.3 5.4-25.1 9-37.6 10.8-8 1-26.5.9-34.3-.5zM356.6 969.2a55.3 55.3 0 0 1-38-40.9c-2.4-9.2-3-26.7-1.2-37 2.8-16 8.2-26.7 18.8-37.2 12.1-11.9 23.1-16.6 40.4-17.3a45 45 0 0 1 26 4.8c11.8 6 19.7 20.6 19.8 36.8 0 4.3-.2 4.7-2.7 6.3a45 45 0 0 0-5 3.7l-2.4 2h-20.9c-11.5 0-27.8.3-36.2.6l-15.5.5.6 7.9c1.8 26.6 9.6 41.8 24.7 48.8 11.5 5.3 29.5 1.4 48-10.4 2.2-1.3 4.4-2.4 5-2.4 1.2 0 5.4 7 4.9 8-1 1.6-27.2 20.4-31.2 22.3a60.3 60.3 0 0 1-35.1 3.5zm31-91 11-1.1c.5-.7-1.8-10.9-3.3-14.4-5.2-11.8-19-17-32.3-12a33 33 0 0 0-17.2 17.9 79.6 79.6 0 0 0-3.2 8.9l-.5 2.6 17.5-.5c9.6-.3 22.2-.9 28-1.4zM475 969.3a148 148 0 0 1-13.4-3.4l-7.6-2.3.5-4.5c.3-2.5.8-10.4 1-17.4l.6-12.9h5.2c4 0 5.1.3 5.1 1.2 0 .8 1.1 4.1 2.5 7.6 3 7.6 7.8 13.5 14 17 4.1 2.2 5 2.4 13.3 2.4 8.4 0 9.3-.2 12.9-2.3 5.6-3.3 8.4-8.3 8.4-15.3-.1-11-7.8-18.7-29.8-29.8a111.1 111.1 0 0 1-24.2-15.7c-12.4-12.3-11.8-30.2 1.7-44 13.8-13.9 37-17.2 62.8-8.8l6.4 2.2-.6 4.2c-1 8.1-2.9 23.8-2.9 25.2 0 1.1-.6 1.4-3 1.4-5.7 0-6.5-.5-7.7-5.1a24.7 24.7 0 0 0-15.2-18.6c-6.8-2.6-17.4-2-22 1.1-7.7 5-10.3 12.5-6.8 19.7 2.7 5.5 9.8 10.7 27.5 20.2 16.6 8.9 19 10.4 25 16.1 19.3 18.3 9.2 51.2-18.4 60.2a51 51 0 0 1-18.1 2.4 90 90 0 0 1-17.2-.8zM775.8 970c-24.5-4.8-39.4-18-45.7-40.7a98.1 98.1 0 0 1-.3-46.2c2.4-9.7 8-19.7 14.8-27 13.7-14.4 29.4-20.2 52-19.3 12 .5 18.3 2 27.8 7a57.5 57.5 0 0 1 22 22.4c5.3 11.3 6.4 17 6.5 33.6a69 69 0 0 1-7.4 37.2 62.5 62.5 0 0 1-25.2 25.9 58 58 0 0 1-30.6 7.1c-6.5.2-12.7.1-13.9 0zm29-13.7c6.6-3 9.7-5.6 14-11.3 7.2-9.8 10.4-27.8 8.6-47.7a64.9 64.9 0 0 0-6.7-27c-6.3-12.8-17.4-21.2-29.4-22-18.2-1.4-32.4 10-36.8 29.5-1.4 6.5-1.4 33.6 0 42 3.5 19.9 13 33.1 26.8 37.7 7 2.3 17 1.8 23.5-1.2zM202 963.1v-3.7l8.6-2.3c5-1.4 9.6-3.1 10.8-4.2 2.1-1.8 2.2-2.3 2.7-13.5.7-14.6.7-55.4 0-66.7-.4-7.7-.7-8.6-2.6-10-1.7-1.5-2.8-1.6-7.7-1.3-3.1.2-7.1.7-8.7 1l-3.1.5v-8.1l7.9-2.3c10-3 23.4-8.4 28.8-11.8 4.6-2.8 5.5-3 7.7-1.4 1.3 1 1.3 1.7.6 8.4-.5 4-1 10-1.3 13.4l-.5 6 5.7-6c3.1-3.4 5.7-6.4 5.7-6.7 0-1.2 9.3-9.3 12.5-11 5.6-3 11.2-4 17.7-2.8 8.8 1.5 8.5 1 6 14.8-1 6.5-2.1 12.6-2.4 13.7-.3 1.5-.9 1.8-4 1.8-3.5 0-3.5-.1-4.1-3-.3-1.5-1.7-4.1-3.2-5.7-4.8-5.1-11.7-3.4-20.6 5.2-9.1 8.9-12.3 18-13 37.3-.6 17 .8 41.5 2.5 45.6 1.5 3.5 3.4 4.6 14.2 7.4l7.1 1.9.2 3.6.2 3.6H202zM538.4 783.2l.3-4 8.4-2.2c4.6-1.2 9.4-3 10.6-3.9 4.7-3.4 4.7-2.8 5-46.3 0-22-.2-55.5-.5-74.4-.8-42 .5-38.3-13.5-37.5l-9.6.5V606.8l5.5-1.6c8.6-2.5 23.6-8.3 31.8-12.5 7.3-3.6 7.6-3.6 9.6-2.3 2.3 1.5 2.3 1.6 1.3 11l-1.2 11.7-.3 4.9 8.6-9.2c15.5-16.4 21.8-19.9 35.7-19.9 19.6 0 35.7 9.8 44 26.8A67 67 0 0 1 681 644a79.6 79.6 0 0 1-42.2 78 54.5 54.5 0 0 1-45.8 4.8 56 56 0 0 0-6.7-2c-1.4 0 .2 42.3 1.6 45.4 1.4 3 2.8 3.6 15 6.7l8.5 2.2.3 4 .2 4h-73.6zm86.8-69.5a43.8 43.8 0 0 0 29-31.6 99 99 0 0 0 1.6-28.5c-2.3-24.7-14.2-41.1-31-42.8a36.6 36.6 0 0 0-31.7 15c-6.7 9.3-7.4 13.9-7.6 48l-.1 27.7 4 3a42.5 42.5 0 0 0 35.8 9.2zM91.7 731.2a107 107 0 0 1-45-11.5c-23.4-12-37.9-31.5-44.3-59.9a154 154 0 0 1 0-53 102.7 102.7 0 0 1 84-81.4c8-1.6 11.4-1.8 29-1.8h20l23.3 4.2c12.8 2.3 24.4 4.4 25.8 4.8l2.5.5.5 20.5c.3 11.3.8 23.7 1 27.7l.6 7.1H178L175 579c-6.6-22.5-12.7-29.4-32-35.8-17.5-5.9-44-6.3-60-1-28.9 9.9-47.1 34.5-51.8 70.3-1.3 10.3-.5 31.3 1.6 41.1 10 45.5 53 70 105.3 59.8 8.4-1.6 23.1-5.9 25.2-7.3 1.6-1 1.9-60.6.4-64a9 9 0 0 0-3.5-3.5c-2.1-1-21.6-6-23.9-6.1-.3 0-.6-1.9-.4-4.2l.2-4 20.9.2c11.4.2 30.6 0 42.6 0l21.8-.3v3.7c0 4.6.5 4.3-14.4 7.9-13.7 3.3-14 3.6-15.1 14.4-.7 6.5-.3 63 .4 66.6 0 .5-.7 1-1.9 1.2l-22.4 4.8a294.7 294.7 0 0 1-65.7 9.1l-10.7-.7zM772.2 730.5c-31-3-50.4-21.3-55.6-52.2-1.8-11.2-1.3-30 1.2-40a64.7 64.7 0 0 1 67.8-50.3c16.6 0 22.9 1.4 33.5 7.1 20 10.7 29.8 28.7 30.8 56.2a84.1 84.1 0 0 1-7.6 43 66.4 66.4 0 0 1-40.3 33.6c-4.9 1.3-22.7 3.8-23.2 3.3l-6.6-.7zm23.4-14c9-3 17.3-10.5 21.5-19.1 5-10.6 7-29 5.3-46.7-1.8-18-6.3-30-15.2-39a35 35 0 0 0-26.5-11.9c-17.3 0-30.4 10.8-35.6 29.2-1.8 6.2-2.4 30-1.2 41.7a68 68 0 0 0 7 25.5c5.3 10.5 11 16 20.8 20.1a38.9 38.9 0 0 0 23.9.2zM418.5 728.7c-11.2-1.8-21-8.7-24.6-17.1-3.8-8.7-4.2-12.9-4.2-48.9 0-34.9-.7-48-2.8-51.2-1.6-2.3-7.3-4-15.9-4.8l-6.6-.6v-4.3c0-4 .2-4.4 1.9-4.4 5 0 22-2 33.1-3.8 10.7-1.8 12.8-2 14.6-1 1.8 1 2 1.4 1.5 6-1.5 15.5-2.1 30-2.1 54.7 0 37.2.9 43 7.5 49.6 5 4.9 8 6 17.8 6 8 0 9-.2 13.9-2.6a31.5 31.5 0 0 0 18.7-24 551 551 0 0 0-.2-67.8c-1.6-5.3-3.8-6.5-13.7-7.5l-9.6-1.1c-.7-.3-1-1.6-.8-4.2l.3-3.9 3.6-.5c2-.3 8.3-1 14-1.5 5.5-.5 14.5-1.8 19.8-2.7 8.3-1.3 10-1.4 11.8-.4 2 1 2 1.2 1.5 7.1-2.2 25.5-2.6 89.8-.5 98.4 1.2 5.3 3.2 6.5 11 5.9 3.6-.3 7.7-.7 9.2-1l2.6-.6v8.8l-8.4 2.3c-11.3 3.3-19 6.3-29.2 11.5l-8.7 4.4-2.2-1.7c-2-1.8-2-2-1.4-6.3.5-2.5 1-7 1.2-10l.4-5.5-5 4.5a115.2 115.2 0 0 1-19.9 15c-7.4 3.7-18.4 5-28.6 3.2zM243.6 723c0-2.3.1-4 .3-4 1.2 0 17.6-5.2 19.4-6.1a7.3 7.3 0 0 0 3-3.8c1.2-4 2.1-48.5 1.4-71.3l-.6-19.5-2.5-2.4c-2.2-2.3-2.6-2.4-7.8-2l-9.3 1.1-4 .6v-4.7c0-4 .2-4.5 1.7-4.5 3.5 0 22.1-6.9 32.6-12 9.6-4.7 11.2-5.2 13-4.4 1.8.8 2 1.3 1.4 4.4-.9 6.3-2 18.8-2 22.4v3.5l7.6-8.8c10-11.7 15-16 20.7-18.2a34.7 34.7 0 0 1 20.6-.4c3.6 1.2 4.2 1.6 3.8 3.2-.8 3.3-3.7 19.7-4.2 24l-.6 4.2h-3.8c-3.8 0-3.8 0-4.8-3.4-1.6-5-3.2-7.2-6.4-8.5-6.2-2.6-15.8 3-23.8 13.6-7.5 10.2-9.2 18.3-9.2 44 0 20.9 1.2 35.9 3 39.6 1.3 2.9 5.3 5.1 12.5 7 10.9 2.8 9.8 2 9.8 6.3v3.9h-71.9zM302 486.8a130 130 0 0 1-37.6-10.6c-14.5-6.7-40-28.4-51.2-43.2-20-26.9-18-58.5 5-80 13.7-12.6 40-21.7 62.6-21.7 20.7 0 43.7 7.9 63.6 21.8 6.9 4.9 30.5 27.5 29.7 28.3-1 1-5.2-1.3-9.3-5a93.4 93.4 0 0 0-73.9-25.5 95.4 95.4 0 0 0-45.2 15.8 78.8 78.8 0 0 0-20 21.8 57.2 57.2 0 0 0-1.1 48.6c4.5 9.4 10.7 14 26.9 20.2a149 149 0 0 0 54.3 10.3c30.3 0 60-7.2 94.8-23 3-1.4 5.4-2.9 5.4-3.2 0-.4-3.7-2.9-8.3-5.6a108 108 0 0 1-17.8-11.3c0-.3 1.2-1.2 2.5-2 1.4-.8 2.3-1.8 2-2.2-.2-.5-5.8-3.8-12.2-7.6-6.6-3.6-11.9-6.9-11.9-7.1 0-.3 6.3-4.1 13.9-8.5a202.4 202.4 0 0 0 25.2-15.5c-.1-.2-9.7-5.7-21.1-12.4l-26.1-15-20.5-12-30.2-17.5-29.4-17c-8-4.6-15.1-9-16-10-1.4-1.6-1.5-5.3-2-99-.3-53.5-.2-98 .2-99a30 30 0 0 1 10-7.6c.4 0 6.9-3.8 47.4-27.2l18-10.4a7460.9 7460.9 0 0 0 79.6-46.3c2-1 5.7-3.3 8.3-4.8 5.7-3.6 10-4.3 13.8-2.3 1.6.8 14.6 8.3 29 16.7 14.3 8.4 32 18.8 39.5 23 39.7 23 60.3 34.9 77.7 44.8a109.4 109.4 0 0 1 20.6 13.2c1.1 1.9 1.3 12.1 1.3 99 0 65.9-.2 97.2-.9 98.5-.5 1.2-5.1 4.4-12 8.4a3546.5 3546.5 0 0 1-38.5 22.4l-7.8 4.6 16.3.5c18.3.5 25.7 1.8 37.6 7 8.5 3.7 20.7 12 27.3 18.4 8.8 8.5 19.6 20.2 22.2 24.1 10.7 16 13 35.2 6.4 53.3-8.7 24-34.8 43.1-67.3 49.7A186 186 0 0 1 521 486c-23.2-3.6-53-13.5-77-25.5-8.3-4.2-6.8-4.3-19.7 2-19.5 9.5-44 18-62 21.5-20 4-44.6 5-60.4 2.8zm255-21a124 124 0 0 0 46-16.7 96.5 96.5 0 0 0 19.7-19.9 60.2 60.2 0 0 0 11-38.5c-.4-9-.6-9.8-3.4-15.6-5.2-10.5-13.7-16.8-29-21.5-6.7-2.2-8-2.2-23.4-2.2a107 107 0 0 0-76.6 28 26 26 0 0 1-6.4 5 44 44 0 0 1-8.5-7.3c-4-3.9-8-7.5-8.7-8.1-1.1-1-2.8-.3-11.8 4.8-12.7 7.2-19.8 11.8-20.4 13.6-.4.7.1 1.6 1 2.2l18.3 10.2c9.2 5.1 9.8 5.6 8.2 6.6-.7.4-2 1.2-2.9 2-1.5 1-1.5 1.2-.4 2.3.7.7 6.3 4 12.4 7.4l11.1 6.1 3.8-2c4.9-2.7 5-3.2 1.9-4.5-8-3-24.4-11.6-24-12.4.7-2.3 35-20.3 44.2-23.3 16.6-5.4 32.6-3.7 43.3 4.5 1.6 1.2 4.6 4.4 6.7 7.1 2 2.8 7.1 8.5 11.2 12.9 11 11.5 12.8 16.2 9.3 24.4-4.7 10.9-21.9 17.2-40.6 14.7-13-1.7-28.1-6.9-48.2-16.7l-7.7-3.7-2.5 1.5-22.4 12.7-19.8 11.3 3.1 1.4a260.1 260.1 0 0 0 60.7 15c6.3.7 38.2-.2 44.9-1.4zm-118.3-41 22.4-12.4c1.8-1 3.3-2.2 3.3-2.8 0-.5-4.2-3.5-9.3-6.5-5-3.1-10.5-6.6-12-7.8a15.9 15.9 0 0 0-6-2.6c-2.9-.4-4.1.1-11.2 4.6l-9.3 5.9-9.3 5.8-14 8.4-6 3.3 9.1 5c5 2.5 11.7 6.1 14.8 7.8 3.2 1.7 6.3 2.7 7 2.4.7-.2 10-5.2 20.5-11zm114.3-1.2a34.7 34.7 0 0 0 15-9.4c2.2-2.8 4-9.4 3.3-11.4-.7-1.7-1.8-2-10.7-3.1-6.6-.8-8.6-.8-14 .5a128 128 0 0 0-37.6 16.3c-3 1.9-3.4 2.4-2.3 3a99 99 0 0 0 23.4 6c5.6.6 18-.4 22.9-1.9zm-121.6-74.5c1.8-.9 15.1-8.5 29.6-17l84.6-49.2a233.8 233.8 0 0 0 21.9-13.1l1.8-1.6V105.4l-1.8-1.6c-1-1-7-4.6-13.3-8.2l-25.3-14.5a1652.3 1652.3 0 0 0-22-12.7l-63.6-36.9a174 174 0 0 0-16.7-8.8 290 290 0 0 0-22.5 12.4l-36.4 21-31.9 18.4-32.6 18.9c-8.8 5-16.6 10-17.3 11-1.3 1.8-1.4 8.8-2 83.2-.5 78.8-.5 81.2 1 82.5 1.3 1.2 12 7.5 29.7 17.3 1.6.8 5.2 3 8.2 4.7l8.1 4.6c21.7 12.2 79 45.3 87.4 50.4 6.8 4.3 8.4 4.5 13.1 2z"/><path d="M433.4 294.1c-27-5-46.8-20.4-56.3-43.8a65.4 65.4 0 0 0-3-6.8c-.2-.2-3.7-1.3-7.7-2.4a67 67 0 0 1-41.8-32.1c-12.1-21.7-13.2-55.5-2.6-80.5 5.1-12 15.5-25 26-32.8a91.4 91.4 0 0 1 52-17c12.2-.8 22.7.2 45.7 4.4l18.5 3.3c.3 0 .6 7 .6 15.7 0 8.6.3 18.1.5 21l.6 5.5 8.1 1c10.3 1.3 20.4 3.4 31.9 6.6l8.7 2.7V156c0 9.5.3 19.7.7 22.8l.6 5.4h-10.1l-1-4a90.3 90.3 0 0 0-8.2-23.2c-4.5-6.8-12-11.4-23.2-14-8.1-2.1-26.5-2.1-34.3 0a53.8 53.8 0 0 0-37.2 31 70.5 70.5 0 0 0-6.8 34.7c0 8.2.4 15.4 1 18.2l1 4.7h10.3a101 101 0 0 0 36.4-6.7l2.2-.8v-25c0-14.3-.3-25.4-.8-26.2-1-2-3.9-3.1-13.5-5.3l-8.1-1.9-.3-3.3-.2-3.3H457l34 .2v6.6l-9.8 2.2c-6.7 1.6-10.2 2.8-11.2 4-1.4 1.6-1.5 3.7-1.7 31.6l-.1 30-21.5 4.6a199 199 0 0 1-40 6.3h-4.8l2.2 4a60.4 60.4 0 0 0 31 26.3c20.2 7 43.2 4.7 69-7.2 4.5-2 8.4-3.3 8.9-3 .5.3 1.7 2.2 2.8 4.4l2 4-6.3 3.7a140.6 140.6 0 0 1-41.8 16.4c-9.7 2-28 2.3-36.3.8zm-61.7-98.7a79.8 79.8 0 0 1 34.5-52.1c11.8-8 24-12.1 40.5-13.8l9.2-1-.6-2.5a62.7 62.7 0 0 0-9.8-21.6c-10.5-11.7-41-17-62.5-10.8a59 59 0 0 0-36.3 32 93.9 93.9 0 0 0-1.2 69.8 58 58 0 0 0 19.3 23.9l5 3.6.4-11.3c.2-6.3 1-13.6 1.5-16.2zM309.5 445.6a45 45 0 0 1-29.7-15.6c-2.3-2.5-6-6.2-8.4-8.4-5-4.8-9.9-14-9.9-18.4 0-7 8-17 16.8-21 6-2.7 13.5-3.8 21.8-3.3 9.8.8 12.5 1.8 32.3 11.6 17.9 8.8 26.3 13.6 26.3 15 0 .5-1 1.4-2.5 2.1-1.3.7-2.4 1.5-2.4 2 0 .4 5.7 3.7 12.6 7.5 7 3.7 12.6 7 12.5 7.6a161.3 161.3 0 0 1-56.1 20.9c-3.4.4-6.5.7-7 .6l-6.3-.6zm-1.8-20.9c8.9-1.5 26.5-7.3 36.1-11.8 6.2-2.9 6.9-3.5 5.6-4.2-3.1-1.8-17.4-7.3-22.1-8.6-13.6-3.7-36.4 1.1-44 9.2-1.7 1.7-3 3.5-3 4l-.4 2.4a9 9 0 0 0 .8 4.2c1 2.5 2.3 3.3 9.4 5.6 2.5.8 10.6.4 17.6-.8z"/></svg>