<svg xmlns="http://www.w3.org/2000/svg" viewBox="0 0 512 512"><path fill="var(--title,#434343)" d="M236.9.7A256 256 0 0 0 0 256a256 256 0 0 0 512 0A256 256 0 0 0 236.9.7zM136 195.5c.5 0 .7 1.5.7 4.8 0 2.6.1 4.8.3 4.8a41.8 41.8 0 0 0 4.4-3.5c5.8-4.9 7.9-5.8 14.5-5.8 4.6 0 5.8.2 8.4 1.5 4.2 1.9 6.5 3.9 8 7.1 1.3 2.6 1.4 3.3 1.6 20 .4 20 .1 19 5.5 19 2.9 0 3 .1 3 1.6v1.6h-19.2l.4-4.6c.2-2.5.4-10.3.4-17.5.1-12.7 0-13-1.3-15.7a10 10 0 0 0-4.2-4.6c-2.5-1.5-3.3-1.6-7.4-1.6-4.7 0-6.5.6-10.2 3.4-3.5 2.5-3.7 3.6-3.7 20.4.1 14.7.1 15.1 1.3 16 .8.8 2.1 1 4.5 1 3.3 0 3.3.1 3.3 1.6v1.6h-28.2V245c0-1.6.1-1.6 3.4-1.6 5.9 0 5.7.9 5.7-20.5 0-16-.2-18.3-1-19a13 13 0 0 0-4.5-1c-3.5-.2-3.7-.2-3.5-1.7.2-1.4.5-1.5 4.7-2.2a64 64 0 0 0 8.5-2.1c2.2-.8 4.3-1.4 4.6-1.4zm215 .1 3.8.1a19.7 19.7 0 0 1 11.3 4.4c4 3.6 4.3 4.7 5 24.2a126 126 0 0 0 1.2 18 9 9 0 0 0 3.5 1c2.7.3 2.9.4 2.9 1.8v1.5l-8.5-.1h-8.5v-4.3a15 15 0 0 0-.3-4.4c-.2 0-3 2-6.2 4.4a63.3 63.3 0 0 1-8 5c-5.3 1.8-13.9-.3-16.8-4.2-4.8-6.6-2.2-17 5.2-21.3a48 48 0 0 1 15.8-4.5l8.6-1.8c1-.1 1.3-.6 1.3-2 0-7.6-6.8-13-15.3-12-5.2.5-7.2 1.6-8.8 5-.7 1.6-1.3 3.2-1.3 3.6 0 .8-1.1.9-2.5.3-.7-.2-.9-1.1-.9-4v-3.8l5.8-2.9c4.9-2.5 8.8-3.7 12.6-4zm-92.9.1a33.4 33.4 0 0 1 14.1 2l2.6 1-.5 3.4-.8 7.1c-.3 3.8-.4 3.8-2 3.8s-1.6-.1-1.6-2.4c0-4-1.5-6.2-5.2-7.6-9.4-3.7-18.8-1.3-22.2 5.7a30.1 30.1 0 0 0-1.5 16.3c2.6 12 12 18.8 23.6 16.8 2.2-.4 4.9-1.1 6.2-1.7 1.5-.7 2.6-.9 3.2-.5.9.5.9.6-.1 2.2-1 2-3.5 3.4-8 4.7a45 45 0 0 1-7.6 1.2c-12 .6-20.6-3.7-24.8-12.4-4.8-9.7-3.6-22 2.8-29a43 43 0 0 1 21.8-10.6zm103.2 22.9-1.6.3c-17.4 3.9-21 6-21.5 13-.2 4.1.8 6.5 3.5 8.3v-.1c1.4 1 2.5 1.1 5.4 1a17 17 0 0 0 11.5-5.4l2.7-2.6v-14.5zm29.9 63 1.5.1c3.5.7 3.5.7 3.5 2.7 0 1.2-.2 2-.5 2s-.6-.6-.6-1.4c0-1.5-1-2-4-2-3.5 0-5.6 2.9-3.8 5.3.5.5 2.3 1.1 4.3 1.5 4.4.7 5.8 1.7 5.8 4.5 0 2.5-1.3 4.4-3.7 5.4a13 13 0 0 1-8 .2c-1-.3-1.3-.9-1.3-2.2 0-.9.2-1.8.5-2 .4-.2.7.2.7.8 0 2.7 5.3 3.9 8 1.7 1.9-1.5 2-4.1.2-5.3-.7-.3-2.6-.8-4.4-1-3.5-.4-5-1.8-5-4.6 0-3.1 3.3-5.8 6.8-5.8zm-158 0c3.5.1 6.8 1.6 8.3 4.5 2.1 4.1.6 10-3.4 12.6-4.6 3.1-11 2.1-13.8-2.1a11.3 11.3 0 0 1 0-10.7c1.9-2.8 5.5-4.3 8.9-4.2zm102.6.1c4.1 0 5.1.5 5.1 2.8 0 1.2-.2 1.9-.5 1.6-.3-.2-.5-.5-.3-.8.6-1-1.5-2.3-3.9-2.3-5.9 0-6.7 5.7-1 6.5 4.7.7 6.5 1.6 7.1 3.5.6 2.4-.9 5.2-3.6 6.5-1.8 1-4.8 1.2-7.8.6-1.1-.2-1.2-.5-1.2-2.5.1-2 .1-2.2.5-1 .6 2.4 4.6 3.6 7.6 2.2a4.7 4.7 0 0 0 2.2-4.5c-.3-1.2-2.5-2.2-4.7-2.2-3.1 0-5.5-1.4-5.9-3.4-.9-3.9 1.9-6.9 6.4-7zm-278.3.1c2.5 0 1.4-1.1 13.8 14.3 1 1.2 1 1 1-6 0-6.7 0-7.2-1-7.2-.6 0-1.3-.2-1.5-.5-.2-.4 1-.6 3.3-.6 3.2 0 3.4.1 2.1.7l-1.4.8v8.6c0 8.2-.1 8.6-1.1 8.4a26 26 0 0 1-5.4-5.3l-6.4-7.6-2-2.5v7c-.1 6.5.1 7 1.1 7.2.6.2 1.1.5 1.1.6v.1c0 .2-1.3.4-2.8.4-2.9 0-3.7-.5-1.7-1 1.1-.3 1.1-.8 1.1-8s0-7.7-1.2-8.5c-1.3-.9-1.2-.9 1-.9zm36.9 0h15.2v2c0 2.2-.9 2.7-1.2.7-.2-1.1-.6-1.3-2.6-1.5l-2.3-.1v8.2c0 7.8 0 8.2 1 8.2.6 0 1 .2 1.1.4h.1v.1c-.2.2-1.8.3-3.7.3-2 0-3.7-.1-3.7-.4 0-.2.5-.4 1.2-.4 1.1 0 1.1-.4 1.1-8.2V283h-2.5c-2.2 0-2.6.1-2.6 1 0 .6-.2 1.3-.5 1.5-.4.2-.6-.5-.6-1.7v-2zm-61.8.1c2.9 0 3.7.1 2.7.5-1.3.5-1.3.7-1.3 8.7 0 7.8.1 8.2 1.2 8.2.6 0 1.1.2 1.1.4 0 .3-1.7.4-3.7.4s-3.7-.1-3.7-.4c0-.2.6-.4 1.2-.4 1.1 0 1.1-.4 1.1-8.1 0-7.8 0-8.1-1.3-8.7-1-.5-.5-.6 2.7-.6zm109.5.1c.2.1.1 1-.1 2-.3 1.9-1.3 2.4-1.3.7 0-1.4-1.1-1.8-4.6-1.8h-2.8v7.4h2.9c2.3 0 2.9-.3 3.3-1.3.6-1.5.6-1.5.8 2 .1 2.7-.4 3.5-.9 1.5-.2-.9-.8-1.1-3.2-1.1h-2.9v3.6c0 3.6 0 3.7 1.7 4 .9.2 2.7.2 3.9 0 1.7-.3 2.3-.7 2.6-1.7.4-1.9 1.5-1.8 1.1.2l-.6 2.2c-.1.6-1.9.6-6.7.6-3.6-.1-6.7-.3-6.9-.6-.1-.2.3-.4.9-.4 1.2 0 1.2-.3 1.2-8.1 0-7.9 0-8.1-1.3-8.6a62.5 62.5 0 0 1 12.9-.6zm25.8 0c5.7-.1 6.2 0 7.5 1.3.7.8 1.4 1.9 1.4 2.5 0 1.3-2.7 4.5-3.7 4.5-1.8 0-1.3 1.4 1.5 5l3.4 4c.9.4.4 1-1.1 1-1.3.1-2.1-.7-5.3-4.9l-3.8-5h1.7c1.9 0 4.4-2.2 4.4-3.8 0-2.2-1.6-3.6-4.2-3.6h-2.5v8.1c0 7.8.1 8.2 1.1 8.2.6 0 1.1.2 1.1.4v.1c0 .3-1.6.4-3.6.4-2.1 0-3.7-.1-3.7-.4 0-.2.5-.4 1.1-.4 1.1 0 1.2-.4 1.2-8.1 0-7.8-.1-8.1-1.3-8.7-1-.5 0-.6 4.8-.6zm32.3 0c2.9 0 3.6.1 2.7.5-1.3.5-1.3.7-1.3 8.5 0 7.5.1 8 1.2 8.2l1 .6v.1c0 .2-1.6.3-3.6.3s-3.6-.1-3.6-.4c0-.2.4-.4 1-.4 1.2 0 1.2-.4 1.2-8.2 0-8-.1-8.2-1.3-8.7-.9-.4-.3-.5 2.7-.5zm67 0c5.7-.1 6.2 0 7.5 1.3.7.8 1.4 1.9 1.4 2.5 0 1.3-2.7 4.6-3.8 4.6-1.7 0-1.2 1.4 2 5.4 1.9 2.3 3.5 4.2 3.5 4.4h-1.6c-1.2 0-2.3-1-5.1-4.5a50 50 0 0 1-3.5-4.9c0-.2.6-.4 1.4-.4 1.7 0 4.2-2.3 4.2-3.8 0-2.2-1.6-3.6-4.2-3.6h-2.5v8.2c0 7.8.1 8.2 1.1 8.2.6 0 1.1.2 1.1.4 0 .3-1.6.4-3.6.4-2.1 0-3.7-.1-3.7-.4 0-.2.5-.4 1.2-.4 1 0 1-.4 1-8.1 0-7.8 0-8.1-1.2-8.7-1-.5 0-.6 4.8-.6zm176.4 0c2.6 0 3.8.2 2.8.4-1.4.4-1.4.4-1.5 8.2-.1 4.5 0 8.1.4 8.5.2.2 2 .3 4.2 0 3.4-.3 3.7-.4 4-2 .5-2.3 1.2-1.6 1 .9-.2 1.3-.6 2-1.2 2.1a79 79 0 0 1-12.5-.2c0-.2.3-.6.7-.6.5-.2.8-2.2.9-6.9.2-7.7 0-9.2-1.8-9.9-.9-.4 0-.5 3-.5zm-133.3.1c.1.1 0 1-.2 2-.3 1.9-1.3 2.4-1.3.7 0-1.4-1.1-1.8-4.6-1.8h-2.8v7.4h2.9c2.4 0 2.9-.3 3.3-1.3.6-1.5.7-1.5.8 2 .1 2.7-.4 3.5-1 1.5-.2-.9-.7-1.1-3-1.1h-3v3.6c0 3.6.1 3.7 1.7 4 1 .2 2.7.2 4 0 1.6-.3 2.2-.7 2.5-1.7.5-1.9 1.5-1.8 1.1.2l-.5 2.2c-.2.6-2 .6-6.8.6-3.6-.1-6.7-.3-6.9-.6 0-.2.3-.4 1-.4 1.1 0 1.1-.3 1.1-8.1 0-7.9 0-8.1-1.3-8.6a62.5 62.5 0 0 1 13-.6zm-77.8.9c-4.7 0-6.7 2.2-6.7 7.2 0 3.8 1.2 6.6 3.5 8a6.7 6.7 0 0 0 8.4-1c2.9-3.2 2.6-9.5-.6-12.7-1.3-1.3-2-1.5-4.6-1.5zm186.2 14.7c1.3 0 2 1.3 1 2.2h.1c-.9.8-2.1.8-2.5-.2-.4-1.1.2-2 1.4-2zm57.4 0c1.2 0 1.4.3 1.2 1.3h.1c-.3 2.1-2.7 1.9-2.7-.3 0-.7.4-1 1.4-1z"/></svg>