<svg xmlns="http://www.w3.org/2000/svg" viewBox="0 0 256 107"><path fill="var(--title,#2e52a0)" d="M.2.2 256 0v107H0Z m47 81.7 1-3.3c.6-2.6.7-3.4.3-3.6-1.2-.8-1.6-.3-2.5 3-1.2 4.4-1.2 4.6 0 4.3l1.1-.4zm7.2.2c.2 0 .3-4.5.3-10v-9.8h-2.2v10c0 9.4.1 10.1.8 10l1.1-.2zm8-.5c-.2-.3-.6-2-1-3.6-.7-2.9-1-3.2-1.8-3l-1.2.2.8 3.4c.8 2.8 1.1 3.5 1.9 3.6 1.1.2 1.7 0 1.3-.6zm8.5-.3c-.4-.4-2.3-3.7-4.4-7.4-8-14.2-7.5-13.4-8.5-12.7-1 .8-1.2.3 4.2 9.7 5.4 9.3 6.6 11.1 7.6 11.3 1.4.2 1.8-.1 1-1zm11.1.2c0-.6-1.9-2.8-6-7-5.7-5.7-6-6-6.8-5.3-.8.7-.6 1 5.4 7 3.5 3.5 6.6 6.3 6.9 6.3.3 0 .5-.4.5-1zm70.8-4.8c.2-3.1.4-5.6.6-5.6h20.2v11h2.1v-22l-1.3-1.3-1.3-1.4h-19.6l-1.4 1.4-1.5 1.5v10.8c0 6 .1 11 .3 11 .1.2.6.3 1 .2.6 0 .7-.7 1-5.6zm0-12.4v-4.7H173.3v9.3H152.6zm40.5 17.8c10.3 0 10.6 0 10.6-1 0-.4-.2-.8-.4-.8l-11-.1c-5.8 0-10.6-.2-10.6-.3 0-.1.8-.9 1.8-1.7a55.8 55.8 0 0 0 6.4-5.3l2.3-1.9h4.6c4.3 0 4.6 0 5.6-1l1-1.1h-4.1c-2.2 0-4-.2-4-.4.2-.3 3-2.7 8.8-7.4 0 0-.6-1-1.6-2l-1.7-1.7h-22.2v2.2l11.7.1 11.8.2-5.3 4.5-5.4 4.5h-5.3c-4.4 0-5.5.1-6.2.7l-.9 1.1c0 .2 2.2.4 4.8.5l4.8.1-4.8 4a36.2 36.2 0 0 0-4.8 4.3c0 .8 2.4 3 3 2.7.3-.1 5.4-.2 11.1-.2zm25.5-11 10.2-.2c.3 0 .5 1.8.5 5.6v5.6h2.3l-.1-11.1-.2-11.1-1.1-1.3-1.2-1.2h-19.5l-1.4 1.2-1.4 1.2v22.2l1 .2c1 0 1 0 1.1-5.5l.2-5.6zM209 64v-4.7l10.2.1 10.2.2v8.8h-10.2l-10.2.2zM32.7 75.8c5.8-5.8 6-6.1 5.2-6.8-.7-.7-1-.4-6.9 5.4a58 58 0 0 0-6.2 6.8c0 .4.3.7.9.7.6 0 3-2 7-6.1zm11-3.2C50.2 61.1 50 61.8 49 61c-.7-.5-1-.2-3 3.2a557.4 557.4 0 0 0-9.6 16.5l-.9 1.2 1.4-.1c1.4-.1 1.7-.6 6.7-9.2zm74.3 8c1.1-1.1 1.2-1.4 1.2-5.3 0-3.3-.1-4.3-.8-5-.7-.8-.7-.9 0-1.4.7-.4.8-1.3.8-4.8 0-4 0-4.4-1.2-5.6l-1.2-1.3H94.6V82h22.2zm-21.2-5.2v-4.7H117V80H96.8zm0-11.3v-4.7H117v9.3H96.8zm50.6 16.8v-1H124.7v-9.1H136l11.4.1v-2.2l-11.4-.1-11.3-.1v-4.6l-.2-4.5h22.9v-2.2h-22.2l-1.2 1.2-1.3 1.2v10.1c0 10 0 10.2 1 11.1 1 1 1.2 1 12.3 1h11.4zm-118-12.3 5.8-3.3c4.7-2.7 10.4-6 10.7-6.3.2-.2.2-.7-.1-1.2-.5-.9-.6-.9-4.3 1.3a2303.3 2303.3 0 0 1-16.3 9.4c-.4.3-.4 2.4 0 2.4l4.2-2.3zm52.4 1c0-1-.4-1.4-2.7-2.7-1.5-.8-4.7-2.5-7-3.9l-9.6-5.4c-.8-.4-1-.4-1.4.1l-.4 1c0 .2 4.7 3 12.4 7.4l5.9 3.4c2.7 1.6 2.8 1.6 2.8.2zM29 61.3l3.4-1-.1-1.1c-.2-.7-.5-1-1-.8l-3.3 1c-3 .7-3.6 1.1-3.2 2 .3 1 .2 1 4.2 0zm52.8-.2c0-1-.3-1.2-1.9-1.6l-3.3-1c-1.6-.4-1.6-.4-2 .9-.3.8 0 1 3.1 1.8l3.8 1c.2 0 .3-.5.3-1.1zm-25.5-4.6c1.7-1.7 1.8-3.8.2-5.7-1-1.1-1.5-1.4-3-1.4-2.6 0-4.2 1.6-4.2 4.2 0 4 4.3 5.7 7 2.9zM45 53.5v-1.1H35c-5.4 0-9.9.1-10 .2-.2.2-.2.7 0 1.1.2.9.6.9 10 .9H45zm37 .9c.2-.2.2-.7 0-1.1-.2-.9-.7-.9-10-.9H62v2.2h9.8c5.4 0 10-.1 10.1-.2zm-35.7-6c0-.5-.3-.6-9.7-5.9l-9.3-5.3c-2.1-1.3-2.6-1.3-2.6 0 0 .9.5 1.4 2.1 2.2a202.6 202.6 0 0 1 10.8 6.1l4.8 2.9c2.5 1.5 2.8 1.6 3.3 1 .3-.4.6-.8.6-1zM70.4 45c7.7-4.3 11.3-6.7 11.5-7.8.3-1.5 0-1.6-1.3-.7l-10.2 6c-5 2.8-9.2 5.3-9.4 5.5-.2.2-.2.8.1 1.3.5.8.6.8 3.9-1.2a294 294 0 0 1 5.4-3zm47.6 3.5c1.1-1.1 1.2-1.4 1.2-5.5 0-4.3 0-4.3-1.4-5.6l-1.5-1.3-9.7.1c-8 .1-9.8 0-10-.5v-4.6l.2-4 11.2.1 11.2.2v-2.5l-11 .1-11.1.1-1.3 1.2c-1.2 1.1-1.2 1.4-1.2 5.4s0 4.3 1.2 5.4l1.2 1.2h20v9.3H94.6v2.2h22.2zm6.8 0c.2-.8 0-1-1-1-.9 0-1 .3-1 1.2 0 1 .1 1.1 1 1 .5-.1 1-.5 1-1.1zm28 .2-.3-1.1H130.2v-9.3H153l-.3-1-.2-1.2-11.1.1-11.2.1v-9.2l11.2.1 11.2.1V25l-11 .1-11.1.1-1.3 1.2-1.2 1.2V47l1.4 1.3 1.4 1.4H153zm5.6 0c0-1-.3-1.1-1.1-1.1-1 0-1.1.2-1.1 1 0 1 .2 1.2 1 1.2 1 0 1.2-.3 1.2-1.1zm-126.1-.8c.1-.5.2-1 0-1 0-.2-6.8-2-7.3-2-.2 0-.2.4-.1.8l.1 1a443.6 443.6 0 0 1 6 2c.9.2 1 .2 1.3-.8zm46.5-.1c2.6-.7 3-1 3-1.8 0-.6-.1-1-.3-1-.5 0-6.8 1.6-7 1.8-.3.3.4 2.1.9 2l3.4-1zM49 46c.4-.2.7-.5.7-.7a585.3 585.3 0 0 1-6-10.8c-5.1-9-5.7-9.8-6.6-9.8-1.8 0-2.3-1 6.8 14.5 4 6.8 4.1 7 4.3 7l.8-.2zm15-8.7a664.9 664.9 0 0 1 7.2-12.2c-1.1-.3-2.7 0-3 .5 0 .3-1.7 3.3-3.6 6.5a180.2 180.2 0 0 0-5.6 9.7c-2 3.2-2.2 3.6-1.5 4l1 .4c.2 0 2.7-4 5.5-8.9zM54.5 35V25h-1l-1.2-.1v20.1h2.2zm-22.2-4a77.2 77.2 0 0 0-6.8-6.2c-.4 0-.5.2-.6 1.3 0 .3 2.7 3.2 6.1 6.6 5.8 5.8 6.2 6.1 7 5.4.7-.7.5-1-5.7-7zm49.4-5.7c-.7-.7-1.1-.3-7.1 5.6-6.1 6.1-6.4 6.4-5.7 7.2.8.8 1 .6 7.2-5.6 6-6 6.3-6.4 5.6-7.2zm-33 6.8-1-3.6c-1-3.4-1.3-3.8-3-3.3-.2 0 1 5 1.7 7 .2.5 1.6.4 2.3-.1zM61 29l1-4h-1c-.8 0-1.2.4-1.8 2.2-1.5 4.8-1.5 5 .6 5.4.1 0 .7-1.6 1.2-3.6z"/></svg>