<svg xmlns="http://www.w3.org/2000/svg" width="1024" height="548" viewBox="0 0 1024 548"><g fill="#1d1d1b"><path d="M569.7 5.7 402.2 266.5 585.5 544h-187l-106.1-173-106.6 173H0l185.8-280.6L17 5.7h183.3l95.5 165.6L388.2 5.7Z"/><path d="M816 74c0-38.6 33.7-69.8 75.4-69.8 41.6 0 75.4 31.2 75.4 69.8 0 38.6-33.8 69.9-75.4 69.9-41.7 0-75.5-31.3-75.5-69.9z"/><path d="M714.2.4v148.3h82.1v109.1h-82.1v138.5c0 16.7 1.5 27.7 4.7 33 5 8.4 13.5 12.6 25.7 12.6 11 0 26.4-3.2 46.2-9.6l11 103.2c-37 8.1-71.4 12.1-103.4 12.1-37.2 0-64.6-4.7-82.2-14.3a88.2 88.2 0 0 1-39.2-43.4c-8.3-19.5-12.5-51.1-12.5-94.7V257.8h-55c.4-1 .6-105.2 0-109h55V77Z"/><path d="M821 152.3h145.8V543H820.9z"/><path d="M1001.7 499.8a22.1 22.1 0 0 0-22.3 22.2c0 12.4 9.8 22.2 22.3 22.2 12.4 0 22.3-9.8 22.3-22.2 0-12.3-9.9-22.2-22.3-22.2zm0 41a19 19 0 0 1-19-18.7 19 19 0 0 1 37.9 0 19 19 0 0 1-19 18.7z"/><path d="M1012.6 516.2c0-5.3-4.2-6.5-8.6-6.5h-10.6v24.4h3.4v-11.3h4.1l7.3 11.3h4.1l-7.4-11.3c4.4 0 7.7-1.8 7.7-6.6zm-11.7 3.2h-4.1v-6.2h6.5c2.6 0 6 .4 6 3 0 3.8-5.4 3.2-8.4 3.2z"/></g></svg>