<svg xmlns="http://www.w3.org/2000/svg" viewBox="0 0 512 187"><path d="M35.9 92.2h4.4c6.3 0 15.5-.1 15.5-10.1 0-10.1-9.9-10-16-10h-4zm3.5-45.6c5.7 0 12-.6 12-9 0-9-7.2-8.3-12.8-8.3h-2.7v17.3zM0 .1h45c20.7 0 41.8 5.6 41.8 33.5 0 10.6-4.7 21-14 24.4v1a29 29 0 0 1 19 28.7c0 24.9-20.4 33.4-39 33.4H0zm128.8 18.8c0 12-8.3 17.2-17.2 17.2-9 0-17.2-5.3-17.2-17.2 0-10.6 7.4-17 17.2-17s17.2 6.4 17.2 17m-32 21h29.5v81.2H96.7zM176 92c5.9 0 8.7-5.1 8.7-11.3 0-6-3.2-11.7-9-11.7-5.7 0-9.6 5.2-9.6 11.6 0 6.6 3.8 11.5 9.8 11.5m-6.5 38.7a13.4 13.4 0 0 0 10.2-3.8c4.6-4.6.7-11.6.7-11.6a24.5 24.5 0 0 1-17.8 7.5c-19.5 0-30.7-22.3-30.7-42.5 0-20.1 11-42.3 30.8-42.3 9.2 0 16.2 4.9 20.9 13.5h1l-1-11.7h29.8v76.5c0 6 0 10.5-.3 14.4a30.9 30.9 0 0 1-6.2 16c-7.4 10.6-18 13.3-37.5 13.3h-15.6v-29.3zM0 130.8h148.4v29.3H0zm218.8 0h267v29.3h-284a39 39 0 0 0 12.5-14c5.1-9.5 4.5-15.3 4.5-15.3" fill="#003477"/><path d="M295.6 121.1h-26.9l-16.2-41v41h-33.9V.1h44.7L282.2 57 301 0h44.7v121.1h-34v-37zM394.4 92c6.6 0 9.2-5.9 9.2-12.2 0-6.2-3.7-10.8-9.2-10.8-5.6 0-9 5.2-9 11.1 0 6.5 2.6 12 9 12m9.2 18.3h-.8c-6.3 7.6-12 12.5-21.8 12.5-19.4 0-30.1-22.3-30.1-42 0-20.5 10.9-42.8 31-42.8a23.5 23.5 0 0 1 21 11.5h.7l-1-9.7h34v81.2h-34zm93.9-70h-11.8v-17h-32v17h-11.8v29.4h11.7V121h32.1V69.8h11.8z" fill="#d60812"/><path fill="#003477" d="M509.9 147.6a7 7 0 0 1 2.1 5.1 7 7 0 0 1-2.1 5.2 7.3 7.3 0 1 1 0-10.3m-.6 9.6a6.3 6.3 0 0 0 1.8-4.5 6.2 6.2 0 0 0-1.8-4.5 6.4 6.4 0 0 0-9 0 6.5 6.5 0 0 0 0 9 6 6 0 0 0 4.4 2 6.1 6.1 0 0 0 4.6-2m-1-5.9a2.3 2.3 0 0 1-1.8 2.5l2.1 2.8H507l-1.8-2.6h-1.8v2.6H502v-7.9h3a4.1 4.1 0 0 1 2.5.7 2.3 2.3 0 0 1 .7 2m-1.7 1a1.4 1.4 0 0 0 .4-1 1.2 1.2 0 0 0-.4-1.2 2.6 2.6 0 0 0-1.5-.3h-1.7v2.9h1.6a2.5 2.5 0 0 0 1.6-.4"/><path d="M35.4 175.7v11h-3v-11h-4V173h10.9v2.7zm5.9-2.7h3.1v13.8h-3zm16.2 0v2.8h-6.8v2.8h6.1v2.6h-6.1v2.9h7v2.7H47.6V173zm12.4 0h3v13.8h-3l-6.6-8.6v8.6h-3V173H63l7 9zm16.8 1.8a6.5 6.5 0 0 1 2 5 6.8 6.8 0 0 1-2 5.1 8.1 8.1 0 0 1-5.8 1.9h-4.7V173H81a8 8 0 0 1 5.7 1.8m-2.3 8.2a4 4 0 0 0 1.1-3 4.1 4.1 0 0 0-1-3.2 4.9 4.9 0 0 0-3.6-1.1h-1.7v8.4h2a4.5 4.5 0 0 0 3.2-1.1m16.1 3.8l-1.3-3h-5.7l-1.3 3h-3.3l6-13.8h3l5.9 13.8zm-4.1-9.7l-1.8 4h3.5zm24.7-2.9a4.7 4.7 0 0 1 1.5 3.8 4.5 4.5 0 0 1-1.5 3.8 7.2 7.2 0 0 1-4.6 1.1h-1.8v3.9h-3V173h4.8a7 7 0 0 1 4.6 1.2m-2.2 5.5a2.7 2.7 0 0 0 .5-1.9 2 2 0 0 0-.7-1.6 4 4 0 0 0-2.2-.5h-1.8v4.6h2a2.7 2.7 0 0 0 2.2-.6m17.1-2.1a4 4 0 0 1-2.7 4.3l3.5 4.9H133l-3-4.4h-2.2v4.4h-3V173h5.2a7.5 7.5 0 0 1 4.6 1.1 4.2 4.2 0 0 1 1.3 3.5m-3.7 1.6a2 2 0 0 0 .6-1.6 1.7 1.7 0 0 0-.6-1.5 3.8 3.8 0 0 0-2-.5h-2.4v4.1h2.3a3.3 3.3 0 0 0 2.1-.5m18.1 5.7a7.5 7.5 0 0 1-10.3 0 7.2 7.2 0 0 1 0-10.2 7.5 7.5 0 0 1 10.3 0 7.2 7.2 0 0 1 0 10.2m-1-5a4.5 4.5 0 0 0-1.2-3.2 3.9 3.9 0 0 0-5.8 0 4.5 4.5 0 0 0-1.2 3.1 4.5 4.5 0 0 0 1.2 3.1 3.9 3.9 0 0 0 5.8 0 4.4 4.4 0 0 0 1.2-3m15-6.9v2.7h-6.4v3h6v2.7h-6v5.4h-3V173zm12.3 0v2.8h-6.9v2.8h6.2v2.6h-6.2v2.9h7.1v2.7h-10.1V173zm6 2.8a1.2 1.2 0 0 0-.5 1 1 1 0 0 0 .5.9 10 10 0 0 0 2.5.8 7 7 0 0 1 3 1.5 3.6 3.6 0 0 1 1.2 2.8 3.7 3.7 0 0 1-1.4 3 5.5 5.5 0 0 1-3.7 1.1 8.5 8.5 0 0 1-5.9-2.4l1.9-2.2a6.5 6.5 0 0 0 4 2 2.2 2.2 0 0 0 1.4-.5 1.2 1.2 0 0 0 .5-1 1.2 1.2 0 0 0-.5-1 6.6 6.6 0 0 0-2-.7 8.9 8.9 0 0 1-3.6-1.4 3.5 3.5 0 0 1-1-3 3.6 3.6 0 0 1 1.3-3 5.7 5.7 0 0 1 3.6-1 8.5 8.5 0 0 1 2.7.5 7.4 7.4 0 0 1 2.4 1.3l-1.5 2.3a6 6 0 0 0-3.7-1.4 1.8 1.8 0 0 0-1.2.4m9.1-2.8h3v13.8h-3zm17.8 11.9a7.5 7.5 0 0 1-10.2 0 7.2 7.2 0 0 1 0-10.2 7.5 7.5 0 0 1 10.2 0 7.2 7.2 0 0 1 0 10.2m-1-5a4.5 4.5 0 0 0-1.2-3.2 3.9 3.9 0 0 0-5.8 0 4.5 4.5 0 0 0-1.2 3.1 4.4 4.4 0 0 0 1.2 3.1 3.9 3.9 0 0 0 5.8 0 4.5 4.5 0 0 0 1.2-3m15.1-6.9h3.1v13.8h-3l-6.6-8.6v8.6h-3V173h2.8l6.7 8.9zm16.1 13.8l-1.3-3h-5.7l-1.3 3H228l6-13.8h3l5.9 13.8zm-4.1-9.7l-1.8 4h3.5zm8.8 9.7V173h3v11h6v2.8zm26.5-12a6.5 6.5 0 0 1 2 5 6.8 6.8 0 0 1-2 5.1 8.1 8.1 0 0 1-5.8 1.9h-4.7V173h4.8a8.1 8.1 0 0 1 5.7 1.8m-2.3 8.2a4 4 0 0 0 1.2-3 4.2 4.2 0 0 0-1.2-3.2 4.9 4.9 0 0 0-3.5-1.1h-1.7v8.4h2a4.6 4.6 0 0 0 3.2-1.1m16.6-10v2.8h-6.8v2.8h6.1v2.6h-6.1v2.9h7v2.7h-10.1V173zm7.8 13.8V173h3v11h6v2.8zm20.8 0l-1.3-3h-5.8l-1.3 3h-3.2l6-13.8h2.9l6 13.8zm-4.2-9.7l-1.7 4h3.4zM0 186.8V173h3v11h6v2.8zm20.8 0l-1.3-3h-5.8l-1.2 3H9.2l6-13.8h3l5.9 13.8zm-4.2-9.7l-1.7 4h3.4zm313.1 6.9a4.5 4.5 0 0 0 3.7-1.7l2 2a7.4 7.4 0 0 1-10.7.6 7.3 7.3 0 0 1 0-10.2 7 7 0 0 1 5.1-2 7.3 7.3 0 0 1 5.7 2.6l-2 2.1a4.5 4.5 0 0 0-3.5-1.8 4.2 4.2 0 0 0-3 1.2 4 4 0 0 0-1.2 3 4.2 4.2 0 0 0 1.1 3.1 3.8 3.8 0 0 0 2.8 1.2m19.3.8a7.5 7.5 0 0 1-10.4 0 7.2 7.2 0 0 1 0-10.2 7.5 7.5 0 0 1 10.3 0 7.2 7.2 0 0 1 0 10.2m-1-5a4.5 4.5 0 0 0-1.2-3.2 3.9 3.9 0 0 0-5.8 0 4.5 4.5 0 0 0-1.2 3.1 4.4 4.4 0 0 0 1.2 3.1 3.9 3.9 0 0 0 5.8 0 4.5 4.5 0 0 0 1.2-3M363 173h3v13.8h-3l-6.5-8.6v8.6h-3.1V173h2.9l6.7 8.9zm9.5 2.8a1.2 1.2 0 0 0-.4 1 1 1 0 0 0 .5.9 10 10 0 0 0 2.5.8 7 7 0 0 1 3 1.5 3.6 3.6 0 0 1 1.1 2.8 3.7 3.7 0 0 1-1.4 3 5.5 5.5 0 0 1-3.6 1.1 8.5 8.5 0 0 1-5.9-2.4l1.8-2.2a6.5 6.5 0 0 0 4.1 2 2.2 2.2 0 0 0 1.4-.5 1.2 1.2 0 0 0 .5-1 1.1 1.1 0 0 0-.6-1 6.5 6.5 0 0 0-2-.7 8.9 8.9 0 0 1-3.5-1.4 3.5 3.5 0 0 1-1.1-3 3.6 3.6 0 0 1 1.4-3 5.7 5.7 0 0 1 3.5-1 8.5 8.5 0 0 1 2.8.5 7.4 7.4 0 0 1 2.4 1.3l-1.6 2.3a6 6 0 0 0-3.7-1.4 1.9 1.9 0 0 0-1.2.4m14.9-.1v11h-3.1v-11h-4V173h11v2.7zm17.1 1.9a4 4 0 0 1-2.7 4.3l3.5 4.9h-3.8l-3-4.4h-2.1v4.4h-3.1V173h5.2a7.5 7.5 0 0 1 4.6 1.1 4.2 4.2 0 0 1 1.4 3.5m-3.7 1.6a2 2 0 0 0 .5-1.6 1.7 1.7 0 0 0-.6-1.5 3.8 3.8 0 0 0-2-.5h-2.3v4.1h2.2a3.3 3.3 0 0 0 2.1-.5m10.3 4a2.5 2.5 0 0 0 2.1 1 2.5 2.5 0 0 0 2-1 4 4 0 0 0 .8-2.6V173h3.1v7.7a6.1 6.1 0 0 1-1.6 4.6 6.4 6.4 0 0 1-8.5 0 6 6 0 0 1-1.7-4.6V173h3v7.6a4 4 0 0 0 .9 2.6m17.2.8a4.5 4.5 0 0 0 3.7-1.7l2 2a7.4 7.4 0 0 1-10.8.6 7.3 7.3 0 0 1 0-10.2 7 7 0 0 1 5.2-2 7.3 7.3 0 0 1 5.7 2.6l-2 2.1a4.5 4.5 0 0 0-3.6-1.8 4.2 4.2 0 0 0-3 1.2 4 4 0 0 0-1.2 3 4.2 4.2 0 0 0 1.2 3.1 3.8 3.8 0 0 0 2.8 1.2m14.2-.1a4.5 4.5 0 0 0 3.7-1.7l2 2a7.4 7.4 0 0 1-10.8.6 7.3 7.3 0 0 1 0-10.2 7 7 0 0 1 5.2-2 7.3 7.3 0 0 1 5.7 2.6l-2 2.1a4.5 4.5 0 0 0-3.6-1.8 4.2 4.2 0 0 0-3 1.2 4 4 0 0 0-1.2 3 4.1 4.1 0 0 0 1.2 3.1 3.8 3.8 0 0 0 2.8 1.2m7.9-11.1h3v13.8h-3zm17.9 11.9a7.5 7.5 0 0 1-10.3 0 7.2 7.2 0 0 1 0-10.2 7.5 7.5 0 0 1 10.3 0 7.2 7.2 0 0 1 0 10.2m-1-5a4.5 4.5 0 0 0-1.3-3.2 3.9 3.9 0 0 0-5.8 0 4.5 4.5 0 0 0-1.2 3.1 4.5 4.5 0 0 0 1.2 3.1 4 4 0 0 0 5.8 0 4.5 4.5 0 0 0 1.2-3m-2.7-8.3h-2.8l2.5-3.5 3 1.3zm17.9 1.4h3v13.8h-3l-6.6-8.6v8.6h-3V173h2.8l6.8 8.9z" fill="#424448"/></svg>