<svg xmlns="http://www.w3.org/2000/svg" viewBox="0 0 2039 512"><path fill="#4baffe" d="M589 0h15v512h-15Zm1109 511a123 123 0 0 1-96-83c-14-42-3-88 29-122 16-17 40-30 62-35a118 118 0 0 1 36 0h1c1-2 21 2 33 6 15 5 31 16 30 20l2 1 5 3 3 4-2 4c-3 6-10 15-18 22-9 9-14 11-20 8-3-1-5-4-5-6l-1-1-2-1c0-1-2-2-3-1l-5-1c-10-5-25-7-34-5-17 2-33 11-44 26a51 51 0 0 0-13 41c3 37 24 61 58 65 9 1 25 1 30-1l4-1v-20h-22l-1-2-1-21 1-21 2-2h74l1 2 1 1v50c0 57 1 51-6 55a287 287 0 0 1-99 15zm-20-11h-1s-1 0 0 0v1l1-1zm5-1-1-1v1h1zm-2-5-1-1v2l1-1zm64-7c17-3 28-8 31-14l2-31-1-31c-1-5-6-6-22-7l-15 1-4 3 1 3c1 2 1 2 17 2h16v59l-2 1c-3 2-20 5-40 7l-19 1c-17-2-31-7-46-19a86 86 0 0 1-18-19c-2 0-3-3-2-6 2-3 1-4-1-2s-2 2-3 0c-7-9-11-24-11-46v-8l4-4c5-5 6-7 1-5l-2 1-1-4 1-3 2 2 2 2 1-4v-10l1-2c-1-1-1-1 2-1 2 0 3-1 0-3-2-2-1-3 1-5l4-6c1-2 3-5 8-9l6-5v3l-2 4-1 1c1 1 2 1 5-2l4-3-1-2c-3-4-3-4 4-10l7-5 1 2 2 3c1 1 1 1 1-2l-1-5c0-2 15-6 29-8h26l1 2v2l2-2c3-2 7-1 19 5 11 6 14 7 16 4l2-2-2-1-3-6c-1-4-2-5-3-2l-5 1-19-5c-16-5-21-5-31-4h-9c-1-1-2 0-5 1l-5 1-1 1c-2 2-15 7-17 6-1 0-5 2-5 4v1l-5 2-4 2-9 10-10 10-2 1-1 2-10 23c-2 4-2 4-3 3-3-1-3 0-2 2 2 2 2 3 1 8l-1 13-2 11v4l-2-1-2-1-1 2 3 3 3 4v2l2 4c0 2 0 3-1 2-2 0-2 0-1 3 0 1 0 2 2 1l2 1c0 3 0 4-1 3s-1-2-2-1l1 2v2l-2 1v1h6c2 2 3 5 3 7l-1 1v2l1 4c-1 3-1 3 2 2l2-1 3 4a104 104 0 0 0 70 43l39-1zm-87-1-1-1v1h1zm9-4c1-1-2-2-3-2l1 2h2zm-10-5v-2l-1 2 1 1v-1zm8 0h-2l1 1 1-1zm-23-2-2-2c-3 0-3 0-1 2s3 2 3 0zm8 1-2-5-2 4c0 2 1 2 2 2l2-1zm12-1-1-1v1h1zm-8-3v-1l-1 1 1 1v-1zm-10-1-1-2c-1-3-4-4-5-2-1 1 0 1 1 3l5 1zm36-2-1-1-1 1h2zm-28-2-2-1-1 1 1 1 2-1zm-3-2-1-1v2l1-1zm90 0h-1c0-1 0 0 0 0v1l1-1zm25 0-1-1v2l1-1zm-131-2-1-1v2l1-1zm-10-3-1 1 1 1v-2zm15 1v-1l-1 1 1 1v-1zm54-3-3-1-2 1 3 1c2 0 3 0 2-1zm103-4h-1c-1 1 0 3 1 2v-2zm-172-3h-2c-1 1 0 2 1 2l1-2zm165-4h-1v1h1v-1zm-138 0v-1l-1 1h1zm11-3-1-2h-1l-1 2h3zm-42-4-1-1-1 1 1 1 1-1zm35-1h-2v1c1 1 2 0 2-1zm11 1v-1l-1 1 1 1v-1zm-5-3h-1v2l1-2zm-35-1s0-1 0 0l-1 1h1v-1zm-2-1c0-2-3-4-3-2-1 1 1 3 2 3l1-1zm4-3h-1v1h1v-1zm30 1-1-1-1 1 1 1 1-1zm-40-4-2-2-2 2-2 2h6c3 2 3 1 0-2zm25 1c2-1 2-4 1-4l-5 4c0 2 3 2 4 0zm-17 0h-1l1 1v-1zm20-1h-1l1 2v-2zm8 2v-2c0-1 0-1 0 0l-2-1h-1l1 1 1 1 1 1zm106-1-1-1h-1c-1 2 1 3 2 1zm-97-3c-1-1-1 1-1 1h1v-1zm-25-4h-1v1l1-1zm3 1c2-1 2-1 1-2l-2-2v2c-2 2-1 3 1 2zm-25-3c0-4-1-4-2-2s-1 4 1 4c1 1 1 0 1-2zm38 1-1-1-1 1 1 1 1-1zm108-2-2-1h-4c-1 2 2 2 6 1zm-157-1-1-1v2l1-1zm38-3-1-1c-1 0-2 0-2 2-2 3-2 3 1 1l2-2zm5 2-2-2-1 1 1 2 2-1zm-12-1-1-1-1 1h2zm92 0-1-2c-1 0-2 1-1 2h2zm33 0-1-2-1 2h2zm-154-2h-1l1 1v-1zm190-2h-1l-1-1-1-1 1 3c1 1 2 0 2-1zm-164-1h-1v1l1 1v-2zm7-1c2-1 4-4 3-5l-7 4c-1 1 0 3 1 3l3-2zm10 1c1-1 0-2-2-5l-3-3c0-2-1-2-1-1v2l1 3 1 3c1 2 3 2 4 1zm80-4v3l1 2v-2l-1-3zm69 2v-1l-1 1v1l1-1zm-194-2c0-2-1-2-2-1-2 1-1 2 0 2l2-1zm11-1-1-2-1-1-3 1-2 3 7-1zm115-2-1-1v2l1-1zm-124-3h-2l1 2 1 1v-3zm31 2c2-1 2-1 1-3 0-1-1-1-2 1l-1 3 2-1zm11-4h-1l1 1v-1zm100 0v-1l-1 1 1 1v-1zm28-2-2 1h1l1-1zm-6 0v-1c-1 0-2 1-1 2l1-1zm12 0v-1l-1 1 1 1v-1zm-170-1v-2s-3 1-3 3l3-1zm122 1-1-1v1h1zm29 0-1-1-1 1h2zm-123-2-1-1h-1v2l2-1zm-35-2-1-1c-1 0-2 2-1 3l2-2zm162 2v-1l-1 1h1zm-120-1-1-1-1 1 1 1 1-1zm-10-2-5-2 1 2c2 2 4 2 4 0zm4 0-1-1-1 2 2-1zm120-1c0-1-1-1-2 1l1 1 1-2zm-147-1-1-1-1 1 1 1 1-1zm35-4 1-1c-1-1-6 3-6 4 0 0 2 0 5-3zm-13 2v-1l-1 1h1zm-2-4 2-2 2 2 3 2h2v-5c1-1 0-3-1-3v1c0 2 0 2-4 0h-5l-2 4-1 2h-1c0 2 1 2 1 1l4-2zm-30-1-1-1v1h1zm6-2v-1l-1 2h1v-1zm7-2-1-1-1 1 1 1 1-1zm32-1c-1-1-2 0-2 1h2v-1zm-50-3-1 2h1v-2zm46 2c1-1-2-4-5-5s-3-1-6 4l-1 2h6l6-1zm-36-6-1-1-1 1 1 1c2 0 2-1 1-1zm38-1-1-2v2l1 1v-1zm-41-3-1-1-1 1 1 1 1-1zm9-1-1-1c-2 0-2 0-1 1l2 2v-2zm30-2h-3v3l2-1 1-2zm2-1h-1c0 1 0 3 1 2v-2zm-38-2h-2v1h1l1-1zm41-2h-2v3l2-3zm-32 0h-1v1l1-1zm-5-3-1 1v1c2-1 2-1 1-2zm-9-1h-1v1l1-1zm38 0-1-2c-2 0-2 0-1 2h2zm-28-2v-2c-1 0-2 2-1 3s1 1 1-1zm35 1h-2l1 1 1-1zm-26-1v-2c-1-1-1 0-1 1l1 2v-1zm40-1-1-1h-1l1 1h1zm-44-3-1-1-1 1h2zm4-1c0-2-2-3-2-1-1 1 0 3 1 3l1-2zm-10 0h-1v1l1-1zm35 0h-1l1 1v-1zm5-1v-1l-1 1v1l1-1zm-7-2c-1-1-2 0-1 1l1 1v-2zm14-1h-1v1h1v-1zm7-2h-1v2h1v-2zm-52 0v-1l-1 1h1zm48-5h-2l-2 1 2 2c1 2 1 2 2 1v-4zm-34 2h-1l-1 1h1l1-1zm-7-1-1-1v1h1zm31-2-2-2 1 3 1 1v-2zm119 0 3-2-2-2c-2-1-2-1-5 2l-2 2h6zm-147-2-1-1-1 1 1 2 1-2zm2-3-1-3h-2l1 1 1 1c-1 1 0 2 2 2l-1-1zm143-2c2-3 1-4-2-3-4 1-4 2-3 4 2 2 4 2 5-1zm5 0h-3l2 1c1 0 2 0 1-1zm-102-4c0-2-1-3-2-1v2c1 2 2 1 2-1zm17 1-1-1-1 2c1 1 2 0 2-1zm91 0-1-1v2l1-1zm-152-1-1-1v2l1-1zm124 0-1-2-1 2h2zm10 0-1-1-1 1h2zm-82-1-1-1-1 1 1 1 1-1zm-6-2h-1c0 1 1 2 2 1l-1-1zm19 0h-1c0 1 0 2 1 1v-1zm90 0v-1l-1 2 1 1v-2zm-17-1c0-2 0-2-2-2s-2 1 0 3c2 1 2 1 2-1zm8 1c0-1-3-3-4-2l1 1c1 2 3 2 3 1zm-18-2c0-1-1-2-2-1l2 2v-1zm-128-1c0-1-2 0-1 1h1v-1zm54 0-2-1 1 1h1zm-12-2c0-1-1-2-2 0-1 1-1 2 1 2l1-2zm58 1v-1l-1 1 1 1v-1zm34-1v-3l-1 1-2 2c1 2 2 2 3 0zm-121 0h-2 2zm-5-1-1-1v2l1-1zm116-2h-1l-1 2h1l1-2zm-64 0c2-1 2-2 0-3-1-1-1-1-3 1l-1 3 4-1zm44 1-2-2c-1 1 0 2 1 2h1zm-27-2v-1l-1 1 1 1v-1zm35-1h-2c-2 0-2 0 0 1l2 1v-2zm-37-1v-1l-1 1 1 1v-1zm82-4-1-1-1 1c1 2 2 2 2 0zm-79 0-1-1v2l1-1zm69-6-1-1c-2 0-3-1-3-3h-1c-1 1 0 3 1 6l2 4 1-2 1-4zm16 5 1-4-4-3-4-3-1 1 3 4 2 3c-1 2 0 3 1 3l2-1zm-141-3-1-1v2l1-1zm76 1-1-1-1 1h2zm53 0-1-1-2 1h3zm15-4h-1v2h1v-2zm-32-5-1 1c-1 1 0 2 1 1v-2zm14 0-1 1v1l1-2zm-108-2-2-2c-2 0-2 2 0 2l1 2h1v-2zm24-1s0-1 0 0l-1 1h1v-1zm62-1c-1-1-1 0-1 2h1v-2zm23 1c-1-1-3-2-4-1s2 2 3 2l1-1zm-10-2c0-1-1-2-2-1l-1 2c0 1 2 1 3-1zm-16 0v-1h-2l1 1h1zm-83-1h-2v1l2-1zm40-2-1-1v2h1v-1zm8 1-1-1-1 1 1 1 1-1zm15-1c0-2-1-1-1 0 0 2 0 2 1 1v-1zm23-1h-1v2h1v-2zm-34-2h-1l-1 2h1l1-2zm7 1c1 0 0 0 0 0h-1v1l1-1zm-34-1-1-1v2l1-1zm58 0-1-1v1c1 2 1 1 1 0zm-73-2h-1c0-1 0-1 0 0v1l1-1zm19 0-1-1 1 2v-1zm37 0v-2c-2 0-3 1-2 2h2zm-42-4v-1l-1 1 1 1v-1zm70 0v-1c-1-1-2 1-1 2l1-1zm-15-1v-1l-1 1 1 1v-1zm-708 195a890 890 0 0 1-65-64l-24-24c-6-5-5-8-6 33a4868 4868 0 0 0-2 88c-3 4-3 4-24 4l-22-1-3-1-1-5-1-11V274l1-2c2-2 2-2 8-2h5l14 13a22385 22385 0 0 0 120 112l1 1V277l2-2 4-2c4-1 41 0 43 1s4 6 5 12c2 7 2 62 1 117l-1 72-1 35h-1l-8 1h-6zm-105 27-1-12h-2c-1 2-3 2-3 1 3-5 3-7 3-8v-2c0-2-1-2-5-3l-4 2-2 2v-7l1-6 1-1-1-3-1-19 1-17 5-4c3-2 3-3 3-4-2 0-2 0-6 4l-3 4v-3l1-2 1-1c0-1-1-2-2-1v-48l2-2c3-3 3-3 2-4h-2l-2 1v-42l4 5c4 3 5 5 5 7s1 3 2 1c1-1 9 7 9 9l2 2 16 13 2 4 2 2c3 0 15 13 14 15l1 2 1-1a445 445 0 0 1 43 42c-2 1-1 2 1 3l2 1c1-1 1-1 4 2l3 4 2 1a249 249 0 0 1 26 25l4 2h5l2-2v-8l1-29v-20l2-2c2-2 3-5 1-4h-2v-5l-1-4 2 2c1 2 1 2 3 1 1-2 1-2 3 0l1 2v3c2 2 2 2 2 0l2-3 1-2-8-3-6-3v-8l1-9v-2c-1-2-1-2 1-2 2 1 2 0 0-3l-1-14 1-14v-2l-1-4v-3c1 1 2 1 2-1l-1-1-1-2 1-2 1-2h-1c-1 1-1 1-2-8 0-14-2-18-6-16l-2 1v28l-2 1c-2 2-2 2-1 4h2c1-1 1 1 1 23l-1 25-1 2v3c-1 2 0 5 1 5v3c-2 3-2 4 0 4l1 3-2 4c-3 1-1 4 2 3 1-1 1-1 1 2l-2 6v13l-1 1 1 2 1 11c0 10-1 12-3 12l-2-2-3-3c-2 0-19-18-18-19s-1-2-2-1l-2-1 1-1 8-7c0-2-3-1-5 1l-6 3-11-9-11-11c-2-1-2-1-1-3l-2-1c-2 0-3-1-8-5-4-5-5-5-4-6 2-2 1-3-1-2-1 1-1 1-6-4l-7-6c-3-1-12-11-12-12l-5-5-9-8c-2-3-3-3-2-4h3c2 1 2-1 0-2-1-2-1-2-3 0l-2 1-5-4-4-6-2-1-6-4c-5-5-7-7-6-8v-3l-2 1-4-2c-4-3-5-3-7-1s-2 6-3 16v10c-2 1-2 2 0 1s0 4-2 7l-2 3h1l2-1c1-2 2 0 2 9l-1 9a964 964 0 0 1-2 109l-4 1s-2-4-1-5l-2-1h-2c-2 1-2 1-3-1l-2-3-2 4c0 2 1 2 3 2 2-1 2-1 4 7 0 6 0 6 2 5 2 0 4 1 3 2l-3 1c-3 0 1 7 6 8 2 1 2 1 4-5l3-3c4 0 9 3 10 7 2 3 3 4 6 4l3-1zm-12-15v-3l1 2c1 2 0 3-1 1zm-12-1 1-2v1l-1 1zm153 4v-1l-1 1 1 1v-1zm-127-4c0-1-2-2-3-1v2c1 1 3 0 3-1zm121-1v-1h-2l1 2 1-1zm12 0v-2l-1 2c1 2 1 1 1 0zm-135-4h-2v1l2-1zm131 1c1-1-1-2-2-1l1 2 1-1zm25-3v-1l-1 1h1zm-4-6v-8l-3 6c-2 5-2 6-1 7s3-1 4-5zm-6 0-1 1c0 2 0 2 1 1v-2zm-7-3h-3l-1 2v2l2-1 2-3zm-172-3h-6l2 2 1 1 3-1 2-2zm33 0-3-2 1 2c2 2 2 2 2 0zm-8-2h-1v1h1v-1zm-19-3c-2-3-3-2-1 1 1 3 1 3 2 2s1-2-1-3zm177 2h-1v1l1-1zm-48-2-1-1c-1 1 0 3 1 3v-2zm16 0h-2l1 1 1-1zm-122-3 1-2-3-1c-4 0-4 0-4 2l4 4c1 0 2-1 2-3zm6 1h-1l1 1v-1zm147 0-2-1-1 1h3zm-181-3-4 1c-2 2-1 2 1 1l3-2zm-4 0-1-1-1 1h2zm6-2c0-1 0-1 0 0l-1 1c1 1 1 1 1-1zm170 0v-1l-1 1 1 1v-1zm6-1-3-1c-1 0-1 0 0 0l2 1h1zm-144-1-1-2v2c0 1 1 2 1 0zm106 0-1-1-1 1h2zm-141-2h-3l2 1 1-1zm3-4v2c0 2 1 2 1 1l-1-3zm170 2v-1l-2 1h2zm-142-2h-1l-1 2 2-2zm108-1-1-1v2l1-1zm45 1c1-1 0-2-1-2v1l1 1zm-185-4c1-2 2-3 1-4 0-1-1-1-2 2-2 3-2 5-1 5l2-3zm38 2h-1l1 1v-1zm83-5 2-4c-2-1-6 4-6 6 1 2 2 2 4-2zm41 2-1-1v1h1zm-132-1-1-1c0-1 0 0 0 0 0 1 0 2 1 1zm159 0-1-1-1 1h2zm-8-2-1-1-1 1c0 2 1 2 2 0zm4-1c4-3 4-6 0-4-2 1-3 2-3 4s1 1 3 0zm-73-2h-2l1 1 1-1zm44 0h-1l1 1v-1zm-129-3h-2v2l2 1v-3zm-23 2-2-1c-1 1 0 2 1 2l1-1zm102 0v-3l-1 2 1 1zm7-1v-1c-1-1-1 0-1 1l1 1v-1zm5-2h-1v2h1v-2zm44 2-1-1v1h1zm21-1 1-2h-2c-2 1-3 2-1 3 1 2 1 1 2-1zm-182-1h-2l1 1c1 0 2 0 1-1zm151 0h-1l1 1v-1zm-148-2-1-3-1-3v-1l-1 1v4c1 2 3 3 3 2zm26-1-1-1 1 2v-1zm118 0v-1l-2 1 1 1 1-1zm-36-1h-1l1 1v-1zm72-1c2 1 2-1 0-1-2-1-5 1-5 2h2l3-1zm-66 0-2-1h-1l1 1h2zm-13-1-1-2h-1c-1 1-1 2 1 2h1zm42-2 1-1-2 1v2l1-2zm10-1c1-1-1-3-2-2s0 3 1 3l1-1zm-49-4h-1v2l1-2zm-15 0-2-2c-2 0-2 2-1 3 2 1 3 0 3-1zm85 1v-1l-1 1 1 1v-1zm-172-1-1-2-1 2 1 1 1-1zm28 0-1-1-1 1h2zm98-1c2-1 4-4 4-6h-4c-2 2-4 6-3 7h1l2-1zm43-2v-1c-2 0-2 1-2 2 1 2 2 1 2-1zm-28-1c0-2-1-2-2-1s-1 3 1 3l1-2zm-148 0-1-1-1 1 1 1 1-1zm105-1v-1l-1 1 1 1v-1zm53 1c0-1-1-2-2-1l1 1h1zm-29-2h-2l1 1 1-1zm50-1c2 0 4-3 4-5s-1-1-4 1l-2 2-1 1c0 1 0 2 1 1h2zm-178 0-1-1h-1l1 1h1zm124-1-1-1-2 1 1 1 2-1zm28 0v-1l-1 1 1 1v-1zm-11-2c-1-1-2 0-2 1h1l1-1zm21 0c-1-1-2 0-1 1h1v-1zm25 1c1-1 1-2-1-2l-2 1c0 2 1 2 3 1zm-105-1-1-1-1-1v-1l2 4v-1zm37-2c1-1-2-4-3-5l-1-2-1-1v3l2 3 3 4v-2zm-83 0-1-1-1 1 1 1 1-1zm97-1 1-1c1-2-1-2-4-1-3 2-3 2-2 3l2 1 3-2zm-4-4c3-3 3-4 1-4s-7 5-7 6c0 3 2 2 6-2zm-40 2-1-2h-5c-1 1 0 2 2 3l4-1zm63 0-1-2-1 2 1 1 1-1zm-156-3-1-1v1l1 1v-1zm83-1 1-1h-2v2l1-1zm42-2-1-1h-1l-1-1 1 2c1 2 2 2 2 0zm67 1v-1l-1 1v1l1-1zm-75-5c-2-2-2-2-3 0v3h3v-3zm64 3-1-1-1 1 1 1 1-1zm-153 0-1-1-1 1 1 1 1-1zm133-1v-4c-1 0-3 3-2 5 0 1 2 1 2-1zm-33 0v-1h-1c0 2 1 2 1 1zm25-3-2-2-1-1h-1v1l3 3c2 3 3 3 1-1zm-67 1c-1 0-2 0-1 1h1v-1zm23-1c-1-1-2 0-1 1l1 1v-2zm84-2v2-2zm-116 1-1-1v1h1zm48-2v-2c-1-1-3 1-3 3 0 3 2 2 3-1zm-42 1v-1l-1 1v1l1-1zm-56-1h-1l1 1v-1zm85-1-1-1v2l1-1zm82 0c-1-1-2 0-2 1h2v-1zm-72-1-1 1h1v-1zm39-5c0-4-2-9-3-7v7l-1 7 2-2c2-1 2-1 2-5zm-43 4 1-2-3 3 2-1zm-2-2h-1c-1 0 0 2 1 1v-1zm73 0h-1c0 1 1 2 2 1l-1-1zm-112-1c1-2 0-2-2 0l-2 2 2-1 2-1zm76-1h-1l-1 2h2v-2zm-51 0h-1v1c0 1 0 1 0 0l1-1zm6 1-1-1-1 1 1 1 1-1zm72-2 3-2c1-2-1-5-3-6-1-2-1-2-1 0l-2 4c-2 3-2 7 0 6l3-2zm6 0v-2c-2 0-3 1-3 2 0 2 2 2 3 0zm-123-1c0-2-1-2-2-1v2c2 1 2 1 2-1zm34 0c0-1-1-2-2-1l2 2v-1zm-89-1c-1-1-2 0-1 1h1v-1zm96-1c0-1-1-2-3-2l1 3 2-1zm88-3-3 1-1 2 2-1 2-2zm-192 0-1-1c-2 0-3 1-1 2 1 1 2 0 2-1zm71 1-1-1v1h1zm38-2-1-2-1 1c0 1 1 2 2 1zm-69-3-1-2h-1c0 2 1 3 2 3v-1zm108-1h-1v2h1v-2zm8-1v-1l-3 2 3-1zm-159 0v-1l-1 1 1 1v-1zm191 0-1-1v2l1-1zm-180-1v-1l-1 1v1l1-1zm79-1c2-3 2-4 0-4l-4 5c0 2 2 1 4-1zm10 1-3-2-1 1 2 2 2-1zm-64-1h-1v1l1-1zm128 0h-1l1 1v-1zm5 0v-1l-1 1h1zm16-1v-1l-1 1c1 2 1 2 1 0zm-31-1h-1v1l1-1zm-148-1-1-1-1 1 1 1 1-1zm39 0c0-2 0-2-2-1v2l2-1zm54-1h-2v2h1l1-2zm6 1h-1v1c1 1 1 1 1-1zm-53-2h-1l1 2v-2zm-41 0v-1l-1 1v1l1-1zm148-2c1-3 0-4-2-1s-2 4 0 4l2-3zm-65-3c-1-1-3-2-3 0l3 2v-2zm-56 0-2-3 2 4v-1zm39 0-1-2-1-2-1 2 1 2h2zm108 0v-1l-1 1 1 1v-1zm-97-1 1-2c0-1-1-1-2 1l-1 2 2-1zm93 0-1-1v2l1-1zm-136-2-1-1v2l1-1zm-16 0h-1c0-1 0-1 0 0v1l1-1zm-18-3-1-1-1 2c0 2 0 2 1 1l1-2zm30 0-1-1-1 2c0 2 2 1 2-1zm153 1-1-2v2h1zm-160-1-1-1v2l1-1zm49-1-1-1-1 2c1 1 2 0 2-1zm-14 0-1-1v1h1zm117-2v1h1l-1-1zm-180-1v-3l-1 5 1-2zm73 1h-1v1l1-1zm-41-2-1-1c-1 1 0 3 1 3v-2zm145 0v-2c-1-1-1-1-2 1-2 3-1 4 2 1zm-112-1-1-1v2l1-1zm-41-4-1-1c0 2 0 4 1 3v-2zm46 1h-2v1h1l1-1zm85 0-1-1v2c0 1 1 1 1-1zm8 1-1-1v2l1-1zm-102-2-2-2c-1 1 1 3 1 3l1-1zm-10 0-1-1-1 1 1 1 1-1zm102-2-1-1c-2 1-2 2-1 2l2-1zm-87-1h-1l1 1v-1zm114 0h-3l1 1 2-1zm4-1-1-1v1h1zm-136 0-1-2-1 1 1 2 1-1zm-48-1c0-1-3-3-4-2l3 3 1-1zm5 0-3-4 2 5 1-1zm53-1h-1v1l1 1v-2zm91 0c0-1 0-1 0 0l-1 1c1 1 1 1 1-1zm-123 1-1-1-1 1h2zm39-5-2 1c-2 1-3 2-2 3s1 0 3-2l1-2zm91 4v-1l-1 1 1 1v-1zm7-2h-1v1l1-1zm-110 0v-1l-1 1h1zm125-1h-1l1 1v-1zm-175-2 2-2-2-1c-2 0-2 0-3 2v3l3-2zm6 0h-1v1l1 1v-2zm145-1v-2h3l-1-4-3-4c-1 0-4 6-4 10 0 1 3 3 5 3v-3zm5 2-1-2-1 3c1 1 2 0 2-1zm-165-1-1-1c-1 1 0 2 1 2v-1zm55 0-1-1v2l1-1zm7-2-2-1-1 1 2 1 1-1zm-48-3h-2v2h1l1-2zm175 1-1-1c-1 0-2 1 0 2 1 1 1 0 1-1zm-185-1-1-1c-2 0-2 0 0 1h1zm8-1-2-1-3-3c-1-2-1-2-1 0l1 4c2 2 5 2 5 0zm174-2 1-1-4 2c0 1 1 1 3-1zm-133-2-1-1-1 1h2zm117-1h-1c-1 0-2 0-1 1s2 0 2-1zm24 1v-1l-2 1 1 1 1-1zm-188-6 2-4-3 1c-5 0-5 0-4 4l2 3 3-4zm153 2h-1v2h1v-2zm29 1-1-1-1 1c0 1 0 2 1 1l1-1zm12 1-1-2-1 2 1 1 1-1zm-33-2 1-3c-2-1-2-1-3 1v2c-1 2 0 1 2 0zm-121-1c1 0 1-1-1-1l-1 1 1 1 1-1zm-29 0-2-1-1 1 2 1 1-1zm166 0-1-1-1 1 1 1 1-1zm8-1-1-1-1 2c0 1 1 1 2-1zm-178-2 1-2c-1-2 1-3 3-3 3 1 3 0 1-3l-4-2h-1l-1 5c-2 7-1 10 1 5zm184-2v-3l-1 7 1-4zm-158 2-2-1 1 2 1-1zm122 0v-1l-1 1v1l1-1zm27 0c0-1-1-2-2-1l-1 1h3zm-162 0v-1l-1 1h1zm-2-2-1-1-2 1c0 2 0 2 1 1l2-1zm7 0h-2 2zm-28-3-1-2c-2-1-2-1-1 1v2c0 1 1 1 2-1zm154 1-1-1-1 1 1 1 1-1zm6-1v-1l-1 1c0 2 0 2 1 0zm5 1c1-1 1-1-1-1s-3 1-2 2l3-1zm23 0-4-5c-2 0-1 3 2 4l2 1zm-168-2-1-1h-1l1 1h1zm136-3c0-1 0-1 0 0v1-1zm37 1v-1l-1 1h1zm-183-4c0-1 0-2 2-3l2-2h-4l-4 1v4h4zm15 0-1-1-1 1 1 1 1-1zm138 0v-1l-1 1 1 1v-1zm19-1h-2l1 1 1-1zm-180-1c0-2-2-1-2 0l1 1 1-1zm184-1-1-1v1l1 2v-2zm-165-2h-1v1c1 1 1 1 1-1zm161-2c3-2 2-3-1 0-2 1-2 2-1 2l2-2zm7-1h-1v1l1-1zm-179-4-1-1-1 2 1 1 1-2zm144 1v-1l-1 1h1zm35-2-1-2-2 1v2h2l1-1zm-191-1-1-1v2l1-1zm178-1-1-1-1 1 1 1 1-1zm-172-7 1-3-1 2-2 2c0 2 0 2 2-1zm187 2-1-1-1 1h2zm-4-3-1-1v2l1-1zM720 508l-1-3 1 1h1v-1c-2-1-2-2 0-2l2-1c-1-1 0-1 2-1h2l-1 3-1 2-3 3-2-1zm7 1 3-6 2-2v2c0 2 0 2 2 1h1l1 1v-4c-3 0 0-5 3-5 1-1 0-3-1-3l-5 3-4 2-3-6c0-1 0-2-3-1l-4-1h9l9 1-1 1 2-1 7-2h4l1 2c0 3 3 7 4 7v-4l-1-3-1-2 2 2 2 2 2 1v1l1-1 1-2v-1c-1-1 2-1 19-2a1779 1779 0 0 1 39-2c0-2-2-3-4-5l-18-3h-3l1-1 2-1-2-3c-2-2-3-3-3-1 1 2 0 2-1 3l-1 3-3 1c-4 0-4 0-3-1v-2l-2 2-3 1-2-1h-1l-12 1c-7 0-11 0-10-1l-5 1h-34v-86h2l3 1h1l7-1 6 1c0 2-3 5-4 4l-1 1 1 1c2 2 8-3 8-6l10-1c10 0 12 0 10 1v1c1 1 2 0 3-1l11-1h12l4 1h3l5-2c3-1 3-1 3-3v-3l-15-1-15-1h-14l-15-1h-2l-2 1-2-1h-1l-10 1h-8v-4l1-4v-12l1-2-1-2v-14c-1-2-1-3 1-3s3-1 3-2l-3-1c-2 0-3-1-2-2 2-4 2-5 1-5l-1-2c0-2 0-2 2-2h1l-1-3c-2-2-2-3-2-9s0-7 1-6c1 2 3 1 3-1l-2-3c-2-2-2-4-2-5v-2h13l14 1h23c1 2 1 2 1 0l10-1 10 1 1 2c1 1 1 1 3-1 1-2 1-2 2-1 2 4 5 5 8 3 1-1 1-3-1-3l-1-1h17l1-2v-8h-53l-5 1h-6l-11-1-11-1-2-2-1 2c0 2-1 2-4 2-4 0-9 0-14 2h-3v40l-1 1 1 19v5l1 66a487 487 0 0 0 2 68c-1 1 0 1 4 2 5 1 6 2 6 3h-3c0 1 0 3 1 2h1-3c-2-2-5-2-7-1-1 1-1 1-1-1l1-1c2 0 2-1 0-3l-3-1h-3v1h3c1 1 1 2-1 6l-3 7c1 2 0 2-7 1h-8l-1-2-2-44a3477 3477 0 0 1 1-132 591 591 0 0 1 0-53l2-4h146l3 2 2 2v41l-2 2c-2 3-2 3-5 2h-11c-28 2-27 2-42 1h-35l-3 1-1 3c-2 6-2 17-1 18v14c-2 2 0 3 5 4l41 1c31 0 35 1 36 2l1 23-1 23-1 2h-40l-40 1a251 251 0 0 0 1 42c2 2 10 3 35 3l41-1h17l3 2 2 2v43l-2 1c-1 2-2 2-26 2-26 0-27 0-24-3v-1l-1-1-2-3-1-1 2-2c2-2 1-3-2-1l-4 1c-2-1-2-1-5 2-2 2-4 3-5 2l-2 1-2 2 11-1 3-1-1 2v2c0 2-2 2-21 2-20 0-22-1-23-2s-1-1-3 1l-1 1zm8-3h-1v1h1v-1zm7 0h-1l-1-1s0-1 0 0v2h2v-1zm15 1h-1v1l1-1zm15 0c1 0 0 0 0 0h-1v1l1-1zm16-2c1-2 2-3 1-4l-3 3c-2 3-2 4 0 4 1 0 2-1 2-3zm21 1c-1-2-2-1-2 1h2v-1zm-8 0-1-1v2c1 0 2 0 1-1zm-112 0-1-1v2l1-1zm108-4c3-3 3-8 2-8s-4 3-5 6l-3 4v2c0 1 4-1 6-4zm21 4c1-1 2-7 1-8h-2c-2 0-2 0-2 3-1 2 1 6 2 6l1-1zm-66-1h-2l1 1 1-1zm3 0h-1l1 1v-1zm-61-1-1-2-1-2v2l1 1c-1 1 0 2 1 1zm3-1-1-1-1 1 1 2 1-2zm116 1-1-3-2-1 1 2v1c0 2 1 2 2 1zm-70-3v-2h-1c-1 1-1 3 1 3v-1zm7-1c0-2-1-2-2-1v2c1 1 2 1 2-1zm15-1c4-3 5-5 5-7-1-2-1-2-2-1h-3c-1-1-2 0-2 2l-1 1-2 1v4l1 3 4-3zm-78 2c1-1 0-3-1-3v2c0 1 0 2 1 1zm52-1v-1l-1 1c1 2 1 1 1 0zm18-1h-1l-1 1 2 1v-2zm28 2-1-2c-1-1-1-1-1 1l1 1h1zm41-2c0-1-1-2-2-1s0 3 1 2l1-1zm2-1h-1l-1 1h1l1-1zm-134-1-2-1-1 1 1 1 2-1zm7 1-1-1-1 1h2zm90 0c1-1 0-1-1-1l-1 1h2zm14-1v-1l-1 1 1 1v-1zm-120-2c0-1 0-1 0 0v1-1zm14 1v-1l-1 1h1zm48 0v-2c1-1 0-1-1-1l-1 2 2 1zm75 0c0-1 0-2-1-1l1 1zm-50-1c2 0 2-1 0-1l-1 1h1zm25 0-3-3-2 3h5zm-98-3c0-2-2-1-2 1v1l2-2zm34 1c-1-2-1-2-4-1v2h3l1-1zm45 1-1-1v1l1 1v-1zm4 0-1-1v2l1-1zm-88-2-1-1-1 1h2zm100-1-1-1c-1 0-2 1-1 2l2-1zm22 0v-1l-1 1 1 1v-1zm2 1v-1l-1 1h1zm6-1v-1c-1 0-2 1-1 2l1-1zm9 0c-1-2-2-2-2-1-1 1 0 2 1 2l1-1zm-97 0-1-1-1 1 1 1 1-1zm8 0-1-1-1 1 1 1 1-1zm78-2h-1l-1 1h1l1-1zm-120 1v-1l-1 1h1zm-12-2h-1l1 1v-1zm139-3h-1l-1 2h2v-2zm-4 0-4-4h-2c-1 0-1 1 1 2l5 2zm-124-2h-2l1 1 1-1zm-7-1-1-1-1 1 1 1 1-1zm7-3-1 1h1v-1zm116-4 2-5-1 1-1 1v-2l-1-2-2 6-1 4 1 1 3-4zm-84 3v-2l-1 1 1 2v-1zm75 0-1-1v2l1-1zm-43-1c2-1 2-4 0-3l-3 3h3zm8 0 1-1-1-1c0-1 0-2-1-1l-1 1v2h2zm51 0v-1h-3l-1 1h4zm-71-2h-1v2h1v-2zm-61 1-1-1-1 1 1 1 1-1zm13 0v-1l-1 1h1zm76-1c2-2 2-3 1-4s-1-1-2 2c-1 4-1 5 1 2zm-3-1h-1v1h1v-1zm10 1c0-2-2-2-2 0l1 1 1-1zm39 0c0-2-2-4-4-4-1 0-1 1 1 3s3 2 3 1zm-101-1v-1l-1 1 1 1v-1zm20 0-1-1v2l1-1zm54-1-1-1v2l1-1zm6-1c-1-1-2 0-1 1h1v-1zm-103 1v-1l-1 1h1zm29-1s0-1 0 0l-1 1 1-1zm5 0v-1l-1 1 1 1v-1zm-12-1-1-1-1 2h2v-1zm10-1-1-1-1 1h2zm24 0-1-1v2l1-1zm9 1v-1l-1 1h1zm24-1c1-1 1-2-1-2s-2 1-2 2h3zm-62-2-2-1c-4 0-3 1 2 3v-2zm-11 1c1-1 0-3-1-2v1l1 1zm38-4h-2l1 2 1-2zm25 0h-2l2 2v-2zm16 0s-2 1-1 2h1v-2zm-64 0h-2l1 1c1 0 2 0 1-1zm74-2h-1v1c1 1 1 1 1-1zm-54 0-1-1-1 1 1 1 1-1zm-26-1-1-1-1-1 1 3 1-1zm-5-3-3-1 1 1h2zm-24-2-1-2-1 2h2zm33-1-1-1-1 2c1 1 2 1 2-1zm-6-11h-1l1 1v-1zm-7-5-1-1v2l1-1zm2-5c1 0 0-2-1-1v1h1zm4-10-1-1v2l1-1zm-1-6-1-2-1 2h2zm-27-2-1-2h-1v2h2zm7 0v-1h-1l-1 1h2zm-3-5-1-1-1 1 1 1 1-1zm51 0v-1l-1 1 1 1v-1zm13 0h-2l1 1 1-1zm-36-3v-4c-1 0-3 3-2 5 0 1 1 1 2-1zm60-1v-1l-1 1v1l1-1zm-9-1h-1v1l1-1zm-47 0-1-1v1c-1 0-1 0 0 0h1zm28-2-2-2 1 3 1-1zm14 0c3-2 4-5 3-6s-2 0-3 1a175 175 0 0 1-5 5h5zm21 0h-2l1 1 1-1zm-58-2c0-2 0-2-2-2l-2 1 3 3 1-2zm-53-1h-1v1l1-1zm81 1h-1v1l1-1zm-17 0c0-1-3-3-4-2v1l4 1zm57-1c1-1 0-2-1-1v2l1-1zm-63-2h-1v1l1-1zm52-1c0-3 0-3-1-2l-1 2 1 2 1-2zm-105 1c1-1 0-2-1-1l-1 1h2zm74-2v-1c-2-1-4 0-4 1 0 2 3 2 4 0zm7 0-3-2v2c1 1 3 2 3 0zm13 0v-1c-1-1-2 1-1 2l1-1zm-55-1v-1l-1 1 1 1v-1zm23-1c-1-1-1 0-1 2h1v-2zm-57-1v-1l-1 1v1l1-1zm73 0-1-1v2l1-1zm-63-4v-1c-1 0-2 1-1 2s1 0 1-1zm100-2v-1c-1-1-4 0-4 2l4-1zm11-2v-1l-1 1 1 1v-1zm-8-1h-1v1l1-1zm-111-4c0-3 0-3-2-1v2c2 2 2 1 2-1zm53 1h-1v1l1-1zm-47-4c-1-1-2 0-1 2h1v-2zm40-1-1-2c-1 0-2 1-1 3s2 2 2-1zm-20 1-1-1v-1l-1-1v2c1 2 2 2 2 1zm-36-3-1-1v2l1-1zm70 0-1-1-1 2c1 1 2 0 2-1zm54 1-1-1v1h1zm-117-2-1-1v2c0 1 1 1 1-1zm67-1-1 1v1h1v-2zm38 0h-1v2h1v-2zm-30 1-1-1v1h1zm-49-2-1-1-1 1 1 1 1-1zm41-1-1-1-1 2c0 1 2 1 2-1zm-15 0-1-1c0-1 0-1 0 0v2l1-1zm-48-2-1 1h1v-1zm41 2v-1h-1l1 1zm-8-3c1-1-1-2-2-1l1 2 1-1zm10-1-1-1-1 2 1 1 1-2zm18 0c0-1-1-1-1 1h1v-1zm-54-1-2-1v2c2 2 2 1 2-1zm96 2-1-1-1 1h2zm-105-2-1-1v2c0 1 1 1 1-1zm30-1c0-2-1-2-2 0v1l2-1zm6-1-1-1v1l1 1v-1zm-33-2v-1l-1 1 1 1v-1zm-11-1-3-1 1 1h2zm16-1c-1-1-2 0-1 1l1 1v-2zm-10-5h-2l1 1 1-1zm26-2h-1c-2 1-2 2 0 2l1-2zm-29-1h-1v1h1v-1zm12 0h-3c-4 0-5 0-4 1s2 0 7-1zm23 0h-1v1h1v-1zm-2-3-1-1v-2c0-1-2-1-3 1-2 2-2 2 0 2l2 1c1 1 2 1 2-1zm-30-1h-1v1l1-1zm3-3-2-1c-1-2-2 0-1 2 1 1 3 1 3-1zm8 1-1-1-1 1h2zm-16-5-1-1v2c1 1 1 1 1-1zm37 0c1-1 0-2-1-1l-1 1c1 2 2 2 2 0zm-29 0-1-1-1 1 1 1 1-1zm34-1h-1l1 1v-1zm-7-1-1-1-1 1h2zm-25-5-1-1-1 1h2zm28-2-2-1 3 3-1-2zm-3-3v-1l-1 2h1v-1zm7-1-2-2c-1 1 0 1 1 2h1zm-37-3-1-1-1 1 1 1 1-1zm28 0c2-2 1-4-1-3l-1 2c0 2 0 3 2 1zm11 0-1-1-1 1 1 1 1-1zm-2-2-1-1h-1v1h2zm-4-3-1-2-1 1 1 2 1-1zm42 0v-1l-1 1h1zm-72-3c-1-2-2-2-2-1l1 2c1 2 2 1 1-1zm107 0-1-1v3l1-2zm3 1v-1c-1 0-2 1-1 2s1 0 1-1zm-48 0c1-1 0-2-1-2v1c0 2 1 2 1 1zm5-1h-2l2 2v-2zm-44-2h-1c-1 1 0 3 1 2v-2zm6 1c1-1 1-2-1-1l-1 2 2-1zm101-4-1-1-2-2v8l1-2 2-3zm-133 4-1-1-1 1 1 1 1-1zm11 0-1-1-1 1 1 1 1-1zm49-1-1-1-1 1 1 1 1-1zm28-2c0-4-1-5-1-1l1 4v-3zm-79 1-1-1-1 2h1l1-1zm-4-1-1-1-1 2c1 1 2 1 2-1zm37 0 1-4-1-1c-2 0-2 0-2 3l1 3c1 0 2 0 1-1zm14 0-1-1-1 1 1 1 1-1zm-21-1v-1l-1 1 1 1v-1zm41 0h-1v1l1-1zm5 0v-1l-1 1 1 1v-1zm17 0h-2l1 1 1-1zm13-3v-2l-1 2v3l1 1v-4zm26 3v-1l-1 1 1 1v-1zm-43-1c-1-2-2-2-3 0-1 1-1 1 1 1l2-1zm29 0-1-1-1 2c1 1 2 0 2-1zm-59 0v-1l-1 1 1 1v-1zm15-1-1-1-1 1 1 1 1-1zm-81-3c-1 0-2 0-1 1l1 1v-2zm10 1c0-3-3-5-5-4l1 4h4zm68 0-2-4c-1 1-2 3-1 4h3zm8 0h-2l1 1 1-1zm14-1c0-1-1-3-2-2s1 4 2 4v-2zm41-1-3-2-1-1-1-1v2l1 2s4 3 5 2l-1-2zm-76 0 1-2h-2l-2 2h3zm46-1h-2c-1 2-1 2 1 1l1-1zm12 0h-1v1h1v-1zm9 1-1-1-1 1h2zm3 0h-1v1l1-1zm-77-1h-1l-1 1h1l1-1zm-56-2-1-1-1 1 1 2 1-2zm35 1-1-2-1 1 1 2 1-1zm50 0-1-1 2 2-1-1zm32-1 1-2-2 2c-3 2-2 2 1 0zm-92 0-1-1-1 1h2zm103-3-1 1h1v-1zm7-1-1-1v2l1-1zm-133-4c0-2 0-2-1-1v3l1-2zm131-3c2-1 2-1 0-2s-3-1-3 1 1 2 3 1zm-137-2v-2l-1 2h1zm51-1v-1l-1 1h1zm35-3 1-2-3 1c-2 2-2 2-1 3 2 2 2 1 3-2zm21 2c0-2-3-3-3-2 0 2 1 3 2 3 2 0 2 0 1-1zm-38-2-1 1c0 2 0 2 1 1v-2zm-35 1h-1v1l1-1zm-13-2h-1l1 2v-2zm43 2-1-1v1c-1 0 0 0 0 0h1zm10-1c-1-2-2-3-2-1l2 2v-1zm5 0c2 0 1-1 0-2l-2-2v3c0 2 1 3 2 1zm19 1-1-1-1 1h2zm-85-1-1-1v1h1zm108-2h-2v2h2v-2zm-6 1h-1l1 1v-1zm-5-3 1-3-2 2-3 2 2 1 2 1v-3zm29 1h-1l-1 2h2v-2zm-124 0v-2c-1 0-2 1-1 2h1zm54 0c1 0 0 0 0 0h-1v1l1-1zm25 0v-2c-1 0-2 1-1 2h1zm37 0c0-2-1-2-4-1-2 0-2 0-1 1h5zm-102-2c-1-1-2 0-1 1l1 1v-2zm75 2c0-1-2-3-3-2l1 1 2 1zm-98-3-1-1-1 2h1l1-1zm84-1-2-1-1 1 2 1c2 0 2 0 1-1zm16 0v-2c-1-1-1 0-1 1 0 2 0 2 1 1zm33-2h-1l-1 2h2v-2zm-44 0-1-1-1 1 1 1 1-1zm-75-1-1-1v1l1 1v-1zm60-1-1 1 1 1v-2zm-48 0-1-1h-1l1 1h1zm38-1-3-1c-4 1-4 1 0 1h3zm28-1-1-1-1 1 1 1 1-1zm414 234-1-3 1 1h1v-1c-2-1-1-2 0-2l2-1 2-1c3 0 3 0 1 3l-1 2-3 3-2-1zm7 1c0-2 2-5 4-6h1c0 2 0 2 2 1h1l1 1v-4l-1-1 4-4v-2c-1-1-3 0-7 3l-3 1-2-6-3-1h-5c-1-1 0-1 9-1l9 1v1l2-1 6-2h4l1 2 4 7v-5c-2-2-2-3-1-3l1 1 2 2 2 1 1 1v-1l1-1v-2c-1-1 0-1 19-2a1779 1779 0 0 1 39-2c0-2-2-3-4-5l-18-3c-3 0-3 0-2-1 2-1 2-1 0-4s-3-3-2-1l-2 3-1 3-3 1c-4 0-4 0-3-1v-2l-2 2-2 1-3-1h-1l-11 1-11-1-5 1h-34v-86h2l3 1 1 1v-1l7-1 6 1c0 2-2 4-4 4-1 0-1 1 1 2 2 2 7-3 7-6l10-1c10 0 12 0 10 1v1c1 1 2 0 3-1l11-1h13l3 1h4l4-2c4-1 4-2 3-5l-1-2h-14l-15-1h-14l-15-1h-2l-2 1-2-1h-1l-9 1h-9v-4l1-4v-12l1-2-1-2v-14c-1-2-1-3 2-3 2 0 2 0 2-2l-3-1-2-1a453 453 0 0 1 1-6l-1-2c0-2 0-2 2-2l1-1-1-2c-2-1-2-2-2-9 0-6 0-7 1-6 1 2 3 1 3-1l-2-3c-2-2-2-4-2-5v-2h13l14 1h23c1 2 1 2 1 0l10-1c10 0 10 0 11 2l1 2 2-2c1-2 2-2 3 0 1 3 4 4 6 2 3-1 2-3 0-3l-1-1h17l1-2 1-5-1-3h-53l-5 1h-6l-11-1-11-1-2-2-1 2c0 2-1 2-4 2-4 0-9 0-14 2h-3v20a114 114 0 0 1 0 21v24c1 1 2 32 0 32h-1l1 1 1 49a270 270 0 0 0 2 52l4 2c5 1 6 2 6 3h-3c0 1 0 3 1 2h1-3c-2-2-5-2-7-1-1 1-1 1-1-1l1-1 2-1-3-2c-1 1-6 12-5 13 0 1-1 2-8 2s-7 0-8-2l-2-8a2821 2821 0 0 1 0-169 615 615 0 0 1 0-53l2-4h146l3 2 2 2v41l-2 2c-2 3-2 3-5 2-4-1-5-1-28 1-9 1-19 1-37-1a80 80 0 0 0-25 1c-2 1-3 6-3 15v21c-2 1 0 3 5 4l41 1c31 0 35 1 36 2l1 23-1 23-1 2h-40l-39 1v42c2 2 10 3 35 3l41-1h17l3 2 2 2v43l-2 1c-1 2-1 2-26 2-26 0-27 0-24-3v-1l-1-1-1-3-2-1 2-2c2-2 1-3-2-1l-4 1c-1-1-2-1-5 2-2 2-3 3-5 2l-2 1-1 2 3 1 7-2 3-1-1 2v2c0 2-2 2-21 2s-22-1-23-2-1-1-2 1l-2 1zm8-3h-1v1h1v-1zm7 0h-1l-1-1s0-1 0 0v2h2v-1zm15 1c1 0 0 0 0 0h-1l1 1v-1zm15 0c1 0 0 0 0 0h-1v1l1-1zm16-1 1-5-4 6c0 1 2 1 3-1zm21 0c-1-2-2-1-2 1h2v-1zm-7 1-1-2-1 1 2 1zm-113-1-1-1v2l1-1zm108-4 3-6-1-2-5 6-2 4-1 2c0 1 4-1 6-4zm22 2v-6h-2c-2 0-2 1-2 3 0 5 3 7 4 3zm-67 1h-2l1 1 1-1zm3 0h-1l1 1v-1zm-61-3c-1-2-1-2-2-1v1l1 1c-1 0 0 2 1 1v-2zm3 2-1-2-1 1c0 1 1 2 2 1zm116 0-1-3-1-1v2l1 1c0 2 1 2 1 1zm-70-3v-2h-1c-1 1-1 3 1 3v-1zm7-1-1-1-1 2c1 1 2 1 2-1zm15-1c4-3 5-5 5-7-1-2-1-2-2-1h-3c-1-1-2 0-2 2l-1 1c-1 0-2 2-2 5l1 3 4-3zm-78 2c1-1 0-3-1-3v2c0 1 0 2 1 1zm52-1v-1l-1 1c1 2 1 1 1 0zm18 0-1-2-1 2c1 2 2 1 2 0zm28 1-1-2c-1-1-1-1-1 1l1 1h1zm41-2c0-1-1-2-2-1 0 1 0 3 1 2l1-1zm3-1h-2l-1 1h1l2-1zm-135-1-1-1-2 1 2 1 1-1zm7 1c0-1-2-3-3-2h1l1 1v1h1zm90 0c1-1 0-1-1-1l-1 1h2zm15-1-1-1-1 1 1 1 1-1zm-59-2c1-2 1-2-1-2l-1 1 1 2 1-1zm75 1c0-1 0-2-1-1l1 1zm-50-1c2 0 2-1 0-1l-1 1h1zm25-1-1-1h-2l-2 2 5-1zm-98-3c-1-1-2 1-2 3h1l1-3zm4 3-2-2c-1 1 0 3 1 3l1-1zm30-1c-1-2-1-2-4-1v2h3l1-1zm45 1-1-1v1l1 1v-1zm4 0-1-1v2l1-1zm-77-1v-1c-1 0-2 1-1 2s1 0 1-1zm-11-1-1-1v1h1zm100-1-1-1c-1 0-2 1-1 2l2-1zm22 0v-1l-1 1 1 1v-1zm2 1v-1l-1 1h1zm6-1c0-1 0-2-1-1s0 2 1 2v-1zm9 0c-1-2-1-2-2-1s0 2 1 2l1-1zm-97 0-1-1-1 1 1 1 1-1zm8 0-1-1-1 1 1 1 1-1zm78-2h-1l-1 1h1l1-1zm-120 1v-1l-1 1h1zm-12-2h-1l1 1v-1zm139-3h-1l-1 2h2v-2zm-4 0-4-4c-3-1-3 1 0 3l4 1zm-124-2h-2l1 1 1-1zm-7-1-1-1-1 1 1 1 1-1zm7-3-1 1h1v-1zm116-4 2-5-1 1-1 1v-2l-1-2c-1 0-3 4-2 6v3c-2 4 1 3 3-2zm-84 3v-2l-1 1 1 2v-1zm75 0-1-1v2l1-1zm-43-1c2-1 3-4 0-3l-3 4 3-1zm8-1v-1c0-1 0-2-1-1v2c0 2 0 2 1 1v-1zm51 1v-1h-3l-1 1h4zm-119-2h-1v1h1v-1zm48 0h-1v2h1v-2zm-61 1-1-1-1 1 1 1 1-1zm91-4-1-1c-1-1-1-1-1 1l-1 4 1-1 2-3zm-4 2h-2v1h1l1-1zm9 1-1-2c-2 1-2 3 0 3l1-1zm39 0c0-2-2-4-4-4-1 0-1 1 1 3s3 2 3 1zm-100-1-1-1-1 1 1 1 1-1zm19-1-1 1h1v-1zm-9-1c-1-1-1 0-1 1h1v-1zm63 1-1-1v2l1-1zm6-1c-1-1-2 0-1 1h1v-1zm-103 1v-1l-1 1h1zm30-1h-1l-1 1h1l1-1zm-8 0c0-2-2-3-2-3v1l1 1c-1 1 0 2 1 2v-1zm10-2-1-1v2l1-1zm24 0v-1l-1 1 1 1v-1zm9 1v-1l-1 1h1zm24-1c1-1 1-2-1-2s-2 1-2 2h3zm-62-2h-4c0 1 3 2 4 1v-1zm-11 0h-1v1l1-1zm38-3h-2l1 2 1-2zm25 0c-1-1-2 0-1 1h1v-1zm16 0s-2 1-1 2h1v-2zm-64 0h-1l1 1v-1zm74-2h-1v1c1 1 1 1 1-1zm-54 0-1-1-1 1 1 1 1-1zm-25-1h-1l-1-1v-1 3l2-1zm-6-3-3-1 1 1h2zm-24-2-1-2-1 2h2zm33-1-1-1-1 2c1 1 2 1 2-1zm-5-11h-2l1 1 1-1zm-8-5-1-1v2l1-1zm2-5c1 0 0-2-1-1v1h1zm4-10v-1c-1 0-2 1-1 2l1-1zm-1-6-1-2-1 2h2zm7 0-1-1v2l1-1zm-34-2-1-2h-1v1l1 1h1zm8 0-1-1h-1c-1 0-1 1 1 1h1zm-4-5-1-1-1 1 1 1 1-1zm51 0v-1l-1 1 1 1v-1zm13 0h-2l1 1 1-1zm-36-3v-4c-1 0-3 3-2 5 0 1 1 1 2-1zm51-2h-1l1 1v-1zm-47 0-1-1v1c-1 0 0 0 0 0h1zm28-3c-1-1-2-1-1 1l1 1v-2zm14 1c3-2 4-5 3-6h-2s-1 2-3 2c-3 2-4 5-1 5l3-1zm21 0h-1v1l1-1zm-58-2c0-2 0-2-2-2l-2 1 4 3v-2zm-53 0-1-1c0-1 0 0 0 0v2l1-1zm81 0h-1v1l1-1zm-17 0-2-2h-1l1 2h2zm57-1c1-1 0-2-1-1v2l1-1zm-63-2h-1v1h1v-1zm52-1v-2c-1-1-2 1-2 2l1 2 1-2zm-105 1c1-1 0-2-1-1l-1 1h2zm74-2v-1h-3l-1 2c1 1 4 0 4-1zm7 0-4-3v1l1 2c1 1 3 2 3 0zm14 1-1-2h-1c-1 2 1 3 2 2zm-55-2-1-1-1 1 1 1 1-1zm22-1c-1-1-1 0-1 2h1v-2zm-56-1-1-1-1 1 1 1 1-1zm109-6v-1c-1-1-4 1-4 2l4-1zm11-2v-1l-1 1 1 1v-1zm-8-1h-1v1l1-1zm-111-4c0-3 0-3-2-1v2c2 2 2 1 2-1zm53 1h-1v1l1-1zm-47-4c-1-1-2 0-1 2h1v-2zm40-1-1-2-1 3c1 2 2 2 2-1zm-20 1-1-1v-1l-1-1v2c1 2 2 2 2 1zm-36-3-1-1v2l1-1zm70 0-1-1v2l1-1zm54 1-1-1v1h1zm-117-2-1-1v2c1 1 1 1 1-1zm68 0h-2v1h1l1-1zm37-1h-1v2h1v-2zm-30 1-1-1v1h1zm-49-2-1-1-1 1 1 1 1-1zm41-1-1-1-1 2c0 1 2 1 2-1zm-15 0v-1h-1l1 2v-1zm-48-2c-1-1-1-1-1 1h1v-1zm41 2v-1h-1l1 1zm-8-4h-2v1c2 1 3 0 2-1zm10-1c-1 0-2 1-1 2h1v-2zm19 1h-2c0 1 0 2 1 1l1-1zm-55 0-2-2 2 3v-1zm96 1-1-1v1h1zm-105-3-1 1 1 1v-2zm30 0c0-2-1-2-2 0v1l2-1zm6-1v-1l-1 1 1 1v-1zm-44-3-3-1 1 1h2zm16-1c-1-1-2 0-1 1l1 1v-2zm27-1-1-1-1 1h2zm-37-4h-1v1l1-1zm26-1v-1l-2 2 2-1zm-28-2h-2v1h1l1-1zm11 0h-3c-4 0-5 0-3 1l6-1zm23 0h-1v1h1v-1zm-2-3-1-1v-2c0-1-1-1-3 1s-2 2 0 2h2l1 2 1-2zm-30-1h-1l1 1v-1zm2-3c-1-2-2-2-2-1 0 2 1 3 2 2v-1zm9 1-1-1-1 1h2zm-16-5-1-1v2c1 1 1 1 1-1zm38 0c0-1-2-2-3-1l2 2 1-1zm-30 0-1-1v2l1-1zm34-1h-1l1 1v-1zm-7-1-1-1-1 1h2zm-25-5-1-1-1 1h2zm29-1-2-2c-1-1-1-1 0 0 1 3 3 4 2 2zm-4-4v-1l-1 2h1v-1zm7-1-2-2 1 2h1zm-37-3-1-1v2l1-1zm29-2c0-1-1-2-2-1-1 0-2 3-1 4l3-3zm10 2-1-1v1h1zm-2-2v-1h-2l1 2 1-1zm-4-3-1-2-1 1 1 2 1-1zm42 0v-1l-1 1h1zm-72-3c-1-2-1-2-2-1l1 2c1 2 2 1 1-1zm107 0-1-1v3l1-2zm3 1v-1c-1 0-2 1-1 2s1 0 1-1zm-48 0c1-1 0-2-1-2v1c0 2 1 2 1 1zm5-1h-1l1 2v-2zm-44-1v-2c-1 0-2 2-1 3s1 0 1-1zm6 0c1-1 1-2-1-1l-1 2 2-1zm101-4-1-1-2-2v8l2-2 1-3zm-133 4v-1l-1 1v1l1-1zm11 0-1-1-1 1 1 1 1-1zm49-1-1-1-1 1 1 1 1-1zm28-2c0-4-1-5-1-1l1 4v-3zm-79 1-1-1-1 2h1l1-1zm-4-1-1-1-1 2c1 1 2 1 2-1zm37-1 1-3-1-1c-2 0-2 0-2 3l1 3c1 0 2-1 1-2zm14 1-1-1-1 1 1 1 1-1zm-21-1v-1l-1 1 1 1v-1zm41 0h-1v1l1-1zm6 0-1-1-1 1 1 1 1-1zm16 0h-2l1 1 1-1zm14-2c0-3-1-3-2-1v3c1 2 2 1 2-2zm25 2v-1l-1 1 1 1v-1zm-43-1-1-1c-2 0-2 2-1 2l2-1zm29 0-1-1-1 2c2 1 2 0 2-1zm-59 0v-1l-1 1 1 1v-1zm15-1-1-1-1 1 1 1 1-1zm-81-2-1-1v1l1 1v-1zm10 1c1-1-1-5-3-5l-3-1c0 1 1 4 3 5l3 1zm68-1-2-4c-1 1-2 3-1 4h3zm8 0h-2l1 1 1-1zm15 0-2-3v2c0 2 1 2 2 1zm40-2-3-2-1-1-1-1v2l1 2s4 3 5 2l-1-2zm-76 0 1-2h-2l-2 2h3zm46-1h-2c-1 2 0 2 1 1l1-1zm12 0h-1v1h1v-1zm9 1h-1v1l1-1zm3 0h-1v1l1-1zm-77-1h-1l-1 1h1l1-1zm-56-2-1-1-1 1 1 2 1-2zm35 1-1-2-1 1 1 2 1-1zm51 0-2-1 2 2v-1zm31-1 1-2-2 2c-3 2-1 2 1 0zm-92 0c0-1 0-2-1 0v1l1-1zm103-3-1 1h1v-1zm8-1-1-1-1 1 1 1 1-1zm-134-4c0-2 0-2-1-1v3l1-2zm132-3c1-1 1-2-2-2-1-1-2-1-2 1s2 2 4 1zm-138-2v-2l-1 2h1zm51-1v-1l-1 1h1zm35-2c1-3 1-4-2-2-2 2-2 3-1 4 2 1 2 1 3-2zm21 1c0-2-3-3-3-2 0 2 1 3 3 3v-1zm-38-1c0-2-1-1-1 0 0 2 0 2 1 1v-1zm-35 0h-1l1 1v-1zm-12-1-2-1 2 2v-1zm42 1-1-1v1c-1 0 0 0 0 0h1zm10-1c-1-2-2-3-2-1l2 2v-1zm5 0v-2l-2-2v3c0 2 1 3 2 1zm19 1-1-1v1c-1 0 0 0 0 0h1zm-85-1-1-1v1h1zm108-2h-2v2h2v-2zm-6 1h-1l1 1v-1zm-5-3 1-3-2 2-2 2 1 1 2 1v-3zm29 1h-1l-1 2h2v-2zm-124 0v-2l-1 2 1 1v-1zm54 0c1 0 1 0 0 0h-1v1l1-1zm25 0c0-2 0-2-1-1l1 2v-1zm37 0c0-2-1-2-4-1-2 0-2 0-1 1h5zm-102-2c-1-1-2 0-1 1l1 1v-2zm76 2c0-1-3-3-4-2l1 1 3 1zm-99-3-1-1v2l1-1zm85 0-3-2v1l1 1h2zm15-1v-2c-1-1-1 0-1 1 0 2 0 2 1 1zm33-2h-1l-1 2h2v-2zm-44 0-1-1-1 1 1 1 1-1zm-74 0-1-2c-1-1-1-1-1 1l1 1h1zm59-2-1 1 1 1v-2zm-48 0-1-1h-1l1 1h1zm39-1-4-1c-4 1-4 1 0 1h4zm27-1-1-1-1 1 1 1 1-1zm106 233-2-2v-74a1292 1292 0 0 1 0-77v-77l2-2c1-1 2-2 8-2l57-1c53 0 53 0 64 4 18 6 36 18 39 28l1 5v2h3c5 4 9 25 8 38a74 74 0 0 1-39 60l-6 3-3 3 5 11 23 44c17 34 18 36 16 38l-28 1h-26l-3-5a492 492 0 0 1-38-72l-4-9-3-4h-16l1-3 1-3-4 3-4 3v86l-2 2-2 2h-47zm17 1-1-1-1 1h2zm131 0-1-1v2l1-1zm-11-4h-2l1 1 1-1zm7 0c2-2 1-3-1-2-2 0-3 1-2 2 1 2 2 1 3 0zm-101-2-1-1-1 1h2zm115 0-1-1v1c-1 0-1 0 0 0h1zm-133-1-1-1v2l1-1zm108-3-1 1c-2 2-2 3 0 2l1-3zm20 2c-1-2-1-2-2-1l1 1c2 2 2 2 1 0zm8 0h-1v1l1-1zm-25 0h-2c-2 0-2 1 0 1l2-1zm-97 0-5-4v4l2-1h1c0 2 1 2 2 1zm7 0-1-2-1 1c-1 1 1 2 2 1zm97-1-1-1h-1v2l2-1zm20 0h-1c0-1 0 0 0 0v1l1-1zm-32-1c1-1 2-4 1-5-1 0-2 1-2 3-2 3-2 3-2 1l-1-1c-1 1 1 4 1 4l3-2zm-90 0-1-2-1 1c0 1 1 2 2 1zm94-2h-1c0 2 0 3 1 2v-2zm26 0h-2v2h1l1-2zm-137 0-1-1h-1v1c-1 1 1 2 2 0zm129 0-1-1-1 2 2-1zm-114-2-1-1-1 1 1 1 1-1zm118 0-2-1-1 1h3zm-33-1h-1l1 1v-1zm22-1c0-2-1-2-2-1l1 2 1-1zm5-3c-2-1-2 1-1 3h1v-3zm-8 1c1-2 0-7-2-11l-4-8c-4-6-4-6-1-7l1-4-2 1c-1 1-3 2-4 1l2-2 1-1 2-1 1-1-2 1h-2c1-2-1-2-2 0v2l-2-3c-2-4-2-4 0-3l2-1 1-2 1 1h2l-1-2-2-2-1-3-2 3c-2 3-3 4-2 0l1-3c2 0 1-1-1-3l-3-1v2l1 2h1l-1 1c-3 0-3-3 0-7 2-3 2-4 1-4l-4 3c0 2-1 2-2 0l2-4c3-3 6-7 6-9l-1-1h-5c-1 1 0 2 2 2l1 2c-1 1-1 2-3 1-2 0-2 0-3 2l-1 1-6-8 2 1 2 1-1-2c-1-4-1-4-3-3s-2-1 0-3l2-4-1-3 8-3 8-4 5-7h-1l-5 3h-4c-2 0-4 1-4 4v-1c-1-4 3-9 8-12 5-2 6-2 5 1l-1 2 5-6 3-2c3-2 3-2 3 0v2c-2 1-2 3 0 2 2-2 2-1 3 2l1 2c1 0 6-5 6-7 0-1-1-3-2-2s-2 1-4-1l-2-5 1 1 1 1h1l-1-2h-1c-1 0 3-9 6-13l2-4v-2l2-1 1-1 1 1 2 2v-2l-1-2v-2c2-3 2-3 0-1l-3 1-1-13c0-11-2-19-6-24-8-10-18-17-34-23l-6-2h-59l1-2c0-3-3-3-5 1l-2 2c-2 0-2-1-3-2-2-3-4-3-4-1s0 2-4 2-5 0-4-1h-3c-2 2-4 8-5 14 0 1 0 2-1 1v-1c1-1 0-2-1-2-1 1 0 5 1 5v7l1 6 1 10c0 9-1 11-2 11v2c1 1 2 3 2 7 0 5-1 5-3 7l-2 3c0 2 0 2 1 1h2c1 0 2 1 2 5s-1 5-2 7l-3 4h2c2 0 2 0 2 3l-1 4c0 1 0 2 1 1v9l-3 1c-2 0-3 1-4 4l-2 4c0 1 3 0 5-2 1-2 2-2 1-3s-1-1 0 0l2-1c2-1 2-2 1 10l-1 5c-1 1 0 1 0 0 1 0 2 1 2 11l-1 10h-1v-2c-1-1-1 0-1 2l-2 1v2l1 2h2l2-1-1 12v18l-1 5v2c1 1 2 2 2 7 0 7-1 7 4 6l3-1v-34a139 139 0 0 1 1-39v-7l2-1-1-3v-3l1-1 6-1c5 0 7 0 6 1l-3 4c-2 3-3 5-1 5l5-6h1c1 1 2 0 2-2h-1l-1-1h3l6-1 7 1h-2l-2 2h5c4 0 6 1 4 2v3l5-7 1-1 1 1-1 1c-2 2-1 3 2 4s4 1 6 6l2 4-1 1c-1 1 0 1 1 1 1-1 1 0 1 2h3l3 1h1c2 0 6 3 5 5l2 1c4-1 5-1 5 2l2 4c2 2 2 2 1 4s1 5 3 5l4 3c2 2 3 11 3 13-1 2-1 2 1 0 2-1 2-1 2 1l1 3c0 1 0 2 1 1 1-2 3 1 6 9l5 12 2 5v2l1-1h1c4 3 7 3 7 1zm-44-70v-2l1 1-1 1zm9-5c-1-2-1-2 2-7l4-9-3 2-2 1c0-2-1-2-2 1l-2 3c-1 0-1-4 1-6 1-1 9-3 11-2l-3 5c-4 6-5 9-4 11v2c-1 2-1 2-2-1zm-14 0c1-1 2-2 3-1v1l-1 1-2 1h-2zm-6 0v-4c1 0 2 3 1 5l-1-1zm5-4c-1-1-1-2 1-3 1 0 2 0 1 1l-1 2h-1zm-9-1v-3l3-3 4-3 1 2v3l-3 1-3 1c1 2-1 4-2 2zm1-9-1-1v-1l3 1v1h-2zm-34-11-12-1c-9 0-9 0-9-2l1-3v-3l-1-5v-5l3 2 4 2 2-2-3-3c-1 0-1-2 1-4s3-4 1-5l-1 1-4 4-3 3v-17l2-1c1-2 2-3 1-4v-2l2-1c2-1 2-1 0-1l-3 1-1-1c0-1 0-2-1-1v1l-1 2v-3c0-3 2-5 3-5 2 0 3-2 1-3v-2h2c1 2 2 1 4-2l1-3-5 1-4 2c-1 1-1 0-1-11v-11l1 2h5c0-1-1-2-3-1v-1l1-1h-3l-1-2v-3h33a871 871 0 0 0 40 0c0 2 5 4 5 4l-1-2-1-2h3c5 1 12 3 17 6 6 4 14 11 15 15s1 6 3 6c1-1 2 6 0 7 0 1 0 2 2 2v6c2-1 2 6 0 8v5l-2 6-2 4-2-1c-1-2-3-2-7 1-4 2-4 2-3 3v3l-1 3 3-1c2-2 2-2 4-1l2 1c0 1-5 4-8 4l-3-1v-1c1 1 2-3 1-4h-3c2-3-1-2-4 1-2 3-3 4-1 4l1 2c0 2-1 3-3 2-2-2-3-1-4 2l-1 2c-1-2-2-1-1 1l-1 2c-2 1-3 1-2-3l-1-5-1-1v1c1 1 1 2-1 2s-3 5-1 6v1l-4-1c-4-2-5-2-6 0h-2c-1 0-1-1 1-2 1 0 3-3 2-4-1-2-2-2-2 0l-2 3v-3l2-2v-1c0-2-3 0-5 2l-1 2-2-2-2-1-2 1c-3 2-5 2-5 0l-1-1-3 4c0 3 0 3-1 2v-2l-1 2c-1 2-2 2-4 2l-2-1h2c2 0 4-3 4-4l-2-1-4-2-4-2-3 2-1 2 3 1c4 2 3 2 2 4h-3c-1-1-1-1-2 1l-6 1zm-2-3s0-1 0 0l-1 1h1v-1zm-14 0-1-1-1 1 1 1 1-1zm6-1v-2c-1-1-2-1-2 2-1 2 0 2 2 0zm4-1h-1v2l1-2zm11 1-2-2-3-2-1-2c-1 0-1 3 1 5s5 3 5 1zm-17-2-1-1-1 2 1 1 1-2zm63 1c1-2 1-2-1-1v2l1-1zm-68-1-1-1v2l1-1zm65-2h-2l1 2 1-2zm-57 0-1-1-1 1h2zm2 0-1-1v2l1-1zm3-1-1 1h1v-1zm55 0h-2l1 1 1-1zm-13-1-1-1-1 1 1 1 1-1zm10-1c1-1 0-1-1-1l-2 1v1c2 1 3 1 3-1zm15 1c1-1-1-2-1-1v2l1-1zm-55-2-1-1v2l1-1zm22 0c1-1 1-1-1-1l-1 1c1 2 1 2 2 0zm5 0v-1l-1 1v1l1-1zm25-1h-2l-1-1h-1c-1 1 1 3 3 2l1-1zm-53-2h-1l-1 2h1l1-2zm58 2v-1c-1-1-1-1-1 1 0 1 1 2 1 0zm-48-2c2-3 3-3 9-1l7 1 5-2 4 1h11c0-2 2-2 2-1 1 2 7-2 11-6 4-3 8-10 8-15l1-2 1-1v-4c1-3 0-3-1-5v-1l1-1-2-1c-1 1-1 1-1-1l-5-7c-9-8-9-8-24-8l-12-1-1-1v1l-11 1-15 1-4 1v24l1 25h7l6 1-1 2c-1 2-1 2 1 2 1 0 2 0 2-2zm6 2-1-1c0-1 0 0 0 0 0 2 0 2 1 1zm-24-2c1 0 1 0 0 0h-1v1l1-1zm70-3c-1-1-2-1-1 1l1 1v-2zm-72 1-1-1v1h1zm-8-3h-1l1 1v-1zm84-2c1-2 0-3-1-2l-1 2c1 2 2 2 2 0zm-79-5-3-3v3c0 2 3 2 3 0zm87 0v-1c-1 0-2 1-1 2s1 0 1-1zm-94-6-4 4 2-2 2-2zm3 3-1-1c-1-1-1-1-1 1 0 1 1 2 2 0zm102-1c1-2 0-2-1 0v2l1-2zm-92-1-1-1v2l1 1v-2zm81 0v-1l-1 1 1 1v-1zm5-2c-1-1-2 0-2 1h2v-1zm-89-3-1-2-2 2-1 2h3c0 1 0 2 1 1v-3zm92 2h-1v1l1-1zm-97-4 2-3c1-3 1-3-1-2h-3c-2-1-2 0 0 2l1 2-1 2c0 1 2 1 2-1zm98-2h3c1-1 1-1-2-1l-2-1c1-2 0-1-2 1l-2 3h1l4-2zm-105 0h-1v1h1v-1zm13-3c-1-1-2 0-2 2h1l1-2zm88 0c-1-1-2 0-2 2h2v-2zm-3-1c2 0 3-2 1-2l-4 2h3zm-96 0-1-1v1h1zm1-2c0-2 0-2-1-1v1h1zm8 0-1-1c-1-1-2 0-1 1h2zm-3-1-4-3 1 2c2 2 3 2 3 1zm101-2-1-1-1 1 1 1 1-1zm-96-1-1-1 1-1 1-2-2 1-1 2v1l1 2 1-2zm92-3c-1-1-3 2-3 4 1 1 1 1 2-1l1-3zm1 3-1-1v2h1v-1zm-13 0h-1v1l1-1zm-88-3 2-3v-2l-4 2c-2 2-2 2-1 4 1 1 2 1 3-1zm97-1 2-1h-4l-3 1h5zm-9-5h-1l1 1v-1zm-93-5-1-1v1l1 1v-1zm5 0-1-2-1 1c0 2 1 2 2 1zm96 0h-3l2 1c3 0 3-1 1-1zm-104-4-1-1v-1l-1 1 1 3 1 2v-4zm18 3-1-1h-3l1 1h3zm77 0-1-1-2-1-1-2c-1 1 1 4 2 4h2zm-10-2h-1v1l1-1zm15 0-1-1c-1-2-1-2-1 0s1 3 2 1zm-61-3-2-1 1 2 1-1zm8 0h-1v1l1-1zm50-1-2 1h1l1-1zm-39 0h-1v1l1-1zm17 0h-1v1l1-1zm-39 0 1-1h-3v1h2zm8-1-2-2v2h2zm-42 0-1-1-1 1 1 1 1-1zm80-1-1-1v2c0 1 1 1 1-1zm-74-1v-2h-1c-2 1-2 4-1 4l2-2zm71 0h-1l-1 1h1l1-1zm-55-2 2-2-4 1h-5c-2-2-3-2-4 0-2 1-2 2 1 3 4 1 9 0 10-2zm71 1v-1l-1 1v1l1-1zm-23-1v-1l-2 1c-1 1 0 1 1 1l1-1zm14 0 2-1v-1c-2-2-2-2-4 0-2 1-2 1-1 2h3zm-49-3v1c-1 1-3 0-3-2h-2l1 1 1 1v1h2l1-2zm-30 1h-1v1l1-1zm40-2v-1l-1 1h1zm19 0 1-2-2 1v2l1-1zm5 0h-1l-1 1h1l1-1zm-63 0-2-4-1 2 1 1c0 1 1 2 2 1zm69 0-1-1v1h1zm-52-2h-1v1h1v-1zm39 0h-1l-1 1h1l1-1zm-45 0v-1c-1 0-2 1-1 2l1-1zm31 0h-1l1 1v-1zm3 0v-1l-1 1 1 1v-1zm-41-1v-1l-1 1 1 1v-1zm57 1v-1l-1 1h1zm-39-3h-1v2h2l-1-2zm30 1c-1-1-2 0-2 1h1l1-1zm-50-2c-1-1-2 0-1 1l1 1v-2zm17 1v-1l-1 1 1 1v-1zm41 1-1-1v1h1zm-25 82c1-3 1-3 3-1 2 1 2 2 1 2l-3 1-1-2zm44-1 7-3-1 1-6 2zm19-15-2-1-2-3h3c2 2 3 3 2 4h-1zm25 119v-1l-1 2c1 1 1 1 1-1zm-124-1-2-1-3-1-1-1v3l5 1 1-1zm109 0-1-1v2l1-1zm-3-2-1-2-1 2h2zm10 0c1 0 1-2-1-2l-1 2h2zm-147-1-1-1-1 1h2zm123-1h-2v1l2-1zm-119-1h-1v1l1-1zm-3-5-1-2-1 1v5l1-2 1-2zm115 4c1-1-1-3-2-3l1 3h1zm5-1-1-1-1 1c0 2 2 1 2 0zm15-1h-2l1 1 1-1zm10 0h-2l2 1v-1zm-34-1v-1l-1 1v1l1-1zm-78 0v-1h-1l1 1zm85-1c0-2-2-2-3 0-1 0-1 0 0 0h3zm-86-1c1-2 3-5 2-6l-4 3-2 3v1l4-1zm71 0-1-1-1 1 1 1 1-1zm4-1h-2l1 1 1-1zm34 1v-2c-1-1-2-1-2 1l1 1h1zm-136-1-1-1-1 1h2zm108-1-1-1-1 1 1 1 1-1zm-89-4-1-1c-1 2 1 4 2 3l-1-2zm86 0-1-1v2l1-1zm21 1-1-1-1 1h2zm-23-2-1-1v1h1zm-106 0-1-1-1 1h2zm109-1-1-2-1 2 1 1 1-1zm28-2h-2c-1 2 0 3 1 2l1-2zm-110-1 1-3 1-3c0-2 0-2-2 2-2 2-3 4-2 5 0 2 2 2 2-1zm101 1h-2l1 1 1-1zm-29-1-1-1-1 2c1 1 2 1 2-1zm34-2 2-5c0-2-2-2-3 0l-2 4-2 1-1-1 4 4 2-3zm-136-2-1-1v2h2l-1-1zm142-1s-2 1-1 2h1v-2zm-114 1-1-1c0-1 0-2-1-1l-1 2h3zm72 0v-1l-1 1 1 1v-1zm4-2c0-2-1-2-3-1v2c1 1 1 2 2 1l1-2zm36 2-1-1v2l1-1zm-105-3h-1v1l1 1v-2zm74 1h-1v1l1-1zm23 1v-2l-1-1h-1v1l1 2c-1 0-1 0 0 0h1zm2-5-1-1v-1l1-1v-2c-2-2-3-2-4 0s0 3 2 5c1 2 2 2 2 0zm-35-1-1-1v2h1v-1zm5-1c-1-1-2 0-2 1 0 2 0 2 1 1l1-2zm37-1-1 1 1 1v-2zm-129-2v-2l-2 4c1 1 1 0 2-2zm22 3v-1h-1l1 1zm90-1c0-2-1-1-1 0v1l1-1zm-128-2-2-2v3c1 1 2 1 2-1zm132-1c-1-1-2 1-2 2h2v-2zm-99 2-1-1v2l1-1zm61-2h-2l1 1 1-1zm-58 0v-1l-1 1h1zm71-1v-1l-1 1v1l1-1zm3 1-1-1v1c-1 0 0 0 0 0h1zm-16-3c0-1-1-2-2-1l1 2 1-1zm11-3h-1v3c0 2 0 2 0 0l1-3zm26 4v-1l-1 1h1zm6-4-2-1v4c1 1 1 1 2-1v-2zm-39 2v-1l-1 1h1zm-61-2h-4v1c3 1 4 1 4-1zm4-2-1-2 1 3v-1zm59 0v-2h-1v5l1-3zm-89 0h-1v1h1v-1zm118 0v-1l-1 2c1 1 1 1 1-1zm-124 0v-1l-1 1h1zm2-4h-1v2c1 0 2-1 1-2zm24 1-1-1-1 1 1 1 1-1zm101-1-2 2h1l1-2zm-95 0-1-1-1 2 2-1zm57 1v-3l-2 1v2h2zm35-1h-2l1 1 1-1zm-92-4h-2c0 1 2 3 3 2l-1-2zm88-1-1-2v2l1 3 1 1v-1c1-2 1-2-1-3zm-26 2-1-1h-1v2c1 1 2 0 2-1zm-99 0-1-1-1 1v1l2-1zm130 0-1-1v2l1-1zm-104-4h-1v2h1v-2zm6-1c-1-1-3-2-3 0l1 1 1 1 1 1v-3zm11 1h-1l-1 2h2v-2zm53 0-1 1v1l1-2zm-61 0h-1v1l1-1zm54 0c1 0 1 0 0 0h-2v1l2-1zm-86-1h1l1-2 1-2c1 1 2 0 1-1h-1l-1-1h-4l1 1 1 2-1 2-1 1 1 1 1-1zm120 0v-1l-1 1v1l1-1zm-114-3v1h1l-1-1zm81 0-1-1v2c1 1 1 1 1-1zm7 0v-2l-1 2c-1 2 0 2 1 0zm17 1-1-2-1 2h2zm-101-2-1-1 1 3v-2zm74 0-1-2-1 2 1 2 1-2zm-51 0v-1c-2 1-2 2-1 2l1-1zm88 0-1-1v2l1-1zm-95-4h-2l-2 2h2l2-2zm61 1h-2v2h1l1-2zm-75 1v-1h-1l1 1zm18-1c0-2-1-3-2-2l1 3 1-1zm52 0-1-1v1l1 1v-1zm-46-1-1-1c-1 1 0 2 1 2v-1zm49-1h-1v2h1v-2zm-79 0-1-2c-1-1-1-1-2 1-2 1-1 2 1 2l2-1zm25-1h-1v1c1 1 1 1 1-1zm84-2c0-3-1-3-2 0v3c1 0 2-1 2-3zm-81 2-1-1-1 1h2zm-40-2-1-1-1 1 1 1 1-1zm78 1c0-1-1-2-2-1v1h2zm-61-1h-3l2 1 1-1zm18 0-2-3v2l1 2 1-1zm-28-2c0 1 0 2 1 1l-1-1zm-5 0-1-1v2l1-1zm116 0c0-1 0-2-2-1l-1 1c1 2 2 1 3 0zm-75-1-1-1-1 1 1 1 1-1zm30 0-1-1v2l1-1zm-41-2c-1-1-2 0-1 1h1v-1zm5-1-1-3v5c1 1 1 1 1-2zm8 0c-1-2-1-2-2-1l1 1c1 2 2 2 1 0zm30 1v-1l-1 1 1 1v-1zm-64-2v-1l-1 1 1 1v-1zm23-1-1-2v3c1 2 2 1 1-1zm86 0 1-2-4 3c-1 2 1 2 3-1zm-72-1-1 1h1v-1zm23 0h1l1-1-1-1-1-1h-1c0 1 0 2-2 1l-5 2 6 1 2-1zm55 0-1-1-1 1 1 1 1-1zm-82 0h-1c0-1 0 0 0 0v1l1-1zm16-4-2-1-1 3v3l1-2 2-3zm-43 3-1-1-1 1 1 1 1-1zm30 0-2-1 1 2 1-1zm30 0h-2l1 1 1-1zm-68 0-2-2h-3c-1 2-1 2 2 2h3zm124-1v-3l-2 1-1 2c0 2 1 1 3 0zm2 1-1-1v1h1zm-80-2 1-2c-1-1-4 1-4 2h3zm-22-1 1-2c-1-2-3-2-3-1l1 2v1l-1 1 2-1zm-29-2h-1v1h1v-1zm13 2c1-1 0-3-1-3l-1 2 2 1zm29-1h2l-1-2-3 2h2zm92 0h-2v1l2-1zm5 0h-2l1 1 1-1zm-91-2h-1l-1-1c0-1 0-2-1-1v2h3zm90-2h-1v2l1-2zm-3-1 2-5v-4l-2 3c-1 1-2 2-3 1l-2 1 1 4c2 1 3 2 4 0zm6-1h-1l1 1v-1zm-145-3-1-1-1 1 1 2 1-2zm9-1-1-1-1 1c0 2 2 1 2 0zm4 0c-1-1-2 0-2 1h1l1-1zm112 0v-1l-1 1 1 1v-1zm22 0c1-1 1-1 0 0l-1 1 1-1zm4-1-2-1 1 2 1-1zm-16-2h-1v2c0 1 0 1 0 0l1-2zm3 1-1-1v2c1 1 1 1 1-1zm-119-1h-1l-2 1 2 1 1-2zm-1-3c0-1-2-1-3 1l-1 2 2-1 2-2zm140 2-2-1v1l1 1 1-1zm-153 0v-1l-1 1h1zm9-2c3-2 3-4 0-4l-2-2h-4l-2 2 5 6 3-2zm141 1c0-1-1-2-2-1l1 2 1-1zm5-4c-1-3-1-2-1 1l1 1v-2zm-3 0c0-1-5-5-6-4-1 0 1 2 3 2l1 1 2 3v-2zm-158 0v-1l-1 1h1zm4-4v-1l-1 2c0 1 1 1 1-1zm3-1c1 0 0 0 0 0h-1l1 1v-1zm-2-1 1-1c0-1 0-2-2-2l-2 2c0 2 1 2 3 1zm151 0-2-2c-1 1 0 3 1 3l1-1zm8-1h-1v1h1v-1zm-152-3c2-1 1-2-1 0v1l1-1zm142-2h-1v1h1v-1zm-2 0-2-1-1 1h3zm14-1 1-2c0-1-4 2-3 3 0 1 1 1 2-1zm-158-2-1-1v2c0 1 1 1 1-1zm144 0-1-1-1 2c1 1 2 1 2-1zm12 0-1-1v2h1v-1zm-145-2c1-1 1-1-1-1s-2 0-2 2l1 1 2-2zm138 2-1-1-1 1h2zm0-2-1-1h-1l1 1h1zm-144-4c-2-1-2 0-1 2h2l-1-2zm-5 1h-1l-1 1h1l1-1zm156-3-1-1v2l1-1zm-152-3c2-2 2-3 0-3l-1-1h-3c-4 1-4 1-1 3l2 2c0 1 1 1 3-1zm-10-1h-1c-1 1 0 2 1 1v-1zm169 1-1-1-1 1h2zm5-2h-1l-1 1 2 1v-2zm-1-2h-2v1l2-1zm-163-2-1-1v1h1zm154-1-1-2h-2v3l3-1zm12-3c-2-2-2-1-2 1 1 3 1 3 2 1v-2zm-159 2c2-1 0-3-1-3-2 0-2 1-2 2 0 2 1 2 3 1zm-13-1-1-1c-1-1-2 1-1 2s2 0 2-1zm8-1c2-1 1-2 0-2l-5 3 5-1zm144-1 1-2c-1-2-2-2-3 0-1 3 0 3 2 2zm10 0-1-1-1 1h2zm-166-4v2-2zm12-1v-3h1c2 1 3 1 4-1v-5l-1-3-7 4-3 3c-1 2-1 3 1 5l3 2 2-2zm159 0-2-2h-3c-1 1-1 1 1 2h4zm4-4c1-2 1-2-1-1l-1 2c0 2 1 1 2-1zm-13-1c2-1 2-3 0-2h-1l-4 4c0 1 4 0 5-2zm9-2c-1-1-2 0-1 1h1v-1zm-165 0-1-1-1 1 1 1 1-1zm150 0-1-1v-1c0-2-2-2-2-1l1 2 2 1zm11-2c1-2 0-4-1-2l-1 3 2-1zm-1-5h-1l-1 2h2v-2zm-153 0h-1v1l1-1zm144-1c2-1 2-1 0-2s-2-1-2 2 0 3 2 0zm-139-2h-2l-1-1-1 2 2 1 2-2zm-4-2-1-1-1 2c1 1 2 0 2-1zm152 1-1-1-1 1h2zm-158-2-1-1-1 1 1 2 1-2zm151 0-1-1v1c-1 0-1 0 0 0h1zm7-3-1-1c-3-1-3-1-2 1s2 2 3 0zm-150-1v-2l1-1h-2l-1 2c0 2 1 2 2 1zm138-4 1-4-2-1-3 8 4-3zm-6 1-1-1v2l1-1zm11-1v-1l-1 1 1 1v-1zm-145-2v-5l-1 2 1 4v-1zm-5 0c1-1 0-2-1-2v2h1zm140-2-1-1v1l1 1v-1zm12 0v-1l-1 1h1zm-23-7-1-1c-1 1 0 3 1 2v-1zm17 0-1-1c-1 0-2 1-1 2l2-1zm-149-3h-1v1c0 1 1 1 1-1zm-6 1-1-1-1 1h2zm146-2-5-1 1 2h2l2-1zm-128 0-1-1c0-1 0-1 0 0v2l1-1zm-7-1-1-1v2l1-1zm121-2-1-1-1 1 1 1 1-1zm-7-3-1-1-1 1 1 1 1-1zm2 0-1-1-1 1 1 1 1-1zm-108-2v-1l-1 1 1 1v-1zm101 0-1-2-1 2h2zm-36-2-3-3c-2 0-1 1 0 3h3zm57-1h-1v1s0 1 0 0l1-1zm-41 0-1-1v1h1zm31 0-1-1-1 1h2zm-26-1-1-1v2l1-1zm-86-2c0-1-1-1-2 1h1l1-1zm9 1h-1v-1c0-2 0-2-2-1h-1l1 2h3zm15 0h-2l1 1 1-1zm10 0c0-2 0-2-2-1-1 1-1 2 1 2l1-1zm-17-2c-1-1-2 0-2 1l1 1 1-2zm60 1v-1l-1 1 1 1v-1zm-85-2h-1v1h1v-1zm31 1c0-2-1-2-5-1l2 1 3 1v-1zm30-1c2-1 2-2 0-1h-3c-2-1-4 1-3 2s3 1 6-1zm18 1-1-2-2 2 2 1 1-1zm31-3c1-3 1-3-3 0l-2 3c1 1 3 0 5-3zm-44 2-1-1v2l1-1zm-17 0c0-1-1-2-2-1v1h2zm-27-1-1-1-1 1 2 1v-1zm14-1c0-2 0-2-1-1l-1 2c1 1 2 0 2-1zm8 0-1-1-1 2 1 1 1-2zm57 0c0-1 0-2-1-1v2c0 1 1 1 1-1zm-74 1-1-1-1 1h2zm72-2-1-1-1 1 1 1 1-1zm-30-1h-3l1 1 2-1zm-44-1h-1l-1 1 2-1zm17 0-1-1-2 1c-1 1-1 1 1 1l2-1zm-10-1h-2l1 1 1-1zm28 0-1-1-1 1h2zm21-2h-2v1h1l1-1zm13 0c1-1 1-1-1-1l-2 2c0 1 1 1 3-1zm-65-1 3-1h-3l-4 1v1l4-1zm20 1c0-1-1-2-2-1l1 1h1zm36-1-1-1-1 2c1 1 2 0 2-1zm6-2v-1l-1 1v1l1-1zm430 234-2-8-1-9v-9l-2-29 1-40 1-17-6-9c-7-11-9-14-9-17l-1-1c-2 0-3-2-17-24-17-25-16-24-17-28 0-4-1-4-2-3s-3-1-14-18l-9-16 1-4 2-3h10a854 854 0 0 1 41 1l24 33c20 29 24 34 25 34a156 156 0 0 0 21-27c-1-1 0-1 2-2 3-1 3-1 3-3 0-4 11-21 17-27l10-8c6-2 11-3 25-3l17 1c6 2 8 4 8 7a18466 18466 0 0 0-50 77l-26 39v19l-1 20v29l1 27-2-2c-3-1-7 0-9 2s-2 3 0 3l-1 1-3-1-1-1c-1-1-1-1-3 1l-2 2h-2c-1-2-2-2-1 1l-1 2-6 1c-1 1-1 1 1 3 1 3 2 3 6-1 2-3 3-3 6-2h2c1 0 1-1-1-2-2-3-1-3 2-2 2 1 2 2 2 3 0 2 0 2 3 2s4 0 5-2c3-2 5-3 5-1h-1c-2 0-4 2-6 5s-2 4 0 4h2v-2l1 1c2 2 2 2 1 3l-22 1h-20l2-3c1-3 2-3 3-3l2-1 2 2c1 2 1 3 2 2 2-1 2-2 1-3v-3l1-4h-1l-2 2-1-2v-4l-4-1h-3v3l1 4h-3l-2 1 1 1c2 1 3 3 1 7 0 2-1 2-3 2l-4-1zm12-3h-1v2c1 2 1 2 1 0v-2zm19 2-2-1h-2l1 1h3zm-17-1h-1v1c1 1 1 0 1-1zm30-3-1-1-1 1 1 1 1-1zm-12-3h-2v1h1l1-1zm-31-5-1-1-1 1 1 1 1-1zm17 0-1-1 1 2v-1zm-17-2-1-2-1 2h2zm20-2h-1l2 2-1-2zm5 1 2-4 1-3h4l3-2 1 2 2 3 1 1 2-1 1-1 1 1 1-1c-1-1 0-2 2-3 2-2 2-3 2-6l1-4h-2c-3 1-3 1-2 3 2 1 1 2 0 3h-3 1v-5c2-2 2-2-1-3l-2 2c-2 2-2 2-1 4v3l-2-1c0-2-1-2-4 1-5 3-5 3-5 0l2-3v-2l-1-3v-6l1-3 2 1-1-3-2-19-1-38v-20l8-10c7-10 7-10 9-10h2l-2-1-1-1h2v-1l2-4 3-3 1 2h1v-2l-1-1 11-16a1328 1328 0 0 0 23-33c3-6 4-8 1-10l-2-1-4 5-6 5-1 1c0 2-4 7-7 10-2 1-3 2-1 3l-21 30-21 30-4-4a705 705 0 0 1-37-55c-11-15-18-25-21-25-1 0-3 3-3 5s3 9 7 12l28 39 25 35v30a326 326 0 0 1 0 33 125 125 0 0 1 0 30v2c-2 3 2 12 5 12h1zm15-9h2l-1 1-1-1zm-8 8-1-1-1 1 1 1 1-1zm-24-3-1-1v2c1 2 3 0 1-1zm5 2-1-1c-2 0-2 0-1 1h2zm-3-3c0-2-2-2-2-1l1 2 1-1zm8 0h-1c0-1 0-1 0 0v1l1-1zm-11-2 1-1c-2-2-4-1-4 0 0 2 0 2 3 1zm8-4c-2-2-3-1-1 1l1 1v-2zm-16-2v2-2zm36-3-1-1v2l1-1zm3-2v-2l-1 3 1-1zm9-1-1-1-1 1 1 1 1-1zm-36-1c1-1 0-1-1-1v1c0 1 1 2 1 0zm38 0-1-1v2l1-1zm-4-4-1-1-1 1h2zm-3-2-1-2c-2-2-3-2-3-1l2 5 2-2zm-5-7v-4c0-3-1-4-3-4l-1 3c0 5 2 9 4 8v-3zm-22 2-1-2-1 2h2zm3-1-1-1v3l1-2zm-6-1v-1l-1 1h1zm32-9-1-1c-1 1 0 3 1 2v-1zm5-5c1-2 1-4-1-4l-1 1v5l2-2zm-17-1-1-1-1 1 1 1 1-1zm-19-12c-1-1-1 0-1 2h1v-2zm35-2h-1v1h1v-1zm-14-2h-1v1h1v-1zm4-22c0-1 0-1 0 0l-1 1c1 1 1 1 1-1zm-38-7-1-1c-1 0-2 1-1 2s2 1 2-1zm39-4-1-1v2c1 2 2 1 1-1zm-22-2-1-1-1 1 1 1 1-1zm29 0-1-1-1 1 1 1 1-1zm-33-5h-3c-3 0-4 0-3 1s5 0 6-1zm42-2h-1l1 1v-1zm-42-1-1-1-1 1 1 1 1-1zm32-1h-1v2h1v-2zm5 1c2-1 2-1 1-2s-1-1-2 1c-1 3-1 3 1 1zm-11-3-4-3v3l-1 3 2-1 3-2zm7 0-1-1-1 1 1 1 1-1zm-3-3-1-2c1-1-1-2-1-1v3l2 1v-1zm-40-5v-1l-1 1 1 1v-1zm55-2-2-2c-1 1 1 4 1 4l1-2zm-51-2h-2l1 1 1-1zm44-3v-1l-1 1 1 1v-1zm20-7h-1v1l1-1zm-50-3-1-1-1 2c1 1 2 0 2-1zm38 1-1-1h-3l2 1h2zm-67-1v-1l-1 1v1l1-1zm82-2v-1l-1 1h1zm-81-3-3-2c0 1 0 2 1 1l1 1h1zm67-1-1-1v1s0 1 0 0h1zm-80-2h-1l1 1v-1zm88 0v-1l-1 1h1zm-40-4c1-1 0-2-1-1l-1 1h2zm-45-1v-1l-1 1 1 1v-1zm89 0-1-2-1 2h2zm0-3-1-2-1 1c0 1 1 2 2 1zm-98-4h-2l1 1 1-1zm105 0-1-1-1 1 1 1 1-1zm-112-2c0-2-2-1-2 0l1 1 1-1zm105-5h-1v2h1v-2zm11 0-1-1-1 1h2zm-89-2h-1l1 1v-1zm-20-2-1-1-1 1h2zm23-3c0-2 0-3-2-3s-2 1-1 2l1 2 2 2v-3zm44 1h-1l-1 1h2v-1zm48 0v-2l-1-1v4l1-1zm-2-4-1-1-1 2v3l1-2 1-2zm-127 2-1-1-1 1 1 1 1-1zm121 1-1-1v1h1zm-115-2h-1l1 1v-1zm115-1-1-1v2l1-1zm-80-1-1-1v2l1-1zm-44-2v-2 2c0 3 0 2 0 0zm10-2h-2v2h1l1-2zm117 2-1-1v2l1-1zm4 0v-2h-1l-1 2h2zm7-2-1 1h1v-1zm-30 0-1-2-1 2 1 1 1-1zm-102 0-1-1-1-1c-1 1 1 2 2 2s1 0 0 0zm136-2h-1v2h1v-2zm-100 1-1-1-1 1 1 1 1-1zm86 0h-1l1 1v-1zm-130-1h-2 2zm42-1-1-1-1 1 1 1 1-1zm72 0v-1l-2-1c0-1-3-3-5-3s-1 3 2 5l3 1 2-1zm33-1c-1-1-1 0-1 2h1v-2zm-158 0h-2l1 1 1-1zm9 0c0-2-2-3-3-2l2 3 1-1zm144-2v-3c-1-1-1 0-1 2l1 3v-2zm5 0 1-3-3 3h2zm-162-4c-1-1-2 0-1 1l1 1v-2zm12 2v-1l-1 1h1zm121-1-1-1v2l1-1zm26-2h-1v2h1v-2zm-149 0c-2-2-3-1-2 0l1 1h1l1 1-1-2zm7 1h-1s-1 0 0 0v1l1-1zm139-2c-1-1-2 0-2 1l2 1v-2zm-26-1-1-1-1 2 1 1 1-2zm37 1h-2l1 1 1-1zm-12-3-1-1-1 2c1 1 2 0 2-1zm13 0v-1c-1 0-2 1-1 2s1 0 1-1zm-159 0-1-2-1 2v1l2-1zm6-1-1-1s-1 0 0 0v-2h-1v3c1 2 3 2 2 0zm147 1-1-1-1 1 1 1 1-1zm12-2-1 1c-1 1 0 2 1 1v-2zm-17-2h-1v2c1 1 2 0 1-2zm-164-1-1 1 1 1v-2zm39-1-1-1-1 1h2zm140 0c1-1-1-3-2-3v3h2zm-173-1-1-1-1 1 1 1 1-1zm37-1-1-1-1 1 1 2 1-2zm-5-4c0-3 0-3-1-1v4l1-3zm-7 0-1-1v-1 3c1 1 1 2 1 0v-1zm151 0c-1-1-1 0-1 1 1 2 1 2 1 0v-1zm-162-1-1-1-1 1 1 1 1-1zm124-2h-1v1h1v-1zm41 0h-2v1h1l1-1zm-167 0v-1l-1 1 1 1v-1zm14-2c-1-2-1-2-2-1v1l1 1c-1 1 0 2 1 1v-2zm-6 0h-1l-1 1 1 1 1-2zm20 0v-1l-1 1 1 1v-1zm138 0-1-1-1 1 1 1 1-1zm-161-1-1-1-1 1 1 1 1-1zm-4-2v1c0 1 0 1 0 0v-1zm-13 0c0-2 0-2-1-1v2c1 1 1 1 1-1zm23 0v-2c-1 0-2 1-1 3 0 1 1 1 1-1zm121-3v-1l-1 1c0 1 0 2 1 1v-1zm-117-3h-1v1l1-1zM703 507v-4h7c2-1 4 0 4 2l1 2 1 1-6 1c-5 0-6-1-7-2zm8 0-4-2v2h4zm-5-2-1-1v1h1zm479 2v-4h7c3-1 5 0 4 2l1 2 1 1-6 1c-5 0-6-1-7-2zm9 0-5-2v2h5zm-6-2-1-1v1h1zm767-9 3-2v-1l1-1 3 2s-6 3-7 2zm-1242-4-1-2c1-1 4 2 4 2h-3zm483 0c-2-1-2-2-1-2l2 1c2 1 1 2-1 1zm-157-248-1-1-1-1-3-3-2-3 2-3 3-2-2-2h-4c-1 1-2 0-1-2s1-2 3-1h2l3 1h2l1-3c1-2 2-2 4-2h2l-1 2v3l3-3c5-3 5-3 7-1s3 2 7-1l9-3c37-7 68-40 77-81 2-8 2-22 1-28l-1-9v-4l-1 1c-1 1 0 1-3-7l-6-14c-5-9-5-9-3-10s1-2-2-2-3 0-5-4l-9-9-5-7c0-2-1-2-2-1s-13-7-13-8c0-2 6-13 7-12v-1l-1-1c-2-2-2-2-4 2-4 7-8 10-10 9-1-1-1-1 1-2l2-2-1-5-2-6-2 2-1 2 1 3v5c-1 1-1 1-5-2-3-2-4-2-6-1s-3 1-8-1l-9-2c-3 0-3 0-2-1l1-2-3-2c-2-1-2-1-5 1s-3 3 0 1c2-1 3 0 2 2l-8 2c-15 1-31 6-49 17-3 3-7 4-9 5l-2 1-5 6-10 12-5 5h-1c0 1 0 2 1 1v1l-3 2-3 1h3c1 0 1 1-1 5-3 6-6 14-6 20l-2 4a117 117 0 0 0 16 72l2 6c0 3 0 3 2 3 1 0 3 1 8 7 7 6 7 7 6 8-1 2-1 3 2 1l1-1 3 2 11 6c8 4 8 5 2 5-4 1-4 1-3 4v1c-2-1-2 0-2 1 0 4 0 5 2 8l1 3s-9-8-10-11c-1-1-2-3-4-3-2-2-2-2-2 0l3 4 5 10c-1 1-7-1-12-4l-9-8c-4-3-5-5-5-6 1-2-1-3-2-1l-7-6c-26-27-38-70-30-109 4-20 16-41 29-56l4-2h2l-1-2a128 128 0 0 1 62-35c9-1 9-1 9 1l1 1 1-1c0-2 1-2 13-2l20 1c13 2 28 8 28 10l2 1c3-1 14 5 24 13a124 124 0 0 1 21 172c-5 7-17 18-25 24a133 133 0 0 1-84 22zm7-10-1 3c-1 5 0 6 3 3l4-1c2 0 2 1 2 2l1 1 1-1-1-2-1-1-4-4c-2 0-3-1-3-2l2-2h5c3 1 3 0 2-3l-2-2-2 1a1210 1210 0 0 1-12 9c1 2 0 2-2 1h-2c-1 1-1 1 2 4l3 2 2-4 3-4zm20 4 1-1c-1-1-3 0-3 2-1 1 1 1 2-1zm15 0v-1l-2 1 1 1 1-1zm-21-3c-2-3-3-3-4-2l2 3c3 2 3 2 2-1zm15 0-1-2-1 2 1 2 1-2zm-3-4-1-1v1h1zm8 0-5-7v5c1 3 1 3 3 3l2-1zm4-3h-1v1l1-1zm7-2c-1-1-2 0-1 2h1v-2zm13 1c0-1-1-2-2-1 0 1 0 3 1 2l1-1zm-35-2-1-1v2c2 1 2 1 1-1zm14-1c0-2-3-4-3-3l1 3 1 1c1 1 1 1 1-1zm-92 0h-1v1l1-1zm109 0h-1l1 1v-1zm8 0c1-1-1-2-1-1v1h1zm-123-5v-1c-2-2-3 0-2 3 1 2 1 2 2 0v-2zm123 1-1-2-1 2c0 1 0 2 1 1l1-1zm-107 0h-2l2 1v-1zm97 0-1-1-1 1 1 1 1-1zm18 0-1-1v2l1-1zm-13 0-1-1-1 1h2zm-16-3-1-1-1 1 1 1 1-1zm13-2v-1l-1 3h1v-2zm-9 1h-1v1l1-1zm-110-1 1-2h-2l-2 2h3zm8-2-2-1v1l1 1 1-1zm5-1v-1l-1 1 1 1v-1zm5 0-1-1v1h1zm-13-1-3-3v2l3 1zm6-1-1-1c-1 0-2 2 0 2l1-1zm-16-2h-1l2 1-1-1zm136 0c0-1-1-2-1 0l1 1v-1zm19-2-1-1v2l1-1zm-15-3-1-1v2l1-1zm13 0-1-1c-1 1 0 2 1 2v-1zm-146-2-1-1c0-1-1-2-2-1s1 3 3 3v-1zm138 0v-1c-2 0-2 2-1 2l1-1zm-148-7-1-1-1 1h2zm152-1h-1v1l1 1v-2zm-148-3v-1l-1 1h1zm160 0-1-1v1h1zm-179-3-1-1-1 1 1 1 1-1zm187-5h-1l1 1v-1zm-176 0h-2 2zm-10-5-1-2-1 1 1 2 1-1zm188 0-1-2-1-1v2l1 1 1 1v-1zm-201-3v-1l-1 1 1 1v-1zm199-5-1-2-1 2 1 1 1-1zm-194-4-2 1h1l1-1zm199 0c-1-3-1-3-2-2s0 4 1 3l1-1zm-191-6c-1-1-2-2-2 0l2 1v-1zm-8-1h-1v2l1-2zm199-5h-1l2 1-1-1zm9 1-1-1c0-1 0 0 0 0v1h1zm-210-6-1-1v2l1-1zm221-3-1-2-1 1c0 2 1 2 2 1zm-4-5-1-1v2l1-1zm-8-5c-1-1-1 0-1 1h1v-1zm-211-1-1-1-1 2c1 1 2 0 2-1zm6 0v-1l-1 1v1l1-1zm202-5v-1l-1 1 1 2v-2zm9-1-1-1h-1l1 1h1zm-6-9h-1v1h1v-1zm-211-4h-1l1 2v-2zm-5 0-1-1-2 1 1 1 2-1zm230-2v-1l-1 1 1 1v-1zm-2-2-1-2-1 1c0 2 1 2 2 1zm-231-3-1-1-1 1 1 1 1-1zm216-1h-2l1 1 1-1zm-205-3-1-1v1h1zm202 0-1-2-1 1c0 2 1 2 2 1zm14-7-1-1-3 5 4-4zm-8 1h-1v1c1 1 1 1 1-1zm-205-5c-1-3-1-4-3-4s-2 2 0 4c2 3 4 3 3 0zm203 0c0-2-2-5-3-5l1 5h2zm-209-2-1-1-1 1 1 1 1-1zm220-1h-1l1 1v-1zm-226-4h-1c-1 1 0 2 1 1v-1zm13 1-2-2-1 1 2 2 1-1zm3-6-1-1-1 1 1 1 1-1zm-7-6-1 3 1-1v-2zm197-3h-1v1h1v-1zm-190-2-1-1v2l1-1zm192-4v-1l-1 1h1zm-195-3-1-1v2h1v-1zm7 0-1-1-1 2h1l1-1zm183 0h-2l1 1 1-1zm-170-2-1-1v2h1v-1zm178 0-2-1-1 1h3zm-179-3h-2l1 1 1-1zm163-1-1-1-1 2c1 1 2 1 2-1zm8 0v-1h-3c-1 1 0 2 1 2l2-1zm-178-3-2-1-1 2c1 1 3 1 3-1zm13 0-1 1h1v-1zm154-3c0-4-1-4-2-2v3l2 2v-3zm-7 1h-1s-1 0 0 0l1 1v-1zm-155-1h-1l-1 1h1l1-1zm-7-4-1-1-1 1 1 1 1-1zm12-2-1-1v2l1-1zm-3-4h-1l-1 2h1l1-2zm20 2v-1l-1 1 1 1v-1zm143-3-1-1-1 2c1 1 2 1 2-1zm-142-1v2-2zm134 1h-1v1l1-1zm-13-4c2-5 2-5-2-2-3 2-3 3-2 5 1 1 2 0 4-3zm18-1c-1-1-2 0-1 1l1 1v-2zm-27 0-2-1c-2 0-2 2 0 2l2-1zm-128-2c0-2-1-1-2 1l1 1 1-2zm4 0h-1c0 1 1 2 2 1l-1-1zm145 1-3-2v2h3zm-128-1-1-1v2l1-1zm110 1-1-3-1 2 2 1zm15-5h-2l1 1 1-1zm-36-3c-1-2-3-4-3-2l3 4v-2zm-107 0v-1l-1 1 1 1v-1zm117-1v-2l-1 2 1 1v-1zm22 0c-1-1-2 0-2 1h1l1-1zm-7 0-1-1-1 1 1 1 1-1zm-97-2-1-3c-2 0-3 2-1 3 1 3 2 3 2 0zm23-1c-1-1-2 0-1 1h1v-1zm8-2v-4l-2-2-2 8c0 2 0 2 2 1l2-3zm-45 0h-1l-2 1 1 1 2-2zm73 0c0-1-1-2-3-2h-2l2 2h3zm7-2c-3-3-3-2-2 2h2v-2zm-76-1c-1-1-2 1-1 1h1v-1zm16 2-1-2h-2c-1 1-1 2 1 2h2zm13-2v-3c-1-1-7 3-7 4l3 1c3 0 3 0 4-2zm8 0-1-1-1 1 1 1 1-1zm27 0h-2l1 1 1-1zm20 0h-3l1 1 2-1zm6-1h-1v1h1v-1zm-33-3c0-5-1-4-2 1l1 3 1-4zm-56-1v-1l-1 1 1 1v-1zm36 0-1-1-1 1 1 1 1-1zm11 0-1-2-1 1 1 2 1-1zm21 0-1-1v1h1zm-52-2h-1v2l1-1v-1zm8 2-1-1-1 1h2zm63-2-1-1-1 1h2zm-48-1-1-1v2l1-1zm-10-4h-4l2 1 2-1zm26 0h-3l1 1 2-1zm-4-2-1-1-1 1 1 1 1-1zm574 241h-1l-4-5-4-4 3-2 3-2-5-2c-2 1-2 1-1-2 0-2 0-2 2-1h4l2 1c1 0 2 0 3-3 1-2 1-2 3-2h3l-1 3-2 2 2-1 5-3 2-1 2 1c3 2 3 2 7-1l10-3c17-3 34-12 47-26 15-15 26-35 29-55 3-11 3-20 2-26l-1-10c0-5 0-5-1-4h-1c0-2-4-12-9-21-4-9-4-9-3-10 2-1 2-2-2-2-2 0-3 0-4-3l-8-9-7-8c0-2-1-2-2-1l-13-7 7-13v-2l-2-2-3 4c-4 7-7 10-9 9-1 0-1-1 1-2l1-7c-2-6-2-6-4-4l-2 2 1 3c2 3 2 3 1 4-2 2-2 2-6-1-3-2-4-2-5-1-2 1-3 1-9-1l-9-2h-3l1-1c2-2 2-2-1-4-3-1-3-1-5 1l-3 2c0 1 1 1 2-1 3-1 3 0 2 2l-4 1c-15 0-32 7-51 18l-10 5-2 1-6 6-9 11c-3 4-4 6-5 5-2 0-2 1-1 2 1 2 0 3-3 3l-2 1 2 1c2-1 2-1 0 3-3 5-5 13-6 19l-3 6v1l1 14 1 20c3 12 8 27 15 38 2 3 2 4 1 5-1 2 0 3 2 3 1 0 3 1 9 7s7 7 6 8c-2 2-1 3 1 1l2-1 3 2 10 6c8 4 8 5 2 6h-3l1 3c1 2 1 2-1 1s-2-1-2 3l2 6c2 1 2 3 2 3 0 1-10-8-10-10l-5-5c-1 0-2 0-1 1l3 6c5 6 5 8 2 8-5-1-11-5-19-12-4-4-5-5-4-6s-1-3-2-1c-1 0-2 0-4-3a119 119 0 0 1-35-91c0-20 3-32 12-49a114 114 0 0 1 37-43v1-1c0-3 22-15 35-19 7-3 19-6 22-6l1 1v1l1-1 14-1c12 0 22 1 31 3l17 8 1 1c1-1 4 0 8 3 22 11 40 29 51 52 12 24 15 55 9 83-3 13-9 28-17 40a123 123 0 0 1-114 53zm4-6c2-4 3-4 1-1v4c1 1 1 1 3-1l5-1 2 1c-1 1 1 2 1 1 1-1-3-5-6-7l-2-2 4-3 2 1h3c1-1 0-2-1-3l-2-2-7 4c-6 4-7 5-6 6v2l-2-1h-3c-1 1-1 1 2 3l3 3 3-4zm23 0v-1l-3 2 3-1zm15 0-1-1-1 1 1 1 1-1zm-22-3c-2-3-2-3-3-2s0 1 1 3c3 2 4 2 2-1zm15 0-1-2-1 2 1 2 1-2zm-12-4h-1l1 1v-1zm10-1h-1l-1 1 1 1 1-2zm7 1-4-7-1 3c1 4 2 5 4 5l1-1zm5-3h-1v1l1-1zm7-1c0-1-1-2-2-1 0 1 0 3 1 2l1-1zm12 0-1-1v2l1-1zm-34-1-1-2v2l2 1-1-1zm14-1v-1h-1l-1-3c-3-1-3 0-1 3 2 2 3 2 3 1zm-93-1h-1l1 1v-1zm118-1-1-1v2l1-1zm-124-2c1-3-1-6-2-3l1 4 1-1zm123-1-1-2v3c0 1 1 1 1-1zm-107-1h-1l1 2v-2zm98 1-1-1-1 1 1 1 1-1zm18 0-1-1-1 1 1 1 1-1zm-14 0v-1l-1 1h1zm-15-3-1-1c-1 0-2 1-1 2s2 0 2-1zm13-2c0-2-1-2-1 0v2c0 1 1 1 1-2zm-10 1h-1l1 1v-1zm-109-2c2-2 1-3-2 0-2 1-2 2-1 2l3-2zm7-1-1-1-1 1 1 1 1-1zm11-1-1-1v2l1-1zm-13-1-3-3v2c1 2 2 2 3 1zm5-1c1-1-1-1-2-1l1 2 1-1zm-14-2-2-1c-1 0-2 0-1 1h3zm135 0-1-1-1 1 1 1 1-1zm18-2s0-1 0 0l-1 1h1v-1zm-14-3-1-1-1 2 2-1zm13 0-1-1v2l1-1zm-146-2-2-1-1-1v2l2 1c2 0 2 0 1-1zm138 0-1-1-1 1 1 1 1-1zm-148-7-1-1-1 1c-1 1 0 1 1 1l1-1zm152-1h-1v1l1-1zm-148-3-1-1-1 1h2zm160 0-1-1v1h1zm-173-2h-1l1 1v-1zm-7-1v-1l-1 1v1l1-1zm188-5h-2l1 1 1-1zm-177 0v-1l-1 1c-1 0 0 0 0 0h1zm-10-5v-2l-1 1 1 2v-1zm188 0v-1c0-1-1-2-2-1l2 3v-1zm-200-3-1-1v1l1 1v-1zm198-6h-1v1h1v-1zm-194-3-2 1h1l1-1zm199-1-1-1-1 3c1 1 3 0 2-2zm6 1v-1l-1 1h1zm-197-7-1 1c0 2 1 3 1 1v-2zm-8 0v-1l-1 1v2l1-2zm200-6c-1 0-2 1-1 2h1v-2zm8 0-1 2h1v-2zm-209-4-1-1-1 1h2zm220-4h-1c0-1 0 0 0 0v1l1-1zm-11-9h-1v1l1-1zm-212 0c0-2-1-2-1-1l1 1s1 0 0 0zm7-1-1-1-1 1 1 1 1-1zm202-5-1-1v2h1v-1zm8-2v-1l-1 1v1l1-1zm-5-8h-1l-1 1h2v-1zm-211-3-1-1c-1 1 0 2 1 2v-1zm-6-1-1-1-2 1 2 1 1-1zm231-2v-1l-1 1v1l1-1zm-3-3c0-1-1-1-1 1 0 0 0 1 0 0l1-1zm-231-2-1-1-1 1 1 1 1-1zm216-1-1-1v2l1-1zm-204-3-1-1v1c1 2 1 1 1 0zm201-1h-1v1h1v-1zm13-4 1-3-3 5 2-2zm-7-1v1c0 1 0 1 0 0v-1zm-205-7-2-2c-3 0-2 2 0 5 2 2 2 2 3 1l-1-4zm204 2-3-5v4c1 2 3 2 3 1zm-210-2-1-1v1l1 1v-1zm221-1-1-1v1h1zm-226-4c-1-2-3 0-2 1h2v-1zm13 1-1-1h-2l2 2 1-1zm2-6v-1l-2 1 1 1 1-1zm-6-6h-1l-1 2h1l1-2zm197-3-1-1-1 1 1 1 1-1zm-190-3h-2v2h1l1-2zm12-2h-1v1l1-1zm180-1-1-2-1 2h2zm-196-3-1-1v2h1v-1zm7 1v-1l-1 1h1zm183-1h-1v1c2 0 2 0 1-1zm-169-2-1-1-1 1 1 2 1-2zm177 0-1-1-1 1h2zm-179-2-1-1v1h1zm163-2h-1c0-1 0 0 0 0v1l1-1zm8 0v-1c-2-1-3 0-2 1h2zm-178-4h-2v2l2 2v-4zm14 2-1-1-1 1 1 1 1-1zm153-4c0-4 0-4-1-2v3l1 2v-3zm-7 1h-1l1 1v-1zm-154-1c-1-1-3 0-3 1h2l1-1zm166-3-1-1v1h1zm-173-1-1-1-1 1 1 1 1-1zm12-2-1-1-1 1 1 1 1-1zm-3-4c-1-1-3 1-2 2l1-1 1-1zm20 2-1-1v2l1-1zm129 0-1-1v2l1-1zm-155-2h-1v1l1-1zm168 0-1-2v1c0 1 0 2 1 1zm-142-2v2-2zm121-3 1-4-3 2c-2 2-2 3-1 4 1 2 1 2 3-2zm-147 2h-1v1c2 0 2 0 1-1zm166-2-1-1-1 2c1 1 2 0 2-1zm-27-1-2-1-2 1h4zm-129-3-1 3 1-1v-2zm6 2-1-1c-1 0-2 0-1 1h2zm143-1-1-1c-1 0-2 0-1 2 0 1 2 1 2-1zm-128 0v-1l-1 1 1 1v-1zm110 0c0-2-2-2-2 0l2 1v-1zm15-4h-2l1 1 1-1zm-36-4c-1-2-2-3-2-1l2 4v-3zm11 0-1-2-1 2 1 1 1-1zm21 0v-1l-1 2h1v-1zm-6 0-2-1v1l1 1 1-1zm-97-2c0-2-1-2-2-2-1-1-1 0-1 1 0 2 1 3 2 3l1-2zm23-1h-2l1 1 1-1zm8-2v-4l-2-2-2 9 4-3zm-46 0c-2 0-3 1-2 2l2-1v-1zm73 0c0-1 0-2-2-2s-2 2 0 2h2zm7-2c-2-2-3-2-2 1 1 2 1 2 2 1v-2zm-76 0-1-1v1h1zm16 0-2-2-1 2c-1 1 0 1 1 1l2-1zm13-1c2-3 1-4-1-3-2 0-6 4-6 5h3c3 0 4 0 4-2zm8 0-1-1-1 1 1 1 1-1zm27 0h-1c0-1 0 0 0 0v1l1-1zm20 0v-1l-2 1h2zm7-1h-1l-1 1h1l1-1zm-34-3v-2 6-4zm-55-1v-1l-1 1h1zm35 0-1-1-1 1 1 1 1-1zm11-1-1-1-1 1 2 2v-2zm21 1v-1l-1 1 1 1v-1zm-51-2c-1-1-3 0-1 1l1 1v-2zm8 2-1-1-1 1h2zm15-3-1-1v2l1-1zm-10-4h-4l2 1 2-1zm25 0h-3l1 1 2-1zm-4-3h-1v1l1 1V2zm-308 241c-3-1-5-5-14-21-21-36-43-81-43-86 0-3-2-2-3 1a304 304 0 0 0-10 45l-2 4h2l1 2-3 11v16c-1 12-3 20-5 23-2 2-2 2-4 1l-4 1h-40c-3-2-4-3-4-7a4723 4723 0 0 1 40-229c1-3 1-3 7-3h6l4 7a3310 3310 0 0 1 78 139l5-7a1043 1043 0 0 1 29-55 1697 1697 0 0 0 41-75l5-8h6l7-1 2 2 1 4 5 22a564 564 0 0 1 15 99 969 969 0 0 1 17 109l-1 3h-9l-38 1c-1-1-2-2-2-5a1333 1333 0 0 1-19-96 5954 5954 0 0 1-55 101c-1 2-4 3-9 3l-6-1zm-110-6-1-1v2l1 1v-2zm-9 0-2-2h-2c-1 2 0 3 2 3l2-1zm35-2c0-2 2-3 2-3l1-4-1-4c-1 0-3 2-4 5-1 4-3 4-2 1v-3l-2 1c-2 1-3 4-1 8 1 2 1 2 3 2s2 0 4-3zm203 2v-1l-1 1 1 1v-1zm11-2c-1-2-2-2-2 0l2 2v-2zm4 1-1-1-1 1 1 1 1-1zm-8-1-1-2-1 2 1 1 1-1zm-238-4c-4-3-5-2-2 1 1 2 2 2 3 2l-1-3zm7 3-1-1-1 1 1 1 1-1zm205-1v-1l-1 2 1-1zm-101 0-1-1-1 1h2zm-93-2-2-1 1 1h1zm204 0v-1l-1 1h1zm-230-3c2-2 1-2-1-1l-1 2c1 2 1 2 2-1zm18 0c-1-2-1-2-2-1v2l2 1v-2zm9-3-1-1-3 4v2l2-2 2-3zm15 4v-1l-1 1h1zm182 0-1-2-1 2h2zm25 0-1-1v2l1-1zm-238-1-2-5v4l2 1zm116-2h-1l1 1v-1zm129 0v-1l-1 1h1zm-236-3 3-3c0-2 1-3 2-3v-2c-1-2 0-13 2-20 0-3 1-3 2-3l2-1-2-1h-1l2-1c1-2 2-2 3-2h1l-2-2c-3 1-4-1-2-2s2-2 1-3l-1-2h1c0 1 0 1 0 0v-2c-2 1 0-14 4-23 2-4 2-6 2-16 0-11 1-18 3-22l1-3 2-13 2-16c1-4 1-5 3-5l2-1 3 4 3 4-3 3-2 2 2 4c2 3 3 3 4 3 2-1 4-1 6 2 3 2 5 6 5 8s0 2-2 3c-4 1-4 2-3 3l4 1h4l4 7 5 8 1 3 1 4c-1 3-1 3 3 4 2 0 3 2 2 4h-3c-2-2-3-2-6-1s-3 1-3 3c1 3 2 3 4 2l2-1c1-1 1 2-1 4-3 3-3 3-1 4 2 3 5 1 7-4l3-3 1 1 1 2c-1-1-2 1-1 2h1c1-1 1 0 3 3l1 5 3 2c4 2 5 7 1 7l-5 2-1 2 11 1c2 0 2 1 2 3l1 2c2-1 2 0 0 3v3h3c1-1 1-2 3 2v4c-1 2-1 3 1 2 1-1 2-1 2 1v4l-2 4c1 2 3 1 3-2 1-2 2-2 3 1l4 3 4-2 6-8 3-6 1-2c0-2 2-3 4-2h3c1-1 1-1-1-3-2-1-2-2-1-4 1-6 5-11 14-17 5-3 6-5 1-5h-3l4-6 15-26v-2l14-24c4-6 6-9 5-10l7-15c2-1 3-1 1 3-1 3-1 4 1 4h1a774 774 0 0 0 4 25 363 363 0 0 1 9 50 262 262 0 0 1 4 28l3 5c1 4 2 15 1 19v2c1 0 3 5 4 11 0 3 1 3 4 1l5-11h-1c-1 1-2 0-3-2-2-5-3-13-3-21l-1-8v-7l-1-3v-4h1l1 1 1 1c0 1 0 1 0 0l1-1v-7c0-2 0-2-3-1l-3 1 1-2c1-1 1-1-1-2l-2-5a746 746 0 0 0-18-96c0-2-1-1-4 2l-4 4h-2c0 1 0 2 1 1l-1 3c-2 3-2 3-2 1-1-2-1-3-2-2v2l1 2-5 10a918 918 0 0 0-43 77c-2 1-2 1-2 4l-3 9c-4 9-7 12-10 13l-5 4-3 2a735 735 0 0 1-39-72l-3-3-3-5-6-12c-3-5-4-7-3-8 0-2 0-2-1-1l-5-5-5-8-2-4 2-2c2-1 2-1 0-1l-6-4-5-5-2 2c-2 1-2 1-5-2l-4-2 1 5c4 6 4 6 4 13a213 213 0 0 1-10 48c1 2-1 15-3 17v2c1 2 0 4-2 7s-3 4-1 6v4c-2 2-3 3-1 3v5l-1 2c1 2 0 11-3 25a314 314 0 0 0-3 10c-2-1-2-1-3 1-3 3-3 4-1 4 2-1 4 1 3 4 0 2 0 2-3 1s-2 2 1 4c2 2 2 2 1 5l-1 3h7zm105-32v-2 2zm3-7h2s1 0 0 0l-1 1-1-1zm-31-25c-1-1-1-1 0 0l1 1-1-1zm-50-87h1v1l-1-1zm75 150h-1l-1 1h1l1-1zm88 0c1 0 0-2-1-1l-1 1h2zm-215 0v-1l-1 1h1zm133-1-1-1-1 1 1 1 1-1zm-12-1 1-2c0-1-1-2-2-1s0 4 1 4v-1zm102 0-1-1-1 1h2zm-207-1-1-1v1l1 1v-1zm18 0-1-1-1 1 1 1 1-1zm4-2h-1c-1 0-1 0 0 0l1 2h1l-1-2zm8 2c3-1 3-2 3-3-1-4-3-8-5-9-1-2-2-2-4-1s-2 1-2-2c0-2 0-2-2-2-1 0-2 0-1 1v3l2 5 6 9 3-1zm-34-3-1-1v3l1-2zm126 1c0-1-2-2-2 0l1 1 1-1zm-16-6 1-2-6 3 2 2h2l1-3zm123 1-1-1-1 1 1 2 1-2zm10 1-1-1-1 1 1 1 1-1zm-31-2h-3c-3 0-4 0-3 1s5 0 6-1zm-111-1-1-1c-2 0-2 1-1 2l2-1zm25 0-1-1c-1 0-2 1-1 2s2 0 2-1zm-125-1c0-2 0-2-1-1-2 1-2 3 0 3l1-2zm37-6v-4l-2 2-3 2 2 2 1 3h1l1-5zm95 5-1-2c-1-1-1-1-1 1l1 2 1-1zm105 0-2-2-1 1 2 2 1-1zm-124-1v-1c-1-1-2 0-2 1h2zm98 0c0-2 0-2-1-1v1h1zm-83 0-1-1v1h1zm-28-2h-2l-1-1v-1h-1c-1 1 0 1 1 2h3zm22-1c-1-1-2 0-1 1h1v-1zm-124-1c1-3 1-3-2-2-2 1-2 2-1 3 0 1 1 1 3-1zm107-1c-1-3-3-3-3 0l1 2c2 0 2 0 2-2zm-75-1h-1c-1 2 0 3 1 1v-1zm-1-3 1-1 6-2 1-3h3c2-2-2-3-6-1-3 1-4 1-4-1 1-2 1-2-2 1-4 5-4 6-3 8l3 1 1-2zm108 2c3-1 3-1 1-3-1-2-1-2-3-1l-3 2h-1l-1 1c-1 0 2 2 3 1h4zm102-4h-1l-3 2v1c1 2 1 2 2 0l2-3zm-146 1c0-2-1-3-3-3v4c2 1 3 1 3-1zm36 1v-1l-1 1 1 1v-1zm-125-1c2-1 2-2 1-3l-2 2c-3 2-2 2 1 1zm98 0-1-2h-2l2 3 1-1zm-4-2 1-2-4 3 1 1c1 0 2 0 2-2zm135 1-4-5-3 5 2-1 3 1h2zm-145-2v-1l-1 1h1zm-90-1 3-4c1-2 1-2-1-1l-4 5h2zm136-1-2-1c-1 1 0 2 1 2l1-1zm5 0-1-1v1h1zm-41-3c-1-1-2 0-2 1h1l1-1zm5 1c1 0 0 0 0 0h-1v1l1-1zm33-1v-1l-1 1v1l1-1zm-43-3c-1-2-3-2-3-1l2 2 1 1v-2zm106 2 1-1c-1-1-3 0-3 1h2zm-54-2h-1l-1 1h2v-1zm94 1v-1l-1 1 1 1v-1zm-33-2-1-1-1 2c1 1 2 0 2-1zm-176-1h-1l-2 1c0 1 3 1 3-1zm201 0 2-2h-3c-2 0-2 0-1 2l1 2 1-2zm-222-2 1-2-7-2c-1 0-1 1 1 3 3 2 3 2 5 1zm85-2-1-1h-2l2 3 1-2zm142 1v-1l-1 1h1zm-205-5-2-7-2 1 1 1 1 4-1 3 1 2h2v-4zm197 4-1-1v2l1-1zm-216-3h-1v2h1v-2zm78 0h-1v1s0 1 0 0l1-1zm56 1c1-1 1-1-1-1l-1 1 1 1 1-1zm88-1c1-1 1-3-1-3l-1 2v1h2zm-197-3h-1c-2 0-2 1-1 2l2-2zm80 1h2c2-2 1-3-3-5l-4-1-2 1c-3 2-3 3-1 5h8zm8 0v-1c-1 0-2 1-1 2l1-1zm14 0h-1l1 1v-1zm17 1-1-1v1h1zm53-2-2 2 2-1v-1zm-201 1h-1c-1 0 0 0 0 0h1zm3-3c-1-1-1 0-1 1h1v-1zm14 1h-2l1 1 1-1zm124 0h-2l1 1 1-1zm89 0v-1l-1 1h1zm-238-2c0 1 0 2 1 1l-1-1zm154-1c2-3 2-4-1-3l-2 5c1 1 1 1 3-2zm-75 0-1-1v-2c-2 0-2 1-2 3 1 2 3 2 3 0zm42-1-2-2c-1 0-2 2 0 3 1 1 2 1 2-1zm80-1c-1-1-2 0-2 2h2v-2zm-57 0-1-1v2l1-1zm-110-1v-1l-1 1 1 1v-1zm4-1c-1-1-1 0-1 1h1v-1zm46-1c-1-2-2-2-3-1s-1 2 2 3c2 1 2 0 1-2zm46 1v-1c-2-1-4 0-4 2l4-1zm22-1 1-3-3 2c-2 1-2 2-1 2 1 2 1 2 3-1zm-149 0-1-1c-1-1-1-1-1 1h2zm106 0h-2l1 1 1-1zm6 0h-2l1 1 1-1zm91 0h-2l1 1 1-1zm-176-1-1-2-1 2h2zm171 0c1-1-2-3-3-3l1 2s1 0 0 0l1 2 1-1zm-76-1-3-4c-2-1-2-1-3 1s-1 1 2 3h4zm-82 0v-1l-1 1h1zm161 0-1-1h-1l1 1h1zm-169-1v-1c-1-2-2-1-2 0l1 2 1-1zm194-1v-1l-1 2c1 1 1 1 1-1zm-148-2c2 0 2-1 0-3l-2-1-1 2v4c1 1 1 1 1-1 1-1 1-2 2-1zm35 2c0-1-2-3-3-2l2 3 1-1zm-105-3c-1-2-4-2-4-1l2 2 2 1v-2zm17 0h-1c0 1 1 2 2 1l-1-1zm101 1-1-1-1 1 1 1 1-1zm31 0-1-1-1 1 1 1 1-1zm-55-5-1 1v3c1 1 1 1 1-1v-3zm16 3c0-2-1-2-2 0l1 1 1-1zm4-1h-2l1 1 1-1zm41 0h-1l1 1v-1zm30-2-1-2v3c1 2 2 2 1-1zm-184 0h-1v1c1 0 2 0 1-1zm30 0h-1v1l1-1zm89 0c0-2 0-2-3-1-2 1-1 2 1 2l2-1zm92 0h-1l1 1v-1zm4 0h-2l1 1 1-1zm-188 0-1-1v-1l-1-1c-2-1-3 0-4 2l3 1h3zm77 0-1-1v1h1zm115 0v-1l-1 1h1zm-224-1c0-1-2-4-3-3l1 2c0 2 1 2 2 1zm105-1v-1l-1 1h1zm-15-3h-1v1h1v-1zm-63 0-2-1v2l2-1zm12-2c0-2-1-2-3-1v3c1 1 2 1 3-2zm184 1c0-1-1-2-3-2v2c1 2 3 2 3 0zm-68 0h-1v1l1-1zm5 0c0-2-1-2-2-1l1 2 1-1zm37-1c0-1 0-1 0 0l-1 1c1 1 1 1 1-1zm-191-1-1-1h-2l-1 2 1 1 3-2zm95 1c-1-2-4-2-4-1l4 2v-1zm-6-2v-3l-4 2 4 4v-3zm-65-1-1-1v3l1-2zm-24-1-1-1-1 1v1l2-1zm79-1-1 2h1v-2zm3-2-1-1c-1 0-2 2-1 3 1 0 2 0 2-2zm107 0v-1l-1 2 1 1v-2zm25 1c0-2 0-2-1-1l1 2v-1zm-217-2h-1v1h1v-1zm26 0h-1c-1 1 0 2 1 2v-2zm24 0h-1v1h1v-1zm4 0-1-1-1 1 1 2 1-2zm33-2v-1c-2-2-2-2-2 1 0 2 0 2 2 0zm123 0h-1v1l1-1zm9 0h-1l1 1v-1zm-198-2c-1-1-2 0-1 1h1v-1zm8-1c-1-2-1-2-1 0l1 2c2 1 2 0 0-2zm-22-1-1-1v1h1zm26-1h-1v1c1 1 1 1 1-1zm59 1-1-1v2l1-1zm42 0-1-2-1 2 1 1 1-1zm-125-3h-2l1 1 1-1zm42 0h-2l1 1 1-1zm29 0-1-1v2l1-1zm94-3-1-1v3c1 3 1 1 1-2zm-150 3c1-1 3-4 2-5s-4 1-5 4v2l3-1zm109-3h-1l-1 2h2v-2zm-128-1h-1v1l1-1zm4 0-1-1-1 1h2zm201 0-1-1-2 1h3zm-131-2c-1-1-2 0-1 1h1v-1zm-44 0v-3c-1 0-3 1-3 3h3zm97-2c2-2 2-2 1-3l-3 1-2 4c-2 2 1 1 4-2zm-121 1h-1l1 1v-1zm-8-1 1-2c-1-1-3 1-3 2h2zm22 0-1-1v1h1zm50-1-1-1v2c1 1 1 1 1-1zm107-3h-3l1 1 2-1zm-151-1 1-3c-1-1-4 2-4 3 0 2 1 2 3 0zm105 0v-2c-2-1-2-1-2 1 1 2 1 2 2 1zm67-2v-1l-1 1v1l1-1zm16-1v-1l-1 2c1 1 1 1 1-1zm-216 0h-2l1 1 1-1zm73 0h-1v1l1-1zm71 0h-2l1 1 1-1zm38-1-1-1-1 1 1 1 1-1zm30 0-1-1v1h1zm-214-1h-1v1l1-1zm7 0c1 0 0 0 0 0h-1l1 1v-1zm63 0-2-1-1 1h3zm137 0-1-1-2 1h3zm-167-2-1-2-1 1 1 1h1zm-6-3h-2l1 1 1-1zm153-1h-2l1 1 1-1zm27 1-1-1v1c-1 0 0 0 0 0h1zm-189-1v-1c-2 0-2 2-1 2l1-1zm-28-1c0-1 0-2-1-1l1 1zm41-3c0-3-1-3-2-3l-2 1c0 3 1 5 3 5l1-3zm3 0c0-2 0-3-1-2v3c1 3 2 2 1-1zm138 3-1-1v1h1zm-116-2h-1l-1 1h1l1-1zm-61-1-1-1-1 1 1 1 1-1zm151-1h-1v1l1 1v-2zm31-1v-1l-1 2 1 1v-2zm-40 0-1-1v2l1-1zm-76-1c1 0 1 0 0 0h-1l1 1v-1zm3 0h-1v1l1-1zm-16-4v2-2zm127 0c0-1-1-1-2 1l1 1 1-2zm20 2-1-1-1 1h2zm-197-2-2-2v2h2zm7-2c-2-1-2 0-2 1h2v-1zm132 0h-1v2l1-1v-1zm64 1-1-1v2l1-1zm-136-3h-1v1c0 1 1 1 1-1zm112 0v-1c-1 0-2 1-1 2s1 1 1-1zm-29-2-1 2h1v-2zm-144 0-1-1-1 1 1 1 1-1zm42-2-1-1-1 1 1 1 1-1zm-52-1h-1v1l1-1zm58 0c2-1 2-3 1-3l-3 3h2zm142-1h-1c-1 1 0 2 1 2v-2zm-186 0h-1c0-1 0 0 0 0v1l1-1zm135-1-1-2-1-1v2c1 1 1 2 2 1zm15-3-1-2c-2-1-2-1 0 1 0 2 1 2 1 1zm-165-1-1-1v2l1-1zm18-1v-1l-1-1v2l2 1-1-1zm47-4h-1c-1 1 0 2 1 2v-2zm132 1-1-1-2 1c-1 1-1 1 1 1l2-1zm-151-1v-1l-1 1h1zm-34-1-1-2c0-1-1-1-1 1 0 1 1 2 2 1zm37-3h-1v2h1v-2zm11 1-1-1v2l1-1zm135 1-1-2c-1-2-2-1-1 1l2 1zm15-1-2-1c-2 0-2 1-1 2l3-1zm-5-2c0-1-1-2-2-1 0 1 0 3 1 2l1-1zm-198-1-1-1-1 2c1 1 2 1 2-1zm41-1v-1h-2l-2-1c-1 1 0 2 1 2l2 1 1-1zm124 0-1-1-1 1 1 1 1-1zm-7 0-1-1v1l1 1v-1zm34-2h-2c-1 2-1 3 1 2l1-2zm-192-3-1-4v6c1 2 1 1 1-2zm34-4-1-2v2l1 3v1-4zm11 4v-1l-1 1h1zm3-2c0-2-1-2-1-1-1 1 0 2 1 2v-1zm118 0h-1l1 1v-1zm36 1-1-1v1h1zm-10-1-1-1-1 1h2zm-161-4-3 1h1l2-1zm156-2c0-2 0-3-1-2-1 0-2 1-1 2h2zm11 0c1-1 1-2-2-2l-2 1 2 2 2-1zm-200-1-1-1c-1-1-1 0-1 1h2zm43-1h-1v2l1-2zm120-1-1-1v1h1zm14-3c5-4 4-6-1-2l-4 3-2 1h1c3 2 4 2 6-2zm-156 2v-1l-1 1v1l1-1zm184 0h-1v1l1-1zm-195-2h-1l-1 1h1l1-1zm6 0-1-1-1 1 1 1 1-1zm16 0c-1-1-2 0-2 1h1l1-1zm138 0-2-2 1 3 1-1zm-134-1-1-1v1h1zm152-1c0-2-2-3-3-2v2h3zm-168 0v-2l-1 1 1 1zm172-4-1-2v2c1 3 1 3 1 0zm-15 1h-1l1 1v-1zm-10 0h-2 2zm-156-2h-1c-1 1 0 2 1 1v-1zm10 1-1-1c-1 0-2 0-1 1l1 1 1-1zm177 0-1-2-1 2h2zm-8-2v-2c-1-1-2 1-2 2 0 2 1 1 2 0zm-166-1-1-1v1l1 1v-1zm155-4-1-1-1 1 1 1 1-1zm17 1h-1c-1 0 0 0 0 0h1zm-175-1-1-1v2l1-1zm13-1-1-1v3l1-2zm143-2c-1-2-2-1-1 1h1v-1zm-148-3c-1-1-2 0-1 1h1v-1zm-11-5-2 1-2 3 2-1 2-3zm-14 2c0-1-1-1-1 1 0 0 0 1 0 0l1-1zm183-5-1-1-2 1h3zm5-4-1-1c-2 0-2 1 0 2 1 1 1 1 1-1zm-172-3s0-1 0 0l-1 1c1 1 1 0 1-1zm168-2c2-2 1-2-3-2h-3l2 1c2 2 2 2 4 1zm-406 229h2l-1 1-1-1zm593 0h2l-1 1-1-1zm-601-3-4-3v-1l3 1h4l-1-4c-2-7-2-7-4-5l-3 2c-1 0-2 0-2-3-1-3-1-7 1-7l1 2c0 2 2 4 3 3 2-1 2-2 0-4-1-3 0-5 2-4l2 3c0 3 1 3 3 1 1-2 4-2 5-1v3c-2 2-2 2-4 1h-2v2c2 2 2 2 1 5-1 2 0 3 1 3v5c-1 0-2 0-2 2l-1 2zm595 3-3-3-3-3-1-1h4l3 1-2-10-2 1c-3 3-4 3-6-1v-5c1-2 2-3 2 0 1 2 3 4 4 3v-5l-1-3c1-1 4 1 4 2l1 3c1 1 1 1 2-1 2-2 4-2 6-1l-1 3c-2 2-2 2-3 1h-2v2l1 5v3l1 3-1 2-1 2-2 2zm-933-3a936 936 0 0 1 0-83V7l1-1 2-2h50l58 1c19 1 36 10 53 26 12 12 21 24 29 39a114 114 0 0 1-1 108 110 110 0 0 1-63 56c-13 5-18 6-27 6l-9-1c-1-2-3-2-2 0l-45 1-46-1zm50-3v1c0 1 0 1 0 0v-1zm15 1-1-2-1 1c0 1 1 2 2 1zm35-4 2-5-6 9c1 1 2 0 4-4zm-64 3 1-1c0-2 0-2-2-1l-2 2h3zm84-1h-1l1 1v-1zm-100-2h-1c0 1 0 3 1 2v-2zm72 0h-1l-2 2 3-2zm17-2c2-1 3-1 0-3l-1-2-2 3-2 3v2c0 1 1 1 2-1l3-2zm-12 1h-1v1c0 1 1 1 1-1zm29 0h-1l-1 1h2v-1zm-97 1v-1l-1 1h1zm41-4c0-3-1-3-3-1v3c2 2 3 2 3-2zm-26 2v-1l-3 1-2 1h2l3-1zm75 0-2-2v2h2zm11-2v-1l-1 1c0 1 0 2 1 1v-1zm-91-2h-2v1l1 1 1-2zm58 1-1-1-1 1 1 1 1-1zm-82-2c0-1 0-1 0 0v1-1zm18 1 3-3 2-2h25c18 0 24 0 22 1v2l2-2 4-1c4 0 6 1 6 2 0 2 3 2 5 2l2-1-2-1-3-1 3-1 3-1 2 1 2 2v-2c0-4 3-6 13-8l16-7c5-4 9-6 12-6l1-2 4-7c13-17 22-39 24-63l1-13c1-5 1-6-1-10-2-2-3-6-3-9-2-12-5-19-10-27l-5-9c-5-9-20-22-33-29l-7-3v-4l-1 1c0 2-9 2-22 0l-16-2-5-1c-1-2-4-2-4 0l-2 1-3-1c0-1-2-3-4-3v1c1 1 1 1-1 2l-15 1h-13v-2l-1 1-5 2h-5l-1 3c-2 8-3 17-2 46a1584 1584 0 0 1 0 62l1 46 2 40c5-1 9-1 9 1l-1 2v3l1-1zm24-14-4-2c-2-2-2-2-2 0l-4 1h-17v-50a712 712 0 0 1 0-72 146 146 0 0 1 1-26V38l-1-5h15a65 65 0 0 1 17 0h19l20 1 2 1c3-3 16 2 17 6l2-1h2c2 1 2 2 1 3-2 0-2 0-1 1l3 1c3-1 3-1 5 1 3 2 3 2 2 4-2 3-1 4 2 1l1-2 3 2 2 3 1 1c3-1 13 11 18 22 2 6 2 7 1 7-2 0-1 1 0 1 2 0 4 5 7 18l2 9c1 2 1 4-1 5-1 1 0 3 1 2l1 8-1 8-2-1h-3l2 3c2 1 2 2 2 6-1 9-6 21-13 33-12 18-28 31-42 33h-7c-2 2-2 2-5 0l-3-1-2 1-3 2-3 1-4-1c-1-2-1-2-2-1v1l-1 1c-2 1-24 2-28 1zm-18-3h-2v1l1 1 1-2zm55-1-1-1-1 1h2zm-12-1-1-1-1 1 1 1 1-1zm15-4-1-1-1 1 1 1 1-1zm10 1-1-1-1 1h2zm14-2h-1v2h1v-2zm-35-1-1-1-1 1 1 1 1-1zm40 0-1-1v1l1 1v-1zm-24-2-1-1-1 1 1 1 1-1zm10 0c0-1-1-2-2-1v1h2zm-7-3c0-2-2-1-2 0l1 2 1-2zm13-2c-1 0-2 1-1 2h1v-2zm5-3v-1l-1 2c1 1 1 1 1-1zm16 1-1-1v2l1-1zm-26-6c9-4 19-14 26-27 4-8 9-22 11-32l1-5-1-6c-4-10-5-21-4-19l1-1c1-1 0-2-1-3-2 0-2 0-2-2l-2-3-1-2c1 1 2 0 2-1h-2l-1-1-1-3c0-1-5-9-9-12-10-10-20-14-43-15a82 82 0 0 1-13-1l-3 1-3-1h-1s-1 0 0 0l-4 1-4-1-3 1-3 2v132h28c28 0 28 0 32-2zm22-1c-1-1-2 1-2 2h2v-2zm-5-1-1-2v2h1zm-2-3-1-1-1 2h2v-1zm-86-8-1-1-1 1 1 1 1-1zm-2-1c3-1 3-1 0-2-3 0-5 0-4 2h4zm-3-9-2 2h1l1-2zm-2-1-1-1-1 1h2zm112 0-1-1-1 1h2zm-108-8c0-2-1-2-2-1v2l2-1zm124-9-1-1c-1-1-1 0-1 1h2zm4-5-2-1 1 2 1-1zm-121-2-1-1-1 1h2zm-14-5v-1l-1 1v1l1-1zm10 0h-2l1 1 1-1zm-4-4c0-1-1-2-2-1l1 2 1-1zm125 0 2-2h-3c-4 0-4 0-3 2s2 2 4 0zm-119-3c0-2 0-2-1-1v3c0 2 1 1 1-2zm-10-2-1-1c-1 1 0 2 1 2v-1zm127 0-1-1-1 1 1 1 1-1zm-2-2v-1l-1 1 1 1v-1zm-109-5h-1v1h1v-1zm113 0v-2 3-1zm-121 0-1-1-1 1 1 1 1-1zm119-5-1-3v3c1 3 1 2 1 0zm-117 0-1-1-1 1 1 1 1-1zm120-5-1-1v2l1-1zm4-5-1-1-1 1h2zm-7-1v-1l-1 1v1l1-1zm2-6v-1l-1 1h1zm-5-8c-2-2-3-3-2 0 0 2 1 2 3 2l-1-2zm-125-1-1-1-1 1v1l2-1zm11-2v-1c-1 0-2 1-1 2l1-1zm-2-3h-1v1h1v-1zm106 1v-1l-1 1 1 1v-1zm6 0-1-1v2l1-1zm-7-5-1-1v2h1v-1zm-6 0-3-3 2 3h1zm-105-8c-2-2-3-2-3-1l3 2v-1zm106 1v-1l-1 1h1zm9-3-2-1-1 1 1 1 2-1zm-111-2-1-1-1 1 1 1 1-1zm99-1h-1c0 1 0 2 1 1v-1zm-102-2c1-1 0-1-1-2-3-1-4 0-3 2h4zm7 0c0-2 0-2-1-1l1 2v-1zm81-2h-1l1 1v-1zm6-1v-2c-1 0-2 2-1 3l1-1zm-85-3-1-1-1 1 1 1 1-1zm93 0-1-1v2l1-1zm-16-2v-1c-1 0-2 1-1 2s1 0 1-1zm-85-1-3-2c-3-1-4 0-2 2 3 2 5 2 5 0zm2-2-1-2 1 3v-1zm4 0v-1c-1 0-2 1-1 2l1-1zm85-3v-1l-1 1 1 1v-1zm-7-1c-1-2-3-2-3 0l2 1 1-1zm-57-1h-2l2 1v-1zm49 0h-1v1l1-1zm-53-2-2-1-1 1 2 1 1-1zm10-1c-1-1-2 0-1 1 0 2 0 2 1 0v-1zm48 1-1-1-1 1 1 1 1-1zm-78-1 1-3h-2v4l1-1zm46 0-1-1-1 1 1 1 1-1zm25 0c1-1-1-1-2-1l1 2 1-1zm-55-4-3 1c-1 3-1 3 1 1l2-2zm20 3-1-1v2l1-1zm-7-3 1-4c0-2-1-2-5 1-3 1-3 3-1 3l3 1c1 2 1 2 2-1zm35 1-1-1-1 2 2-1zm-31-1c0-1-1-1-2 1h1l1-1zm-23-1-1-1v1h1zm50 0-1-1v1h1zm-47-4-1-1v2l1-1zm-5-1-2-1-1 1 1 1 2-1zm-3 193v-1l-1 1 1 1v-1zm42 0-1-1v2l1-1zm7 0-1-1-1 1 1 1 1-1zm41-1h-1l-1 1-1-1-1 1c0 1 4 1 4-1zm-17 0-1-3-2-2-1 2v2l2 1h2zm4-1-3-2v2c1 2 3 2 3 0zm20-1v1h1l-1-1zm-94 0v-2l-2 2c1 2 2 1 2 0zm26-1-2 2 1-1 1-1zm-31 0h-1l-1 1h1l1-1zm-5 0-1-1v2l1-1zm103-1v-1l-1 1c0 1 0 2 1 1v-1zm-22-3c-2-3-3-2-1 2l1 1v-3zm8 2-1-1v2l1-1zm7 0-4-1c-1 1 0 2 2 2l2-1zm13-2-2-1c-1 1 0 2 1 2l1-1zm-15-1h-1l-1 1h1l1-1zm17-1v1c0 1 0 1 0 0v-1zm-3-2v-2l-2 1c-2 1-2 1-1 2 2 1 3 1 3-1zm7 0c-1-1-2-1-1 1h1v-1zm-18-3c-1-1-2-2-2 0l3 2-1-2zm15 1v-1l-1 2h1v-1zm8-1c0-1 0-3-1-2l-1 1 2 1zm-9-2-1-1-1 1h2zm7 0-1-1-1 1 1 1 1-1zm-13-3h-1v1h1v-1zm21 0-1-1h-2v1h3zm-17-1v-3l-2 4 2-1zm13-2-1-1c-1 1 0 3 1 2v-1zm-2-2-1-1-1 1 1 1 1-1zm-6-1v-1l-1 1h1zm10-1h-1v1l1-1zm-6-3-1-1v3c1 1 2 0 1-2zm8-4v-1l-1 1 1 1v-1zm-156-3c-1-1-2-1-2 1h2v-1zm162 0h-1v1l1-1zm-9-1-1-1v2l1-1zm-147-11v-1l-1 1v1l1-1zm-4-6-2 2c1 3 2 3 2 1v-3zm5-4c0-2-1-2-2-1l1 1v2l1-2zm-4-4 1-1h1l-1-1c-1 0-3 3-2 4 0 1 2 0 1-2zm5-5c-1-2-2 0-1 1l1 1v-2zm-5-1-1-1-1 1h2zm172-6-1-1-1 2 1 1 1-2zm-171-3h-1v1c1 1 1 0 1-1zm-6 0-1-1v1h1zm14 0v-1l-1 1 1 1v-1zm-5-13h-2c0 1 0 2 1 1l1-1zm170 0h-1v1h1v-1zm-177-1h-2 2zm6-4-1-1v1h1zm188-2h-1v1l1-1zm-21-1-1-2-1 2h2zm4-3v-1l-1 1 1 1v-1zm-1-2-1-1-1 1 1 1 1-1zm9-3v-1h-2l2 1zm-10-3c-1-1-2 1-1 2h1v-2zm-164-2-1 1h1v-1zm-7-4-1-3 2 8-1-5zm182-3v-1l-1 1v2l1-2zm-1-4-1-1-1 1 1 1 1-1zm-3-10c-2-1-2-1-2 1h1l1-1zm-182 0-1-1-1 1 1 1 1-1zm179-2-1-2c-2 0-2 1-1 2h2zm4-4v-1l-1 1h1zm1-3v-1c-1 0-2 1-1 2l1-1zm-2-2-1-1-1 1h2zm6 0-1-1v2l1-1zm-179-2-2-2h-4l1 1h1l2 2 2-1zm176 0-1-1-1 1 1 1 1-1zm-180-7-1-2-1 2h2zm175 0-1-1-1 1 1 1 1-1zm-187-5-1-3v7l1-4zm179 3v-1l-1 1h1zm5-3h-1l1 1v-1zm-179-8v2h1l-1-2zm164 2v-2h-1l-1 1-1 1h3zm-157-5c-1-1-1-2-2-1l1 2c1 2 1 1 1-1zm146-4c1 0 0 0 0 0h-1l1 1v-1zm-148-1v-1c-1 0-2 1-1 2s1 0 1-1zm169-1h-1c0 2 0 3 1 2v-2zm-17-1-1-1v2l1-1zm-146-6h-1l1 1v-1zm154 1v-1l-1 1h1zm-22-2v-1l-2 1h2zm20 0-1-1-1 1h2zm-17-2c0-2-1-1-2 0l1 1 1-1zm12 0v-1l-1 1 1 1v-1zm-6-3-1-2-1 1c0 1 1 2 2 1zm-8-6-1-2h-2l1 2h2zm-139-6-1-1-1 1h2zm143 0h-1l1 1v-1zm-39-3h-2l1 1 1-1zm-24 0-1-2c-1 0-2 1-1 2h2zm33-1v-1l-1 2c1 1 1 1 1-1zm-66-1h-1l1 1v-1zm62 0h-1v1l1-1zm-96-2h-2l1 1 1-1zm84 0h-1v1l1-1zm10 0v-1h-3c-1 2 1 3 3 1zm-84-3h-1v1h1v-1zm48 0c0-1-1-1-1 1h1v-1zm-13 0h-1l-1 1h1l1-1zm37 1-1-1-1 1h2zm-19-4c-1-1-2 1-2 2h2v-2zm21 1c0-1 0-2-1-1 0 1 0 3 1 2v-1zm-47-1-1 1h1v-1zm59 1-1-1v1h1zm-63-2-1-1c-1 1 0 2 1 2v-1zm-17-3h-6c-1 1-1 1 2 1l4-1zm15-1h-1c0-1 0-1 0 0v1l1-1zm266 226v-1l1 1v1l-1-1zm592 0v-1l2 1h-2zm-554-22-5-2-5-1v-1l-1 1c-1 1-15-4-23-8-9-5-13-8-15-12-1-3-1-4-3-4-6-2-16-15-16-20l-1-2c-3 1-7-12-10-31-1-12-1-21 2-33 1-4 2-5 3-4v-2c0-2 0-3 10-20l5-7 6-5c3-3 4-3 5-3 0 1 0 1 0 0l1-2c1-2 1-2 2-1s2 0 1-1l1-3c2-2 2-2 4-1 2 2 2 1 1-1-1-1-1-2 1-3l5-4 4-2 2 1 2 2v-4l2-1 13-4-2 3-2 4 4-2c2-2 3-3 2-4v-2l4-1c7-1 12-1 14 1h5c4-3 16-1 16 2 0 2 1 2 3 1h2l-3 2c-3 2-3 2-4 1-1-2-2-2-2 0s2 5 6 5l3 1c2 0 3-2 1-3v-2c1-2 1-2 3-1 2 2 3 2 2 0h2l4 1 1 3v3l1-2 2-2c2 0 10 5 16 11l7 6 1 5 1 1c1 0 9 7 11 11v6l2 2c3 1 7 13 9 27v24l-2 1c-2 0-3 1-2 2h2c2 0 2-1 0 8-4 17-17 35-36 48a452 452 0 0 1-25 14l-4 1-14 3-2-1-5-1-12 2zm21-3-1-1-1 1c-1 1-1 1 1 1l1-1zm-21 0v-2l-1-3c0-1 0-2-2-2l-2 1 2 3c2 4 2 4 3 3zm7-1c1-2 0-2-1-1l-1 1c1 2 2 1 2 0zm-25-4h-1l1 1v-1zm34-2c0-2-1-3-3-3-1 0-1 1 1 3h2zm-27-1c0-2-2-3-4-3l-3 1c-1 2 0 2 4 3l3-1zm36-1v-1l-1 2 1-1zm-30-2h-1v1l1-1zm-25-1-1-1v2l1-1zm11 0c0-1-1-3-2-2s-1 3 1 3l1-1zm40-1-1-1v2h1v-1zm-47-3c-1-4-3-6-4-5s1 6 3 8c1 2 2 0 1-3zm-6 2h-2l1 1 1-1zm-9-3-3-2c-1 1 2 4 4 4l-1-2zm6 0-2-3-1-1-1-2c-1 0-1 1 1 3 1 3 3 4 3 3zm21-1v-1l-1 1 1 1v-1zm7-1h-2l1 2 1-2zm31-3 14-4 8-6c20-15 29-30 30-52 0-14-2-24-8-35s-20-23-34-31l-4-3h-3l-11-1c-11-1-16 0-25 4l-11 3c-4 1-4 1-12 10a70 70 0 0 0-21 32c-2 8-3 15-3 24v6l4 10c14 29 24 37 54 44l9 1 13-2zm18 2-1-1v1h1zm-75-5v-1l-1 1v1l1-1zm103-4v2c0 1 0 1 0 0v-2zm-111 0h-1l2 1-1-1zm106-2c-1-1-2 0-2 2h2v-2zm-117 0c2-1 2-1 1-3h-1l-2 2-1 2 3-1zm15-3c1-1 0-2-2-2v1c1 2 1 2 2 1zm-18-6-2 1c-3 1-3 1-2 3 1 1 1 1 3-1l1-3zm11 3h-2l1 1 1-1zm-9-6c-1-2-2-2-2-1l1 1 1 2 1 1-1-3zm5-4h-1l1 1v-1zm-20-6-4-3c-1 1 2 4 3 4l1-1zm12 1-1-1v1h1zm140-1v-1l-1 1 1 1v-1zm-2-4-1-1v2l1-1zm4-8v-1l-1 1 1 1v-1zm-4-10-2-1v1l1 2 1-2zm5-4-2-2-1 1 1 2 2-1zm13-2-1-1h-1c-1 1 0 2 1 2l1-1zm-18-8h-1l1 1v-1zm6-5h-2l1 1c1 0 2 0 1-1zm7 1v-1l-1 1v1l1-1zm-8-3-2-2v2l2 1v-1zm6-4v-1l-1 1h1zm-148-2-1-1-1 1 1 1 1-1zm128-15c0-1 0-3-1-2l-1 1 2 1zm21-1-1-1c-1-1-1 1-1 2l2-1zm-164 0v-2h-1v2h1zm17-10-1-1-1 1v1l2-1zm-5-2-1-2-2-2v3l2 2 1-1zm6-2v-1l-1 1 1 2v-2zm130 0v-1l-1 1h1zm8-1-1-1c-1-1-2 1-1 2s2 0 2-1zm-147-1-1-1v1h1zm10-3-1-1v1h1zm-3-4h-2v1l2-1zm126 0-1-1v2l1-1zm-114 0-1-1v1h1zm-7-3v-1l-1 1 1 1v-1zm17-3v-1l-1 1h1zm85-2h-1v1l1-1zm8-1-2-1v1h2zm-88 0c0-1-1-3-2-2v-2c0-2-1-2-2-2h-1l1 3 2 2 1 1h1zm74 0c0-1-1-3-2-2l1 2h1zm10-2 1-1c-1-1-3 1-3 2l2-1zm-75 0-4-5-1 2c-1 1-1 2 1 2l4 1zm67-2h-1v1s0 1 0 0l1-1zm-11 0h-1v1l1-1zm16-1-1-1c-1 0-2 0-1 1h2zm-66-2c-3-2-4-2-2 1l2 1v-2zm10-1c1-1 2-2 0-2l-3 2h3zm50-1 1-3-4 3c-1 2 2 2 3 0zm-57-2-1-1v2l1-1zm20 0 3 1-2-3-1-3c2-4 1-3-3 1s-5 6-2 5l5-1zm20 0h-3c-4 0-5 1-1 1l4-1zm23 1-1-1-1 1h2zm-28-3-3-2v2h3zm21-1-2-1v2h1l1-1zm-45-3c-1-2-2 0-1 2s1 2 2 1l-1-3zm-20 1c0 1 0 2 1 1l-1-1zm11-1h-2v2l3-1-1-1zm26 2-1-1h-1l1 2 1-1zm2-5-3-1c-3 0-3 1-1 2 3 1 4 1 4-1zm-23 1-1-2h-1c-1 1 0 2 1 2h1zm10 0c2-1 2-4 1-4s-3 2-3 4h2zm-24-1-1-1-1 1 1 1 1-1zm35-3h-6 6zm567 174c-23-4-43-15-43-23 0-1 0-2-2-2-6-1-18-17-16-21v-1c-2 0-3 0-4-3-5-9-9-34-8-47 1-9 4-19 5-18l1-2c-1-2 0-4 8-17 3-7 5-9 8-11l7-6 5-4c1 1 2 0 2-2l1-3h3l3 1-2-2 1-3 5-4c4-2 4-2 6-1l2 1c1 0 2-2 1-3s3-2 9-4 7-2 5 0l-3 6 3-2a566 566 0 0 1 3-4c-1-2-1-2 4-3 7-1 11-1 14 1h4l6-1c5 0 8 0 10 3l3 1c3-1 3 0 0 2-2 2-3 2-4 1-2-2-3-1-3 1 1 3 12 7 12 4l-1-2v-2l2-1c2 2 3 2 3 0l4 1 3 3v3l1-2c0-2 1-2 2-2 4 1 10 5 15 11l7 6 2 4v2c2 0 7 5 10 9 3 3 3 6 2 8v1c6 0 13 29 11 47v6h-3c-2 1-2 1-1 2h2c2-1 1 0-1 8-5 21-20 39-44 54a1842 1842 0 0 0-16 8l-5 1-8 2h-15c-5 1-7 1-16-1zm27-1-1-1-1 2h1l1-1zm-20 0-1-3-1-3-1-1-3 1 2 3c2 3 4 5 4 3zm-10-1h-1s-1 0 0 0v1l1-1zm17-2h-2v2h1l1-2zm-26-2h-1l1 1v-1zm35-2-3-3v3h3zm-28-2-2-2c-4-1-5-1-4 1 0 2 0 2 2 3 3 0 4 0 4-2zm37-1h-1v2l1-2zm-31-1h-1l1 1v-1zm-25-1s0-1 0 0l-1 1h1v-1zm11 0v-2l-2 1c-1 1 0 2 2 1zm41-1-1-1v2l1-1zm-47-2c-1-4-2-6-4-6h-1l1 4c1 3 3 5 4 5v-3zm-7 1v-1c-1-1-2 1-1 2l1-1zm-7-1-4-4 1 3 3 1zm4-3-2-2 1 2h1zm22 0v-1l-1 1 1 1v-1zm7-1c-2-1-3 0-2 1h2v-1zm31-3 14-4 7-6c13-9 22-20 26-31 4-9 5-15 4-27 0-10 0-11-2-17-6-17-17-29-35-40l-8-6h-3l-12-1c-11-1-15 0-26 4l-10 4c-3 0-4 1-11 7a77 77 0 0 0-21 33c-2 8-3 14-3 24v8l5 11c14 28 23 35 52 42l9 1 14-2zm17 2v-1l-1 1h1zm-79-2h-2c0 1 0 2 1 1l1-1zm5-3-1-1v2l1-1zm103-3-1-1v2h1v-1zm-111-1h-2l2 1v-1zm105-1c0-1-1-2-1 0-1 0 0 2 1 1v-1zm-116-1 2-1-2-2-1-1-2 3-2 2h2l3-1zm15-3-3-2c-1 1 1 3 2 3l1-1zm-18-5-5 1v2c1 1 1 1 3-1l2-2zm10 2h-1v1l1-1zm-8-6c-2-3-3-2-1 1 1 1 1 2 2 1l-1-2zm-15-9c0-1-4-4-5-3 0 0 2 3 4 3h1zm12 0-1-1-1 1h2zm139-1v-1l-1 2c1 1 1 1 1-1zm-2-4-1-1v2l1-1zm5-3v-1l-1 1h1zm-6-16v2h1l-1-2zm6-3v-1c-2-2-2-2-2 0s2 3 2 1zm13-2c0-2-2-1-2 0l1 1 1-1zm-18-8v-1l-1 1 1 1v-1zm7-5h-2v1l2-1zm7 1-1-1v2l1-1zm-8-3-1-2h-1v2h2zm6-5h-1v1l1-1zm-149-2h-1v2h1v-2zm129-15-1-1c-1-1-2 1-1 2l2-1zm20 1c1-1 0-3-1-3v2c0 1 0 2 1 1zm-163-3h-2v2h1l1-2zm16-8v-1l-2 1c-1 1-1 1 1 1l1-1zm-6-3-1-3-1-1-1 1 1 1 1 2 1 2h2zm8-1-1-1-1 2h2v-1zm137-1-1-1-1 1 1 1 1-1zm-137-4-1-1v1h1zm-3-4h-1v1l1-1zm126 0v-1l-1 1 1 1v-1zm-120-3-1-1v2l1-1zm17-3-1-1-1 1h2zm84-2h-1l1 1v-1zm8-2-2-1c-1 1-1 1 1 2 1 1 2 0 1-1zm-108 0v-1l-1 1 1 1v-1zm7 0-1-1v2l1-1zm13 0-1-1-1-2-1-2c-2 0-2 2 0 3l1 2 1 1 1-1zm74 0-1-1v1h1zm11-1c0-2 0-2-2 0v1l2-1zm-76 0-1-3-2-2-2 2c-1 1-1 1 1 2 3 2 4 2 4 1zm67-1-1-1v1h1zm16 0v-1l-1 1v1l1-1zm-26-1h-1v1l1-1zm16-1-2-1c-1 0-2 0-1 1h3zm-66-1-3-2 2 3 1-1zm10-3 1-1-4 2c-1 2 1 1 3-1zm49 0 1-2-3 2c0 2 2 2 2 0zm-57-2v-1l-1 1 1 1v-1zm20 0 3 1-1-3-1-4c2-3 0-3-3 2-5 4-5 6-2 4h4zm20 0h-2c-4 0-5 1-1 1l3-1zm23 0-1-1-1 2c1 1 2 0 2-1zm-75-1-1-1v1h1zm48-1c0-1-3-3-4-2l1 2h3zm20 0-1-2v2h1zm-43-1c0-2-3-4-3-3l2 4 1-1zm-21-2v1-1zm11-1h-3l-1 1h4v-1zm25 2c0-1-1-2-2-1l2 2v-1zm2-5-3-1c-3 0-3 1 0 2 2 2 3 1 3-1zm-23 0h-2l1 1 1-1zm11 0c2-1 2-3 0-3l-3 4 3-1zm-25-1-1 1 1 1v-2zm35-2h-6 6z"/><path fill="#1dd9fe" d="M127 476c-6-2-11-6-13-11-2-3-2-11-1-14 1-4 17-30 19-33 7-7 20-7 28-1 4 5 7 13 6 19-1 4-17 31-20 34-3 4-8 6-13 6h-6zm97-67a156 156 0 0 1 9-307h12c10 2 16 10 16 19 0 11-7 18-19 20a112 112 0 0 0-84 52 116 116 0 0 0 74 177c11 2 13 3 17 8 5 6 6 15 2 22-4 9-13 12-27 9zM145 95c-5-2-7-5-17-20l-9-17V45c1-4 5-8 9-10 5-3 12-3 17-1l6 4c3 3 19 30 20 34 3 9-2 18-11 22-4 2-10 2-15 1z"/><path fill="#43b7fe" d="M281 510c-11-2-18-10-21-19-3-10-4-6 25-87l26-73-14-1c-11 0-15 0-20-2a59 59 0 0 1-41-79l56-97a1161029 1161029 0 0 0 68-115c6-5 2-5 73-5h63l5 2c4 2 7 6 9 11s2 10 0 15a6969 6969 0 0 1-81 134l23 1c24 0 26 0 36 5 20 11 29 38 19 59-4 9-15 22-21 26-3 1-4 2-9 2l-9-2c-6-4-10-10-10-17s1-10 8-18 8-10 4-14l-1-2h-40c-45 0-42 0-48-5-3-3-5-7-6-11-2-8-3-6 41-78l40-68h-72l-53 92-57 97c-2 5-3 5-2 10 0 8 4 14 11 18l4 2h58l4 2c3 2 6 5 8 9 2 2 2 4 2 8 0 6 0 6-22 67l-22 61a2416 2416 0 0 0 84-107c9-9 25-6 31 6 2 4 2 11 0 16-1 3-110 144-114 148s-8 6-13 8-7 2-12 2l-10-1z"/><path fill="#11e3fe" d="M45 393c-11-4-16-15-12-26 2-5 6-8 18-16 18-9 20-10 25-10 8 0 14 3 18 10 2 3 2 4 2 9s-1 6-2 9l-4 5c-3 3-29 17-33 19H45zm29-226c-3-1-29-16-33-20-8-7-8-20-1-28 5-4 13-6 18-5s31 16 34 20c14 13 1 36-18 33z"/><path fill="#36c3fe" d="M250 69c-5-1-10-5-13-10l-1-24 1-23c3-4 6-7 10-9 3-2 4-2 8-2 7 0 11 2 15 7 5 5 5 7 5 28l-1 21c-2 5-6 9-10 11-3 2-11 2-14 1z"/><path fill="#0be9fe" d="M14 275c-8-2-14-10-14-19 0-6 2-10 6-14 6-5 7-5 29-5 21 0 23 0 28 5 10 10 7 27-6 33l-21 1-22-1z"/></svg>