<svg xmlns="http://www.w3.org/2000/svg" viewBox="0 0 1918 256"><path fill="#005db9" d="M844.1 253.7A128.8 128.8 0 0 0 945 153.2a116 116 0 0 0 1.6-25.3c0-19.5-1-26-6-40.8A128.6 128.6 0 0 0 860 6.4 115.9 115.9 0 0 0 819.1 0c-35.6 0-65.5 12.4-90.6 37.7a125.2 125.2 0 0 0-35.2 64.9c-2.3 10.7-2.3 39.9 0 50.4a125 125 0 0 0 35.2 65.1c22 22 44 32.7 78.6 37.6 6 .9 28.8-.4 37-2zM800.5 218a93.2 93.2 0 0 1-71.3-69.3 75 75 0 0 1-2-21.3c.1-12.1.4-15 2.5-22.7a92.7 92.7 0 0 1 114.3-66c31.2 8.6 56 34 64.6 66.3 2 7.4 2.3 10.4 2.3 22.4 0 11.2-.3 15-1.8 21.3-9.1 36-37.3 62.9-73 69.6a108 108 0 0 1-35.6-.3zm-550-8.9c39-9.7 61.7-42.9 57.8-84.4-3.6-37.9-31-64.3-71.3-68.4-28-2.8-57.5 8.6-73 28.2a84 84 0 0 0-5 91.1 77.2 77.2 0 0 0 34.7 29.4c4.8 2 16.2 5.2 21.9 6.2 6.4 1 27.6-.3 35-2zm-36-37.7A37.2 37.2 0 0 1 192 148a60.2 60.2 0 0 1-.8-26c3.9-14.5 15.9-25 31.4-27.6 11-1.8 24.5 2.2 32.9 10a42.5 42.5 0 0 1 11.2 35.5c-2.5 16.4-11 27-25.3 32a46.1 46.1 0 0 1-27-.4zM587 209.7a75 75 0 0 0 57.6-55.6c2.5-9 2.2-32.6-.4-42.2-7.9-28.5-29.6-48.1-60.4-54.3-9-1.9-27-1.8-35.6 0-17.5 3.9-29 10-40.5 21.4-16 16-22.4 33.4-21.5 58.2.3 6.7 1.1 14.4 1.9 17.3a73.1 73.1 0 0 0 25.5 40.1 87.2 87.2 0 0 0 36.6 16c8 1.5 29 1 36.8-1zm-32.2-37.3a39.9 39.9 0 0 1-22.5-18.3c-4.3-9-5.6-19.4-3.7-29.3a38.2 38.2 0 0 1 43.8-30.3c20 3.2 32.5 18.4 32.5 39.2 0 17.1-7.6 29.9-22 36.6-5.3 2.6-6.9 2.9-15.3 3a46 46 0 0 1-12.8-.9zm873 35a66.1 66.1 0 0 0 50.6-53.5l.6-3.4h-40l-2.3 5.4c-3 6.8-10 13.3-17 16-4.2 1.7-7 2.1-15 2.1-9.1 0-10 0-15.7-2.7a40.5 40.5 0 0 1-22.9-38 48 48 0 0 1 5.6-22.9c3.2-5.4 10.4-12 16.5-14.8 4.6-2.2 6-2.3 16.6-2.3 10.6 0 12 .1 16.5 2.3 6.1 2.9 11.5 8 14.6 14l2.2 4.5h20c14 0 20-.3 20-1 0-3-3.3-12.8-6.2-19-14.6-30-55-44.7-93.1-33.6-31.2 9-50.7 32-54.4 64.2a77.6 77.6 0 0 0 16.4 58c11 13.4 30 23.6 49.8 26.8 1.4.2 8.8.3 16.4.1 10.7-.2 15.3-.7 20.9-2.2zm-1350.4-.3c24-5.7 40-18 50.1-38.3a72.5 72.5 0 0 0 7.9-35.1c0-37-22-65.3-57.2-73.4-5.5-1.2-12.7-1.6-42.4-1.9L.2 58v151.4l35.7-.5c28-.4 37-.8 41.6-1.8zM41 133V93.4l12.7.6c7.2.3 14.6 1 17.1 1.9a37.3 37.3 0 0 1 23.1 24c2.5 7.5 2.3 21.1-.4 28.4-4 11.1-11.7 19.2-21.8 22.7-4 1.4-7.3 1.8-17.8 1.8H41Zm321.6 43v-33l16.2 16.1c12.3 12.3 16.7 16.2 18.4 16.2 1.7 0 6.2-4 18.9-16.6l16.6-16.7v67.1h40.9v-151h-14.8l-30.6 32c-16.8 17.5-30.8 32-31.1 32-.3 0-14-14.5-30.6-32l-30-32h-15.7v151h41.8zm729.2 15.3v-17.8h-59.5v-24.8h52.4V114h-52.4V93.7h57.8V58.2H991.3v151h100.4zm109.2 0v-17.8h-56l-.1-57.5-.3-57.5h-40.8l-.3 74.2c0 40.8 0 74.6.2 75.3.4.8 11 1 48.9 1h48.4zm112.8 0v-17.8h-59.5v-24.8h53.3V114h-53.3V93.7h57.8V58.2h-98.6v151H1313.8zm255.8-40V93.7h38.2V59.1h-117.2v34.6h38.2v115.5h40.8zm88 35.6v-22.2h20.1l13.4 22 13.3 22 22.8.2 22.8.2V206c0-2.7-2.7-7.4-15.2-26.8l-15.2-23.5 2-1.4c4.5-3 11.3-11 14.4-16.9a50.6 50.6 0 0 0 6.2-26.4 51 51 0 0 0-35.8-49.4c-5.6-2-6.5-2-47.7-2.3l-42-.3v150.2h40.9zm0-75V93.6h15.7c13.6 0 16.3.3 19.5 1.7 9.4 4.3 12.2 19 5.4 28.7-3.6 5.2-6.9 6-24.6 6h-16zm146 87.8 4.3-9.3h61.7l4.4 9.3 4.3 9.4h39.5v-3.6c0-2.8-7-18-35.2-76.4l-35.2-72.9-8.9.3-8.8.2-35 72.7c-27.8 57.8-35 73.4-35 76.2v3.5h39.6zM1822 156c2.8-7.3 16.4-36.3 16.9-35.9.6.7 16.7 35.7 16.7 36.3 0 .2-7.6.4-16.9.4-9.4 0-16.8-.4-16.7-.8z"/><path fill="#fee122" d="m857.3 113.7-27.5-1L855.5 59h-59.2l-17 81.5 24.7 1-7.3 61.3z"/></svg>