<svg xmlns="http://www.w3.org/2000/svg" width="1024" height="599" viewBox="0 0 1024 599"><path fill="#cd0a14" d="M1015.41 597.9c-7.06-.63-8.58-1.6-11.84-7.76-1.03-2.01-5.4-9.49-9.69-16.76-4.3-7.2-10.66-18.14-14.2-24.23a759.11 759.11 0 0 0-13.5-22.16 1413.5 1413.5 0 0 1-16.61-27c-5.2-8.73-11.5-19.11-13.99-23.06-2.5-3.88-4.43-7.27-4.22-7.41.48-.55 16.13-.7 16.96-.14.42.28 4.15 6.3 8.24 13.43 4.08 7.2 10.8 18.5 14.82 25.14 4.08 6.65 11.08 18.35 15.58 25.96 4.5 7.62 11.97 20.22 16.61 28.05 9.49 15.78 20.43 35.24 20.43 36.14 0 .28-.55.48-1.18.48-.69-.06-4.01-.34-7.4-.69zM4.3 597.4l-4.3-.2 3.32-5.33c3.53-5.61 11.22-18.42 23.61-39.26a649.26 649.26 0 0 1 10.11-16.62c2.5-3.95 20.43-33.86 33.8-56.43l6.09-10.39h8.24c6.3 0 8.24.21 8.24.9 0 .49-4.09 7.76-9.07 16.14-4.99 8.3-10.74 18.14-12.75 21.74-2 3.6-7.27 12.19-11.7 19.04-8.72 13.57-10.24 16.06-19.8 32.54a535.48 535.48 0 0 1-11.36 18.7 261.72 261.72 0 0 0-7.96 13.02c-1.66 2.97-3.32 5.53-3.8 5.67-1.4.42-8.25.7-12.68.49zM26.66 596.44c.97-3.26 6.71-13.09 8.24-14.27 1.59-1.24 16.68-1.31 477.55-1.24 418.98.07 476.17.2 477.97 1.1 1.45.77 2.9 2.64 4.98 6.58 1.6 3.05 3.12 6.44 3.33 7.48l.48 1.87H26.17ZM44.94 566.11c0-1.87 13.43-25.06 16.34-28.18l2.14-2.28h899.72l1.66 1.8c2.15 2.28 16.27 27.41 16.27 28.87 0 .28-210.63.48-468.07.48-300.08 0-468.06-.2-468.06-.69zM120.96 517.16c-25.48-.14-46.25-.28-46.25-.42 0-.97 9.63-17.86 16-28.18l9.9-16.06 1.87-3.33h13.29c557.94-.07 806.1.14 807 .63 1.45.76 28.87 46.39 28.25 46.94-.48.49-746.9.83-830.06.42zM870.77 432.48c-2.42-.76-7.62-3.26-11.56-5.61-13.16-7.76-26.1-16-46.4-29.36a1290.6 1290.6 0 0 0-16.06-10.46c-4.08-2.49-4.5-3.46-2.49-5.67 1.38-1.46 2-1.6 4.85-1.32 2.9.35 9.62 3.4 12.18 5.47 1.39 1.18 2.91-.76 11.77-15.5 4.09-6.8 13.5-21.61 20.91-32.9 22.02-33.72 28.6-43.9 32.27-49.57 1.87-2.98 4.36-6.72 5.54-8.31a153.8 153.8 0 0 0 6.1-9.49c5.32-8.8 5.19-9.9-1.32-13.15-4.78-2.43-4.85-2.57-5.06-5.47-.27-3.67.76-5.06 3.26-4.44 5.4 1.32 12.4 5.54 52.07 31.3 4.5 2.9 11.35 7.34 15.23 9.9 7.62 4.92 13.09 9.21 13.09 10.32 0 .41-1.11 1.18-2.5 1.73-2.97 1.25-5.26.7-11.84-2.9-2.35-1.32-4.57-2.36-4.98-2.36-.42 0-1.87 2.21-3.26 4.98-1.38 2.7-4.36 7.62-6.64 10.87-4.57 6.51-11.01 16.28-24.1 36.42a4505.29 4505.29 0 0 0-26.45 41.2 565.8 565.8 0 0 1-13.85 21.05c-4.5 6.51-6.1 9.35-5.81 10.39.2.83 2.83 3.04 6.37 5.26 6.02 3.8 8.37 6.23 7.54 7.62-.48.83-6.09.83-8.86 0zM178.99 422.16c-4.09-2.7-3.74-4.02 1.31-5.6a46.5 46.5 0 0 0 6.1-2.57c2.56-1.25 3.25-1.94 3.25-3.4 0-2.07-2.08-6.36-5.2-10.66-1.24-1.73-3.8-5.74-5.67-9a2545.25 2545.25 0 0 0-19.39-32.54 9385.9 9385.9 0 0 1-16.13-27 987.4 987.4 0 0 0-14.61-24.24c-1.8-2.84-5.4-8.8-7.9-13.15-2.56-4.37-5.53-8.87-6.64-10.04l-2.15-2.08-2.14 2.7c-1.25 1.45-4.3 5.2-6.86 8.3-10.94 13.16-13.22 24.86-8.58 43 2.76 10.6 2.35 12.05-3.4 12.26-3.25.14-5.12-1.73-9.48-9.48-2.01-3.4-5.06-8.38-6.79-11.08-1.8-2.63-5.2-8.24-7.55-12.47-2.42-4.15-4.64-7.89-4.98-8.24-1.18-1.31-.63-3.04 1.66-4.7 1.18-.97 7.69-4.92 14.33-8.8 6.65-3.94 17.24-10.18 23.54-13.92 6.3-3.73 14.4-8.44 18-10.52 3.6-2.08 14.06-8.3 23.2-13.85 9.14-5.54 22.71-13.5 30.12-17.8 7.41-4.29 16-9.34 19.04-11.14 6.58-3.95 13.44-7.4 17.24-8.72 2.43-.9 2.84-.84 3.95.13.7.63 4.22 6.3 7.96 12.67a323.6 323.6 0 0 0 9.14 14.96c4.99 7.06 9.42 18.76 7.27 19.11-5.26.76-5.05.83-15.92-7.68-9.28-7.34-13.36-9.98-18.97-12.12-8.45-3.33-18.42-1.8-33.3 5.2-1.88.9-2.64 3.04-1.32 3.6.34.13 3.11 4.42 6.16 9.55 2.98 5.12 8.3 14.05 11.7 19.73 3.46 5.75 9.9 16.62 14.4 24.23 14.27 24.3 29.98 50.07 39.54 64.81 3.8 5.96 5.68 6.44 12.12 3.4 5.47-2.56 7.13-2.63 9.27-.28 2.98 3.19 3.81 2.35-11.77 11.36-10.31 5.95-35.1 20.9-42.93 25.96-6.3 4.02-21.74 11.43-23.81 11.43-.97 0-2.7-.63-3.81-1.32zM277.24 364c-1.25-2.15 1.38-5.75 6.02-8.1 3.53-1.8 3.19-1.04 6.03-12.4 1.38-5.47 3.18-17.58 5.26-35.31.55-4.92 1.52-12.12 2.08-15.93a4175 4175 0 0 0 7.61-59.89c3.74-32.13 5.68-44.66 7-45.77.55-.48 2.63-.83 4.64-.76 2.56.07 4.63-.41 7.06-1.6 4.3-2.14 10.38-2.9 13.7-1.72 2.64.83 5.06 3.74 17.46 21.12 2.97 4.22 10.18 13.84 15.92 21.46 5.82 7.62 18.28 24.3 27.7 37.04a2336.4 2336.4 0 0 0 24.23 32.2c3.88 4.99 9.63 12.46 12.74 16.62 3.19 4.22 6.23 7.9 6.79 8.24.62.35 1.73.28 2.84-.2 2.28-1.05 9.76-2.16 18.62-2.7 3.88-.29 7.2-.7 7.41-.9.2-.22.42-1.81.49-3.47l5.88-135.09c.35-16.62.21-17.24-2.7-14.54-1.87 1.66-12.74 1.73-13.85.07-.55-.9-.41-1.66.42-2.98l1.18-1.8h12.67c6.92 0 15.44.35 18.83.76 3.46.42 11.56.9 18 1.04 79.5 1.66 96.8 4.64 111.27 19.11 5.06 5.06 7.55 9 10.25 15.93 3.74 9.62 2.29 19.66-3.74 27.14-5.33 6.5-17.1 13.57-27.76 16.62-9.49 2.63-9.63 3.74-.7 5.54 8.1 1.59 16.14 5.81 21.54 11.14 7 7.07 7.2 7.69 7.2 23 0 7.33-.49 16.2-1.04 20.28-1.52 11.08-1.39 16.9.48 19.39.97 1.38 2.15 2.07 3.26 2.07 2.28 0 5.88-2.21 7.4-4.5 1.32-2 4.37-3.8 6.38-3.8 1.87 0 4.98 2.63 4.98 4.22 0 .76-1.45 2.9-3.25 4.85-4.71 5.05-11.01 7.89-21.54 9.69-8.3 1.45-8.72 1.45-17.3.35-12.81-1.74-19.25-3.4-24.72-6.51a29.23 29.23 0 0 1-12.95-14.89c-1.73-4.7-1.87-9-1.18-35.8.2-10.24.07-12.67-.97-15.92-1.87-5.89-4.01-9.14-7.4-11.22-2.98-1.8-3.75-1.94-13.72-2.42l-10.52-.42v7.2c0 3.95-.49 11.29-1.04 16.2a180.17 180.17 0 0 0-1.04 16.28c0 4.01-.48 12.74-1.1 19.45-1.53 15.44-1.32 16.2 4.42 16.83 3.33.35 8.1-.07 12.6-1.1 2.08-.5 1.53 2.7-.96 5.32-2.36 2.5-2.56 2.56-6.1 2.15-8.3-.97-51.23-3.19-73.95-3.8-14.4-.42-19.45-.36-20.77.27-.97.48-6.1 1.87-11.42 3.04a258.6 258.6 0 0 0-12.81 3.26c-9.42 2.9-55.19 14.12-57.61 14.12-.9 0-.14-4.01 1.04-5.4.41-.55 2.5-1.8 4.5-2.63 1.94-.9 3.6-2 3.6-2.42 0-.97-.97-2.36-12.12-16.97-4.91-6.5-10.38-13.77-12.05-16.13-1.73-2.35-3.66-4.64-4.36-4.98-.83-.42-2.9-.21-6.58.69-33.44 8.3-33.85 8.45-34.4 11.35-1.32 6.65-3.6 42.59-2.7 43.49.34.34 4.08.27 8.65-.07 4.5-.35 8.58-.49 9.2-.28.63.28 1.04 1.32 1.04 2.77 0 2.84-.96 3.4-8.1 4.85a413.1 413.1 0 0 0-23.75 5.54c-8.44 2.21-13.5 2.84-14.19 1.73zm39.4-70.42c14.2-3.25 24.79-6.1 25.96-6.92.14-.14-1.17-2.01-2.84-4.23a845 845 0 0 1-8.24-10.94c-9.97-13.36-13.57-18-15.37-19.66l-1.73-1.6-.41 2.98c-.21 1.66-1.04 8.52-1.8 15.17-.77 6.64-1.73 14.6-2.08 17.58-.97 7.62-.9 8.73.41 8.73.63 0 3.33-.49 6.1-1.11zm235.76-57.12c8.45-1.32 14.82-6.1 17.38-12.95 6.1-16.34 5.96-31.23-.41-44.73-3.54-7.41-8.17-10.11-19.8-11.5-7.62-.9-9.42-.62-9.84 1.6-.2.83-.48 8.51-.7 17.1-.27 8.59-.61 23.61-.9 33.37l-.4 17.73 2 .28c2.56.27 7 0 12.67-.9zM723.22 357.7a31 31 0 0 0-8.45-2.77c-8.38-1.32-7.75.34-9.62-25.28-.97-12.18-2.15-29.28-2.77-38.08a1735.9 1735.9 0 0 0-1.73-23.89c-.35-4.36-1.46-18.41-2.43-31.15-3.25-44.18-3.94-51.59-4.84-53.32-.49-.97-2.5-3.18-4.44-4.92-3.94-3.6-4.7-6.16-1.87-6.16 3.47 0 16.35 3.88 47.5 14.33 29.78 9.98 36 12.2 36 13.02 0 .49-6.22 3.12-10.17 4.23l-3.67 1.03V208c0 1.8.35 7.2.7 12.05.34 4.84.96 16.27 1.38 25.27.41 9.07 1.18 22.92 1.73 30.81.55 7.9 1.04 16.41 1.04 18.83 0 2.5.34 4.71.69 4.92.42.2.7 1.04.7 1.8 0 .83.27 1.32.62 1.18.27-.07 4.77-5.2 9.83-11.29 5.12-6.1 14.12-16.75 20-23.6 16-18.7 21.54-25.56 24.04-29.57 2.28-3.67 4.01-10.11 3.25-12.4-.42-1.25-4.99-4.01-6.72-4.01-1.87 0-3.94-2.77-3.94-5.2 0-1.31.34-2.56.69-2.77 2.28-1.45 39.12 10.11 47.01 14.75l3.19 1.87-3.12.55c-1.73.35-6.16.63-9.97.77l-6.78.13-5.34 5.47c-2.9 3.05-7.89 8.66-11.14 12.54-3.26 3.8-8.45 9.9-11.57 13.5-3.11 3.6-10.73 12.46-16.96 19.73s-15.51 18-20.63 23.89a1259.6 1259.6 0 0 0-18.35 21.4c-8.1 9.55-22.64 25.48-27.15 29.63-2.07 1.87-2.49 1.87-6.71-.55zM643.53 41.15a39.27 39.27 0 1 1-78.54 0 39.27 39.27 0 0 1 78.54 0zM635.5 40.98a31.34 31.34 0 1 0-62.67 0 31.34 31.34 0 0 0 62.67 0zM854.5 80.73c-7.06-1.87-10.66-3.6-14.26-6.92-4.44-4.09-7.27-8.86-8.31-13.99-.97-4.84-.56-7.68 1.24-8.03 2.29-.48 4.36 1.8 6.37 6.93 3.05 8.03 8.93 13.01 17.66 15.02 10.39 2.42 22.64-1.87 26.17-9.07 1.94-4.02 1.94-9.62.07-12.26-1.87-2.7-8.38-5.4-17.52-7.33-9.07-1.94-19.94-5.4-23.12-7.34-1.25-.77-3.4-2.98-4.78-4.85-2.29-3.12-2.63-4.09-2.9-8.59-.5-7.54.75-11.7 4.63-15.58 1.8-1.8 5.4-4.29 7.96-5.54 4.16-2.07 5.61-2.42 11.22-2.63 7.4-.34 11.22.42 17.24 3.47 5.82 2.9 10.04 7.27 13.57 14.12 2.84 5.26 2.98 5.82 1.94 6.86-1.52 1.52-6.37 2.14-7.34.96-.41-.55-1.24-2.76-1.87-4.91-1.52-5.33-4.22-7.9-11.84-11.22-5.68-2.42-6.58-2.63-11.08-2.35-3.46.27-5.95.9-8.65 2.28-6.86 3.4-9 6.37-9 12.26 0 4.91 1.8 8.1 5.6 10.1 3.26 1.6 12.75 4.1 23.13 5.96 18.7 3.46 26.45 14.4 20.08 28.53-3.32 7.48-8.86 11.63-18.9 14.12-6.65 1.67-10.8 1.67-17.31 0zM204.68 80.18c-.63-.9 1.31-5.47 3.87-9.28 1.32-2 6.51-9.2 11.43-16 8.72-11.83 10.6-15.3 9.35-17.3-.49-.83-8.6-12.4-16.28-23.2-3.67-5.2-6.44-11.35-5.81-12.95.34-.97.62-.97 2.97 0 1.39.63 3.19 1.6 3.88 2.29 1.87 1.73 9.77 12.25 16.41 22.09 3.12 4.7 5.89 8.51 6.16 8.44.21 0 2.36-3.04 4.78-6.71 5.68-8.73 11.29-16.97 14.47-21.12 2.43-3.26 6.58-6.02 8.94-6.02 2.63 0-.97 9-6.93 17.3-1.8 2.5-5.75 8.18-8.93 12.68a306.08 306.08 0 0 1-6.37 9.14c-1.04 1.52.9 4.7 9 14.88 8.45 10.6 15.93 21.54 16.69 24.51.48 2.01.48 2.01-2.22 1.6a13.47 13.47 0 0 1-4.43-1.73c-1.52-1.11-13.3-16.48-21.26-27.84-1.66-2.28-3.39-4.15-3.8-4.15-.49 0-2.7 2.77-4.92 6.09-5.68 8.59-17.52 24.44-19.6 26.31-1.73 1.52-6.71 2.22-7.4.97zM139.45 79.42l-6.23-.42.14-37.39.14-37.39 1.52-1.17c1.31-1.11 3.67-1.25 27.07-1.25h25.7l-.5 3.6c-.27 2-.69 3.8-.82 4.02-.21.2-10.6.48-23 .69l-22.63.34-.21 12.6c-.14 12.26-.14 12.6 1.31 13.37 1.04.55 7.34.76 21.33.55l19.8-.2.21 3.32.2 3.25H140.5V57.2c0 13.02.07 13.85 1.38 14.54.83.42 9.14.7 22.92.7 18.07-.07 21.81.13 22.64.96 1.25 1.25.63 4.3-1.17 5.2-1.53.83-37.8 1.52-46.8.83zM310.61 77.48c-.27-1.45-.48-16.96-.48-34.48 0-17.45-.28-32.06-.56-32.27-.27-.28-5.67-.62-11.97-.76-8.45-.14-11.77-.48-12.6-1.18-1.39-1.1-1.53-4.98-.35-6.16.62-.62 7.75-.83 28.18-.76 15.1.07 28.18.28 29.15.55 1.38.35 1.8.97 1.94 2.84.28 4.5.2 4.5-13.64 4.36-10.39-.13-12.53 0-13.3.9-.69.84-.76 8.04-.34 35.25l.48 34.27h-3.04c-3.05 0-3.12-.07-3.47-2.56zM514.6 79.56c-.7-.28-.9-7.9-.9-34.9V10.11l-7.07-.07a196.4 196.4 0 0 1-12.32-.55l-5.2-.42-.2-2.5c-.42-4.5-1.11-4.42 30.6-4.42h28.46l.2 2.77c.29 4.84.35 4.84-13.84 4.84h-12.67l-.2 35.18-.15 35.1-2.97-.07c-1.6 0-3.33-.2-3.74-.41zM758.74 79.56l-3.19-.28-.34-32.68c-.42-36.56-.21-40.58 2.08-42.93 1.52-1.52 1.73-1.52 25.9-1.73 13.84-.14 24.57.07 24.92.41.34.35.41 2.22.14 4.23l-.49 3.53h-21.95c-19.45 0-22.09.14-22.43 1.1-.7 1.88-.49 23.13.28 24.59.69 1.24 1.66 1.31 21.4 1.31 22.7 0 21.52-.2 21.52 4.23v2h-42.72l-.48 3.67c-.21 1.94-.42 8.04-.42 13.44 0 7.96.21 9.97 1.11 10.87.9.97 3.95 1.1 22.85 1.1h21.74l.42 1.74c.27 1.03 0 2.35-.63 3.39-.9 1.31-1.87 1.66-5.81 2-4.78.5-38.08.42-43.9 0zM366.21 41.27V3.18H372.93l.42 18.84c.27 10.31.48 27.49.48 38.08v19.25H366.21zM404.09 49.1c.41-38.5.83-46.54 2.42-47.5 3.33-2.15 12.47 9.06 38.78 47.98 9.97 14.81 13.84 20.21 14.12 19.87.14-.07-.07-9.21-.48-20.29-.35-11-.63-25.9-.49-33.17l.21-13.15 2.9-.2 2.92-.22.34 2.98c.63 5.2 1.18 55.53.7 64.53l-.49 8.59-2.5.41c-5.05.83-6.3-.48-19.8-20.21-6.85-9.98-15.16-22.3-18.48-27.35-3.33-4.99-7.41-10.67-9.14-12.6l-3.12-3.47-.07 32.06v31.99h-8.17zM668.8 41.82c0-22.64.27-38.01.69-38.64.55-.9 3.18-1.03 16.75-.96 27 .06 35.1 2.49 39.06 11.7 1.59 3.6 1.59 11.35 0 16.06-.9 2.7-2.15 4.5-4.99 7.06-2.08 1.87-3.74 3.74-3.74 4.09 0 .34.97 1.87 2.15 3.32 3.32 4.23 4.64 7.27 5.74 13.5 1.25 7.07 2.57 20.08 2.08 20.85-.2.27-1.59.55-3.11.55-4.37 0-5.27-1.45-5.75-9.42-.62-8.86-1.6-15.72-2.63-17.93-.97-2.22-6.23-5.75-9.14-6.16-4.23-.63-28.32-1.8-28.87-1.39-.35.21-.63 8.1-.63 17.66v17.24H668.8zm38.56-3.74c3.05-.28 4.02-.83 6.3-3.11 3.74-3.74 4.99-6.58 4.99-11.7 0-6.58-2.5-9.98-8.66-11.7-2.28-.7-20.35-2.08-30.8-2.43l-2.43-.07-.21 14.68c-.14 13.5-.07 14.68 1.04 14.89 1.66.34 25.27-.07 29.77-.56z"/></svg>