<svg xmlns="http://www.w3.org/2000/svg" viewBox="0 0 512 512"><circle cx="256" cy="256" r="256" fill="#434343"/><path fill="#fff" d="M36.4 299.7c0-.2-.5-.4-1.1-.4-1.1 0-1.2-.4-1.2-8.2 0-8 0-8.2 1.3-8.7 1-.4.2-.5-2.7-.5-3.2 0-3.7.1-2.7.6 1.3.6 1.3.9 1.3 8.7 0 7.7 0 8.1-1.1 8.1-.6 0-1.2.2-1.2.4 0 .3 1.7.4 3.7.4s3.7-.1 3.7-.4m24.8 0c0-.1-.5-.4-1.1-.6-1-.2-1.2-.7-1.1-7.2v-7l2 2.5 6.4 7.6c2.4 2.8 4.8 5.2 5.4 5.3 1 .2 1.1-.2 1.1-8.4v-8.6l1.4-.8c1.3-.6 1.1-.7-2.1-.7-2.3 0-3.5.2-3.3.6.2.3.9.5 1.5.5 1 0 1 .5 1 7.2 0 7 0 7.2-1 6-12.4-15.4-11.3-14.3-13.8-14.3-2.2 0-2.3 0-1 .9 1.2.8 1.2 1.3 1.2 8.5s0 7.7-1.1 8c-2 .5-1.2 1 1.7 1 1.5 0 2.8-.2 2.8-.4m44.6 0c0-.3-.5-.5-1.2-.5-1 0-1-.4-1-8.2v-8.2l2.3.1c2 .2 2.4.4 2.6 1.5.3 2 1.2 1.5 1.2-.7v-2H94.5v2c0 1.2.2 1.9.6 1.7.3-.2.5-.9.5-1.5 0-.9.4-1 2.6-1h2.5v8.1c0 7.8 0 8.2-1.1 8.2-.7 0-1.2.2-1.2.4 0 .3 1.7.4 3.7.4s3.7-.1 3.7-.4m36.3 0 .6-2.2c.4-2-.7-2.1-1.1-.2-.3 1-.9 1.4-2.6 1.7-1.2.2-3 .2-3.9 0-1.7-.3-1.7-.4-1.7-4v-3.6h2.9c2.4 0 3 .2 3.2 1.1.5 2 1 1.2.9-1.5-.2-3.5-.2-3.5-.8-2-.4 1-1 1.3-3.3 1.3h-2.9v-7.4h2.8c3.5 0 4.6.4 4.6 1.8 0 1.7 1 1.2 1.3-.7.2-1 .3-1.9.1-2a62.5 62.5 0 0 0-12.9.6c1.3.5 1.3.7 1.3 8.6 0 7.8 0 8.1-1.2 8.1-.6 0-1 .2-.9.4.2.3 3.3.5 6.9.6 4.8 0 6.6 0 6.7-.6m27.4 0c0-.2-.5-.4-1.1-.4-1 0-1.1-.4-1.1-8.2V283h2.5c2.6 0 4.2 1.4 4.2 3.6 0 1.6-2.5 3.8-4.4 3.8h-1.7l3.8 5c3.2 4.2 4 5 5.3 4.9 1.5 0 2-.6 1.1-1l-3.4-4c-2.8-3.6-3.3-5-1.5-5 1 0 3.7-3.2 3.7-4.5 0-.6-.7-1.7-1.4-2.5-1.3-1.3-1.8-1.4-7.5-1.3-4.8 0-5.8.1-4.8.6 1.2.6 1.3.9 1.3 8.7 0 7.7-.1 8.1-1.2 8.1-.6 0-1.1.2-1.1.4 0 .3 1.6.4 3.7.4 2 0 3.6-.1 3.6-.4m34.4 0-1-.6c-1.1-.2-1.2-.7-1.2-8.2 0-7.8 0-8 1.3-8.5.9-.4.2-.5-2.7-.5-3 0-3.6.1-2.7.5 1.2.5 1.3.7 1.3 8.7 0 7.8 0 8.2-1.2 8.2-.6 0-1 .2-1 .4 0 .3 1.6.4 3.6.4s3.6-.1 3.6-.3m34.3-1.2c4-2.6 5.5-8.5 3.4-12.6-3-5.8-13.4-5.9-17.2-.2-1.8 2.6-1.8 8 0 10.7 2.8 4.2 9.2 5.2 13.8 2.1m30.6 1.1c0-.2-.5-.4-1.1-.4-1 0-1.1-.4-1.1-8.2V283h2.5c2.6 0 4.2 1.4 4.2 3.6 0 1.5-2.5 3.8-4.2 3.8-.8 0-1.4.2-1.4.4s1.6 2.4 3.5 4.9c2.8 3.5 3.9 4.5 5.1 4.5h1.6c0-.2-1.6-2.1-3.5-4.4-3.2-4-3.7-5.4-2-5.4 1.1 0 3.8-3.3 3.8-4.6 0-.6-.7-1.7-1.4-2.5-1.3-1.3-1.8-1.4-7.5-1.3-4.8 0-5.8.1-4.8.6 1.2.6 1.2.9 1.2 8.7 0 7.7 0 8.1-1 8.1-.7 0-1.2.2-1.2.4 0 .3 1.6.4 3.7.4 2 0 3.6-.1 3.6-.4m41.5 0 .5-2.2c.4-2-.6-2.1-1.1-.2-.3 1-.9 1.4-2.5 1.7-1.3.2-3 .2-4 0-1.6-.3-1.7-.4-1.7-4v-3.6h3c2.3 0 2.8.2 3 1.1.6 2 1.1 1.2 1-1.5-.1-3.5-.2-3.5-.8-2-.4 1-.9 1.3-3.3 1.3h-2.9v-7.4h2.8c3.5 0 4.6.4 4.6 1.8 0 1.7 1 1.2 1.3-.7.2-1 .3-1.9.2-2a62.5 62.5 0 0 0-13 .6c1.3.5 1.3.7 1.3 8.6 0 7.8 0 8.1-1.1 8.1-.7 0-1 .2-1 .4.2.3 3.3.5 6.9.6 4.8 0 6.6 0 6.8-.6m28.5-.3c2.7-1.3 4.2-4.1 3.6-6.5-.6-1.9-2.4-2.8-7.1-3.5-5.7-.8-4.9-6.5 1-6.5 2.4 0 4.5 1.3 3.9 2.3-.2.3 0 .6.3.8.3.3.5-.4.5-1.6 0-2.3-1-2.8-5.1-2.8-4.5.1-7.3 3.1-6.4 7 .4 2 2.8 3.4 5.9 3.4 2.2 0 4.4 1 4.7 2.2.3 1.6-.8 3.8-2.2 4.5-3 1.4-7 .2-7.6-2.2-.4-1.2-.4-1-.5 1 0 2 .1 2.3 1.2 2.5 3 .6 6 .4 7.8-.6m55 .2c2.4-1 3.7-2.9 3.7-5.4 0-2.8-1.4-3.8-5.8-4.5-2-.4-3.8-1-4.3-1.5-1.8-2.4.3-5.3 3.8-5.3 3 0 4 .5 4 2 0 .8.3 1.4.6 1.4s.5-.8.5-2c0-2 0-2-3.5-2.7-4-1-8.3 2-8.3 5.6 0 2.8 1.5 4.2 5 4.6 1.8.2 3.7.7 4.4 1 1.8 1.2 1.7 3.8-.2 5.3-2.7 2.2-8 1-8-1.7 0-.6-.3-1-.7-.8-.3.2-.5 1.1-.5 2 0 1.3.3 1.9 1.3 2.2 1.9.8 5.8.7 8-.2m26 .2c1-.9.3-2.2-1-2.2-1.2 0-1.8.9-1.4 2 .4 1 1.6 1 2.5.2m33.5.2c.6-.1 1-.8 1.2-2.1.2-2.5-.5-3.2-1-.9-.3 1.6-.6 1.7-4 2-2.2.3-4 .2-4.2 0-.4-.4-.5-4-.4-8.5.1-7.8.1-7.8 1.5-8.2 1-.2-.2-.4-2.8-.4-3 0-3.9.1-3 .5 1.8.7 2 2.2 1.8 9.9-.1 4.7-.4 6.7-.9 6.9-.4 0-.7.4-.7.6 0 .3 9.8.5 12.5.2m24-1.1c.2-1 0-1.3-1.2-1.3-1 0-1.4.3-1.4 1 0 2.2 2.4 2.4 2.7.3M266 246.5c4.5-1.3 7-2.7 8-4.7 1-1.6 1-1.7.1-2.2-.6-.4-1.7-.2-3.2.5-1.3.6-4 1.3-6.2 1.7-11.6 2-21-4.8-23.6-16.8-1-5.2-.4-12.5 1.5-16.3 3.4-7 12.8-9.4 22.2-5.7 3.7 1.4 5.2 3.6 5.2 7.6 0 2.3 0 2.4 1.6 2.4s1.7 0 2-3.8l.8-7.1.5-3.4-2.6-1a33.4 33.4 0 0 0-14.1-2c-6.8.7-17.6 6-21.8 10.6-6.4 7-7.6 19.3-2.8 29 4.2 8.7 12.8 13 24.8 12.4 2.5-.2 6-.7 7.6-1.2m81.3.7c1.1-.4 4.7-2.7 8-5 3.2-2.4 6-4.4 6.2-4.4.2 0 .3 2 .3 4.4v4.3h8.5l8.5.1v-1.5c0-1.4-.2-1.5-2.9-1.8a9 9 0 0 1-3.5-1c-.4-.4-.8-7.1-1.2-18-.7-19.5-1-20.6-5-24.2a19.7 19.7 0 0 0-11.3-4.4c-5.2-.5-10 .6-16.5 3.9l-5.8 2.9v3.8c0 2.9.2 3.8.9 4 1.4.6 2.5.5 2.5-.3 0-.4.6-2 1.3-3.6 1.6-3.4 3.6-4.5 8.8-5 8.5-1 15.3 4.4 15.3 12 0 1.4-.3 1.9-1.3 2l-8.6 1.8a48 48 0 0 0-15.8 4.5c-7.4 4.3-10 14.7-5.2 21.3 2.9 3.9 11.5 6 16.8 4.2M146.4 245c0-1.5 0-1.6-3.3-1.6-2.4 0-3.7-.2-4.5-1-1.2-.9-1.2-1.3-1.3-16 0-16.8.2-17.9 3.7-20.4 3.7-2.8 5.5-3.4 10.2-3.4 4.1 0 4.9.1 7.4 1.6a10 10 0 0 1 4.2 4.6c1.3 2.7 1.4 3 1.3 15.7 0 7.2-.2 15-.4 17.5l-.4 4.6h19.2V245c0-1.5-.1-1.6-3-1.6-5.4 0-5.1 1-5.5-19-.2-16.7-.3-17.4-1.6-20-1.5-3.2-3.8-5.2-8-7.1-2.6-1.3-3.8-1.5-8.4-1.5-6.6 0-8.7.9-14.5 5.8a41.8 41.8 0 0 1-4.4 3.5c-.2 0-.3-2.2-.3-4.8 0-3.3-.2-4.8-.7-4.8-.3 0-2.4.6-4.6 1.4a64 64 0 0 1-8.5 2.1c-4.2.7-4.5.8-4.7 2.2-.2 1.5 0 1.5 3.5 1.7 2 .2 4 .6 4.5 1 .8.7 1 3 1 19 0 21.4.2 20.5-5.7 20.5-3.3 0-3.4 0-3.4 1.6v1.6h28.2V245m83 53.2c-2.3-1.4-3.5-4.2-3.5-8 0-5 2-7.2 6.7-7.2 2.6 0 3.3.2 4.6 1.5 3.2 3.2 3.5 9.5.6 12.7a6.7 6.7 0 0 1-8.4 1m112.4-58c-2.7-1.8-3.7-4.2-3.5-8.3.5-7 4.1-9.1 21.5-13l1.6-.3v14.5l-2.7 2.6c-3.8 3.6-7 5.1-11.5 5.4-2.9.1-4 0-5.4-1z"/></svg>